<?xml version="1.0" encoding="UTF-8"?>
<svg xmlns="http://www.w3.org/2000/svg" version="1.1" width="100" height="100" viewBox="0 0 100 100"><rect x="0" y="0" width="100" height="100" fill="#ffffff"/><g transform="scale(1.887)"><g transform="translate(0,0)"><path fill-rule="evenodd" d="M8 0L8 2L9 2L9 4L8 4L8 10L9 10L9 11L8 11L8 12L4 12L4 11L7 11L7 10L6 10L6 9L7 9L7 8L5 8L5 9L4 9L4 11L3 11L3 13L2 13L2 14L0 14L0 15L2 15L2 16L1 16L1 17L0 17L0 19L1 19L1 21L2 21L2 19L3 19L3 22L2 22L2 23L1 23L1 25L0 25L0 27L1 27L1 26L2 26L2 27L3 27L3 26L4 26L4 28L3 28L3 29L2 29L2 28L0 28L0 29L2 29L2 31L1 31L1 33L0 33L0 34L1 34L1 35L0 35L0 36L1 36L1 37L0 37L0 41L2 41L2 42L0 42L0 43L1 43L1 44L3 44L3 45L4 45L4 44L3 44L3 43L7 43L7 44L6 44L6 45L7 45L7 44L8 44L8 46L9 46L9 47L8 47L8 48L9 48L9 49L10 49L10 51L11 51L11 52L9 52L9 50L8 50L8 53L11 53L11 52L12 52L12 51L13 51L13 53L16 53L16 52L17 52L17 51L18 51L18 53L19 53L19 50L18 50L18 49L19 49L19 48L20 48L20 49L21 49L21 48L20 48L20 47L19 47L19 46L20 46L20 44L22 44L22 46L23 46L23 47L22 47L22 48L23 48L23 51L24 51L24 49L25 49L25 50L26 50L26 49L27 49L27 51L26 51L26 52L28 52L28 53L29 53L29 52L30 52L30 53L31 53L31 52L32 52L32 53L33 53L33 52L34 52L34 49L33 49L33 48L36 48L36 49L35 49L35 52L36 52L36 53L39 53L39 52L40 52L40 53L41 53L41 51L42 51L42 53L43 53L43 50L42 50L42 49L41 49L41 48L43 48L43 47L44 47L44 51L45 51L45 52L44 52L44 53L46 53L46 51L45 51L45 50L46 50L46 49L48 49L48 51L47 51L47 52L48 52L48 51L49 51L49 53L50 53L50 50L51 50L51 49L50 49L50 47L51 47L51 48L52 48L52 49L53 49L53 48L52 48L52 47L53 47L53 45L52 45L52 44L50 44L50 42L51 42L51 41L52 41L52 43L53 43L53 41L52 41L52 40L53 40L53 38L52 38L52 40L50 40L50 37L49 37L49 36L50 36L50 35L49 35L49 36L46 36L46 37L47 37L47 38L46 38L46 39L45 39L45 40L46 40L46 39L47 39L47 41L46 41L46 43L48 43L48 44L45 44L45 42L44 42L44 38L45 38L45 37L44 37L44 36L45 36L45 35L44 35L44 33L46 33L46 35L47 35L47 33L46 33L46 32L49 32L49 30L48 30L48 29L50 29L50 31L51 31L51 32L52 32L52 31L53 31L53 29L52 29L52 27L53 27L53 26L52 26L52 27L51 27L51 26L50 26L50 25L51 25L51 24L52 24L52 23L53 23L53 22L52 22L52 23L51 23L51 21L52 21L52 20L53 20L53 17L50 17L50 15L51 15L51 16L52 16L52 15L53 15L53 12L50 12L50 11L51 11L51 10L50 10L50 9L49 9L49 8L45 8L45 10L46 10L46 12L45 12L45 11L44 11L44 10L42 10L42 9L43 9L43 8L42 8L42 7L43 7L43 3L44 3L44 4L45 4L45 3L44 3L44 1L43 1L43 0L38 0L38 2L35 2L35 3L33 3L33 4L34 4L34 5L35 5L35 6L34 6L34 8L33 8L33 5L32 5L32 2L31 2L31 3L30 3L30 2L28 2L28 4L27 4L27 2L26 2L26 0L23 0L23 1L22 1L22 2L20 2L20 1L21 1L21 0L18 0L18 3L17 3L17 4L16 4L16 3L15 3L15 2L14 2L14 1L15 1L15 0L11 0L11 1L10 1L10 0ZM30 0L30 1L33 1L33 0ZM34 0L34 1L36 1L36 0ZM9 1L9 2L10 2L10 3L11 3L11 2L13 2L13 1L11 1L11 2L10 2L10 1ZM16 1L16 2L17 2L17 1ZM23 1L23 2L22 2L22 4L21 4L21 3L18 3L18 5L19 5L19 8L18 8L18 6L17 6L17 5L16 5L16 4L15 4L15 3L14 3L14 5L13 5L13 4L12 4L12 5L11 5L11 4L10 4L10 6L9 6L9 7L10 7L10 6L11 6L11 8L10 8L10 9L9 9L9 10L10 10L10 12L8 12L8 13L9 13L9 14L8 14L8 15L6 15L6 14L7 14L7 13L5 13L5 15L6 15L6 16L7 16L7 17L5 17L5 18L3 18L3 17L4 17L4 15L3 15L3 16L2 16L2 18L1 18L1 19L2 19L2 18L3 18L3 19L4 19L4 20L5 20L5 22L7 22L7 23L4 23L4 24L7 24L7 23L8 23L8 24L10 24L10 25L9 25L9 28L11 28L11 30L9 30L9 29L8 29L8 31L6 31L6 30L7 30L7 29L6 29L6 30L5 30L5 31L6 31L6 32L5 32L5 33L3 33L3 32L2 32L2 35L1 35L1 36L2 36L2 35L3 35L3 37L1 37L1 40L2 40L2 41L3 41L3 42L2 42L2 43L3 43L3 42L4 42L4 41L5 41L5 40L8 40L8 42L7 42L7 41L6 41L6 42L7 42L7 43L8 43L8 44L10 44L10 46L11 46L11 47L12 47L12 48L10 48L10 49L12 49L12 50L11 50L11 51L12 51L12 50L13 50L13 51L14 51L14 52L15 52L15 50L14 50L14 49L15 49L15 48L16 48L16 47L17 47L17 45L18 45L18 46L19 46L19 45L18 45L18 44L19 44L19 43L18 43L18 42L19 42L19 40L20 40L20 38L23 38L23 37L22 37L22 36L24 36L24 39L22 39L22 40L23 40L23 41L22 41L22 44L23 44L23 41L24 41L24 42L26 42L26 43L25 43L25 44L26 44L26 43L27 43L27 44L29 44L29 47L31 47L31 48L30 48L30 52L31 52L31 49L32 49L32 51L33 51L33 49L32 49L32 47L33 47L33 46L32 46L32 44L34 44L34 47L35 47L35 46L36 46L36 47L37 47L37 49L36 49L36 52L37 52L37 49L38 49L38 50L39 50L39 51L38 51L38 52L39 52L39 51L40 51L40 48L41 48L41 47L42 47L42 46L44 46L44 45L42 45L42 44L44 44L44 43L41 43L41 42L40 42L40 40L41 40L41 41L42 41L42 42L43 42L43 37L42 37L42 36L44 36L44 35L43 35L43 33L42 33L42 32L44 32L44 31L42 31L42 32L41 32L41 29L40 29L40 28L42 28L42 30L43 30L43 28L44 28L44 26L43 26L43 25L42 25L42 24L43 24L43 21L44 21L44 23L45 23L45 24L48 24L48 23L47 23L47 21L48 21L48 22L49 22L49 23L50 23L50 24L51 24L51 23L50 23L50 20L52 20L52 18L51 18L51 19L50 19L50 17L49 17L49 19L47 19L47 21L46 21L46 18L48 18L48 15L49 15L49 13L50 13L50 14L51 14L51 13L50 13L50 12L49 12L49 13L48 13L48 12L46 12L46 14L47 14L47 16L46 16L46 15L44 15L44 16L46 16L46 18L45 18L45 17L44 17L44 18L43 18L43 15L42 15L42 14L43 14L43 13L44 13L44 14L45 14L45 13L44 13L44 11L42 11L42 10L41 10L41 9L42 9L42 8L41 8L41 9L40 9L40 5L42 5L42 3L43 3L43 2L42 2L42 3L41 3L41 2L40 2L40 1L39 1L39 2L38 2L38 4L37 4L37 3L36 3L36 4L35 4L35 5L36 5L36 6L35 6L35 9L34 9L34 10L33 10L33 11L31 11L31 10L32 10L32 9L30 9L30 8L29 8L29 9L25 9L25 10L27 10L27 11L26 11L26 12L25 12L25 11L24 11L24 12L23 12L23 14L21 14L21 13L22 13L22 11L23 11L23 10L24 10L24 9L21 9L21 10L20 10L20 11L21 11L21 12L20 12L20 16L19 16L19 15L18 15L18 16L19 16L19 17L18 17L18 18L16 18L16 19L19 19L19 20L22 20L22 19L23 19L23 18L24 18L24 20L23 20L23 22L24 22L24 24L23 24L23 23L22 23L22 24L23 24L23 25L22 25L22 26L23 26L23 25L24 25L24 24L25 24L25 22L26 22L26 24L28 24L28 22L29 22L29 23L30 23L30 24L31 24L31 25L29 25L29 28L30 28L30 30L31 30L31 31L28 31L28 32L27 32L27 33L26 33L26 31L25 31L25 33L26 33L26 35L25 35L25 34L24 34L24 35L23 35L23 32L22 32L22 31L23 31L23 30L24 30L24 29L23 29L23 30L21 30L21 29L20 29L20 28L19 28L19 24L18 24L18 23L20 23L20 24L21 24L21 21L20 21L20 22L18 22L18 20L15 20L15 19L14 19L14 18L15 18L15 16L14 16L14 15L15 15L15 14L10 14L10 12L11 12L11 13L13 13L13 11L12 11L12 10L11 10L11 8L12 8L12 5L13 5L13 7L14 7L14 8L15 8L15 9L14 9L14 10L15 10L15 12L17 12L17 13L16 13L16 14L18 14L18 11L19 11L19 8L20 8L20 4L21 4L21 7L22 7L22 8L24 8L24 3L25 3L25 4L26 4L26 2L24 2L24 1ZM23 2L23 3L24 3L24 2ZM39 2L39 4L38 4L38 5L37 5L37 6L36 6L36 9L37 9L37 11L36 11L36 10L34 10L34 11L33 11L33 12L32 12L32 14L31 14L31 16L32 16L32 18L30 18L30 15L29 15L29 14L28 14L28 13L29 13L29 10L30 10L30 9L29 9L29 10L28 10L28 11L27 11L27 13L25 13L25 12L24 12L24 14L25 14L25 16L26 16L26 17L24 17L24 18L26 18L26 17L27 17L27 18L28 18L28 19L27 19L27 21L28 21L28 19L29 19L29 20L30 20L30 21L29 21L29 22L30 22L30 23L31 23L31 24L32 24L32 26L31 26L31 27L30 27L30 28L32 28L32 29L33 29L33 30L32 30L32 31L34 31L34 33L33 33L33 32L32 32L32 35L31 35L31 34L30 34L30 33L31 33L31 32L29 32L29 34L28 34L28 35L27 35L27 36L26 36L26 37L25 37L25 38L26 38L26 39L25 39L25 40L26 40L26 42L27 42L27 41L28 41L28 42L29 42L29 43L31 43L31 44L30 44L30 45L31 45L31 44L32 44L32 43L34 43L34 44L35 44L35 43L36 43L36 46L37 46L37 47L39 47L39 48L40 48L40 46L42 46L42 45L41 45L41 44L40 44L40 42L38 42L38 41L39 41L39 40L40 40L40 39L41 39L41 40L42 40L42 39L41 39L41 35L40 35L40 34L38 34L38 33L39 33L39 32L40 32L40 33L41 33L41 34L42 34L42 33L41 33L41 32L40 32L40 31L38 31L38 28L39 28L39 27L42 27L42 28L43 28L43 26L42 26L42 25L41 25L41 24L42 24L42 23L41 23L41 24L40 24L40 23L39 23L39 22L38 22L38 21L39 21L39 20L40 20L40 22L42 22L42 21L43 21L43 20L44 20L44 21L45 21L45 22L46 22L46 21L45 21L45 18L44 18L44 19L43 19L43 18L42 18L42 16L41 16L41 15L40 15L40 14L42 14L42 13L43 13L43 12L42 12L42 11L41 11L41 10L40 10L40 9L39 9L39 11L38 11L38 9L37 9L37 6L38 6L38 7L39 7L39 6L38 6L38 5L40 5L40 2ZM29 3L29 7L30 7L30 6L31 6L31 7L32 7L32 6L31 6L31 5L30 5L30 3ZM22 4L22 7L23 7L23 4ZM15 5L15 6L14 6L14 7L15 7L15 8L16 8L16 9L17 9L17 6L16 6L16 5ZM25 5L25 8L28 8L28 5ZM15 6L15 7L16 7L16 6ZM26 6L26 7L27 7L27 6ZM41 6L41 7L42 7L42 6ZM44 6L44 7L45 7L45 6ZM0 8L0 9L3 9L3 8ZM51 8L51 9L52 9L52 11L53 11L53 8ZM46 9L46 10L47 10L47 9ZM16 10L16 11L18 11L18 10ZM21 10L21 11L22 11L22 10ZM48 10L48 11L49 11L49 10ZM0 11L0 13L1 13L1 11ZM34 11L34 12L33 12L33 13L34 13L34 14L35 14L35 15L34 15L34 23L35 23L35 22L36 22L36 24L35 24L35 25L34 25L34 26L35 26L35 28L34 28L34 27L33 27L33 26L32 26L32 28L34 28L34 30L35 30L35 33L34 33L34 35L35 35L35 36L34 36L34 38L32 38L32 36L33 36L33 35L32 35L32 36L31 36L31 35L30 35L30 36L31 36L31 37L30 37L30 38L29 38L29 37L28 37L28 36L29 36L29 35L28 35L28 36L27 36L27 37L26 37L26 38L27 38L27 39L26 39L26 40L27 40L27 39L28 39L28 41L29 41L29 39L30 39L30 42L32 42L32 40L34 40L34 43L35 43L35 41L36 41L36 40L39 40L39 39L40 39L40 35L39 35L39 37L38 37L38 38L39 38L39 39L37 39L37 37L36 37L36 36L38 36L38 34L37 34L37 33L38 33L38 31L37 31L37 30L36 30L36 27L37 27L37 28L38 28L38 27L39 27L39 25L40 25L40 24L39 24L39 23L38 23L38 22L36 22L36 20L37 20L37 18L36 18L36 15L37 15L37 13L36 13L36 12L35 12L35 11ZM37 11L37 12L38 12L38 14L40 14L40 12L41 12L41 11L39 11L39 12L38 12L38 11ZM30 12L30 13L31 13L31 12ZM35 13L35 14L36 14L36 13ZM47 13L47 14L48 14L48 13ZM26 14L26 16L27 16L27 17L28 17L28 16L29 16L29 15L28 15L28 14ZM32 14L32 16L33 16L33 14ZM9 15L9 17L7 17L7 18L5 18L5 19L10 19L10 22L9 22L9 20L8 20L8 21L7 21L7 20L6 20L6 21L7 21L7 22L8 22L8 23L10 23L10 24L11 24L11 25L10 25L10 27L11 27L11 28L12 28L12 29L13 29L13 28L12 28L12 26L11 26L11 25L13 25L13 26L14 26L14 25L15 25L15 24L14 24L14 23L15 23L15 22L13 22L13 24L11 24L11 23L12 23L12 21L11 21L11 19L13 19L13 18L12 18L12 17L13 17L13 16L12 16L12 15ZM16 15L16 16L17 16L17 15ZM22 15L22 16L24 16L24 15ZM27 15L27 16L28 16L28 15ZM20 16L20 17L21 17L21 16ZM38 17L38 18L39 18L39 19L38 19L38 20L39 20L39 19L40 19L40 18L41 18L41 17L40 17L40 18L39 18L39 17ZM20 18L20 19L22 19L22 18ZM29 18L29 19L30 19L30 20L31 20L31 21L30 21L30 22L32 22L32 23L33 23L33 22L32 22L32 19L33 19L33 18L32 18L32 19L30 19L30 18ZM35 18L35 19L36 19L36 18ZM25 19L25 20L24 20L24 22L25 22L25 20L26 20L26 19ZM41 19L41 21L42 21L42 19ZM49 19L49 20L48 20L48 21L49 21L49 20L50 20L50 19ZM14 20L14 21L15 21L15 20ZM16 22L16 23L17 23L17 22ZM37 23L37 24L36 24L36 26L37 26L37 24L38 24L38 25L39 25L39 24L38 24L38 23ZM16 24L16 25L17 25L17 24ZM2 25L2 26L3 26L3 25ZM5 25L5 28L8 28L8 25ZM25 25L25 28L28 28L28 25ZM45 25L45 28L48 28L48 25ZM6 26L6 27L7 27L7 26ZM16 26L16 27L17 27L17 28L16 28L16 29L15 29L15 27L14 27L14 30L16 30L16 29L17 29L17 32L16 32L16 31L14 31L14 32L15 32L15 35L14 35L14 34L13 34L13 33L12 33L12 32L11 32L11 31L12 31L12 30L11 30L11 31L10 31L10 32L11 32L11 33L9 33L9 34L8 34L8 32L6 32L6 33L7 33L7 34L5 34L5 35L4 35L4 37L5 37L5 39L7 39L7 38L10 38L10 37L11 37L11 36L13 36L13 35L14 35L14 37L15 37L15 38L12 38L12 39L13 39L13 43L14 43L14 46L16 46L16 45L17 45L17 44L15 44L15 43L14 43L14 41L15 41L15 40L16 40L16 41L17 41L17 39L16 39L16 37L17 37L17 35L18 35L18 37L19 37L19 38L20 38L20 36L19 36L19 35L18 35L18 33L19 33L19 32L18 32L18 31L20 31L20 29L19 29L19 28L18 28L18 26ZM20 26L20 27L21 27L21 28L24 28L24 27L21 27L21 26ZM26 26L26 27L27 27L27 26ZM46 26L46 27L47 27L47 26ZM50 27L50 29L51 29L51 31L52 31L52 29L51 29L51 27ZM17 28L17 29L18 29L18 30L19 30L19 29L18 29L18 28ZM3 29L3 30L4 30L4 29ZM25 29L25 30L26 30L26 29ZM28 29L28 30L29 30L29 29ZM45 29L45 32L46 32L46 30L47 30L47 31L48 31L48 30L47 30L47 29ZM36 31L36 33L35 33L35 35L36 35L36 33L37 33L37 31ZM20 32L20 33L21 33L21 32ZM11 33L11 35L8 35L8 36L7 36L7 35L5 35L5 36L7 36L7 37L6 37L6 38L7 38L7 37L10 37L10 36L11 36L11 35L13 35L13 34L12 34L12 33ZM49 33L49 34L50 34L50 33ZM51 33L51 34L52 34L52 35L51 35L51 36L52 36L52 37L53 37L53 36L52 36L52 35L53 35L53 33ZM16 34L16 35L17 35L17 34ZM20 34L20 35L21 35L21 36L22 36L22 34ZM15 36L15 37L16 37L16 36ZM48 37L48 38L49 38L49 37ZM2 38L2 40L3 40L3 39L4 39L4 38ZM28 38L28 39L29 39L29 38ZM30 38L30 39L31 39L31 40L32 40L32 38ZM35 38L35 39L34 39L34 40L35 40L35 39L36 39L36 38ZM8 39L8 40L9 40L9 41L10 41L10 40L9 40L9 39ZM14 39L14 40L15 40L15 39ZM18 39L18 40L19 40L19 39ZM48 40L48 43L49 43L49 42L50 42L50 41L49 41L49 40ZM10 42L10 44L11 44L11 45L12 45L12 42ZM16 42L16 43L17 43L17 42ZM20 42L20 43L21 43L21 42ZM37 42L37 43L38 43L38 42ZM37 44L37 45L38 45L38 46L40 46L40 44L39 44L39 45L38 45L38 44ZM23 45L23 46L24 46L24 45ZM25 45L25 48L28 48L28 45ZM45 45L45 48L48 48L48 45ZM49 45L49 47L50 47L50 45ZM12 46L12 47L13 47L13 46ZM26 46L26 47L27 47L27 46ZM31 46L31 47L32 47L32 46ZM46 46L46 47L47 47L47 46ZM51 46L51 47L52 47L52 46ZM18 47L18 48L19 48L19 47ZM28 49L28 50L29 50L29 49ZM16 50L16 51L17 51L17 50ZM20 50L20 51L21 51L21 52L22 52L22 53L23 53L23 52L22 52L22 50ZM28 51L28 52L29 52L29 51ZM24 52L24 53L25 53L25 52ZM52 52L52 53L53 53L53 52ZM0 0L0 7L7 7L7 0ZM1 1L1 6L6 6L6 1ZM2 2L2 5L5 5L5 2ZM46 0L46 7L53 7L53 0ZM47 1L47 6L52 6L52 1ZM48 2L48 5L51 5L51 2ZM0 46L0 53L7 53L7 46ZM1 47L1 52L6 52L6 47ZM2 48L2 51L5 51L5 48Z" fill="#000000"/></g></g></svg>
