<?xml version="1.0" encoding="UTF-8"?>
<svg xmlns="http://www.w3.org/2000/svg" version="1.1" width="100" height="100" viewBox="0 0 100 100"><rect x="0" y="0" width="100" height="100" fill="#ffffff"/><g transform="scale(1.887)"><g transform="translate(0,0)"><path fill-rule="evenodd" d="M8 0L8 4L9 4L9 5L8 5L8 7L9 7L9 6L10 6L10 8L13 8L13 9L12 9L12 10L11 10L11 11L10 11L10 10L8 10L8 12L9 12L9 13L7 13L7 12L6 12L6 11L7 11L7 10L3 10L3 13L4 13L4 11L5 11L5 12L6 12L6 13L5 13L5 15L4 15L4 14L3 14L3 15L2 15L2 16L1 16L1 15L0 15L0 18L1 18L1 17L2 17L2 19L3 19L3 20L2 20L2 21L1 21L1 19L0 19L0 22L2 22L2 21L3 21L3 22L4 22L4 20L5 20L5 19L3 19L3 17L5 17L5 18L6 18L6 19L7 19L7 20L6 20L6 21L5 21L5 24L3 24L3 25L1 25L1 26L0 26L0 27L1 27L1 26L2 26L2 27L3 27L3 29L5 29L5 30L4 30L4 31L5 31L5 32L4 32L4 33L3 33L3 31L2 31L2 29L0 29L0 31L2 31L2 32L0 32L0 33L3 33L3 34L4 34L4 33L5 33L5 34L6 34L6 35L2 35L2 34L0 34L0 36L1 36L1 37L0 37L0 40L1 40L1 41L0 41L0 43L1 43L1 44L3 44L3 45L4 45L4 44L3 44L3 43L7 43L7 44L6 44L6 45L8 45L8 46L9 46L9 44L10 44L10 43L11 43L11 40L12 40L12 41L14 41L14 42L13 42L13 47L14 47L14 48L13 48L13 49L12 49L12 48L11 48L11 49L10 49L10 47L8 47L8 49L10 49L10 52L9 52L9 51L8 51L8 53L10 53L10 52L11 52L11 53L12 53L12 52L13 52L13 53L19 53L19 52L15 52L15 51L16 51L16 50L18 50L18 51L20 51L20 50L21 50L21 51L22 51L22 52L21 52L21 53L22 53L22 52L23 52L23 53L25 53L25 52L26 52L26 53L28 53L28 52L30 52L30 53L37 53L37 52L38 52L38 51L37 51L37 47L38 47L38 46L39 46L39 47L40 47L40 48L39 48L39 49L38 49L38 50L40 50L40 51L41 51L41 50L43 50L43 51L42 51L42 52L41 52L41 53L44 53L44 52L45 52L45 53L48 53L48 51L44 51L44 49L46 49L46 50L49 50L49 52L50 52L50 53L52 53L52 52L53 52L53 51L51 51L51 52L50 52L50 50L49 50L49 49L50 49L50 45L51 45L51 44L52 44L52 47L51 47L51 48L52 48L52 49L53 49L53 48L52 48L52 47L53 47L53 38L52 38L52 36L53 36L53 32L52 32L52 31L53 31L53 30L52 30L52 31L51 31L51 32L52 32L52 33L50 33L50 34L49 34L49 33L47 33L47 34L46 34L46 35L45 35L45 33L46 33L46 32L48 32L48 31L47 31L47 30L49 30L49 31L50 31L50 29L51 29L51 28L50 28L50 27L51 27L51 25L52 25L52 24L53 24L53 22L52 22L52 23L51 23L51 24L50 24L50 21L51 21L51 20L52 20L52 21L53 21L53 20L52 20L52 19L53 19L53 16L52 16L52 15L53 15L53 13L52 13L52 15L51 15L51 18L50 18L50 19L49 19L49 18L48 18L48 17L50 17L50 15L49 15L49 14L46 14L46 12L44 12L44 11L45 11L45 10L46 10L46 11L47 11L47 13L50 13L50 14L51 14L51 12L53 12L53 8L49 8L49 9L48 9L48 8L47 8L47 10L46 10L46 9L44 9L44 10L43 10L43 9L42 9L42 8L41 8L41 10L43 10L43 13L40 13L40 12L42 12L42 11L40 11L40 8L38 8L38 7L39 7L39 5L40 5L40 4L41 4L41 6L40 6L40 7L41 7L41 6L42 6L42 7L43 7L43 8L45 8L45 6L44 6L44 7L43 7L43 3L44 3L44 4L45 4L45 3L44 3L44 1L43 1L43 0L42 0L42 1L41 1L41 0L40 0L40 2L41 2L41 3L40 3L40 4L39 4L39 0L38 0L38 5L37 5L37 4L35 4L35 3L36 3L36 2L37 2L37 1L36 1L36 2L35 2L35 3L34 3L34 4L32 4L32 3L33 3L33 2L32 2L32 1L34 1L34 0L27 0L27 1L26 1L26 0L24 0L24 1L26 1L26 2L23 2L23 0L13 0L13 1L14 1L14 2L13 2L13 4L12 4L12 3L11 3L11 4L12 4L12 5L10 5L10 4L9 4L9 0ZM11 0L11 1L10 1L10 2L11 2L11 1L12 1L12 0ZM15 1L15 3L14 3L14 4L13 4L13 5L12 5L12 6L11 6L11 7L12 7L12 6L13 6L13 7L14 7L14 8L16 8L16 9L15 9L15 10L14 10L14 9L13 9L13 10L12 10L12 11L11 11L11 12L12 12L12 13L13 13L13 14L15 14L15 15L16 15L16 16L14 16L14 15L13 15L13 17L12 17L12 18L13 18L13 19L12 19L12 20L11 20L11 18L9 18L9 19L8 19L8 18L7 18L7 17L6 17L6 18L7 18L7 19L8 19L8 20L9 20L9 21L8 21L8 22L7 22L7 21L6 21L6 22L7 22L7 23L6 23L6 24L9 24L9 26L10 26L10 28L11 28L11 26L10 26L10 25L12 25L12 23L11 23L11 22L12 22L12 21L13 21L13 23L14 23L14 24L16 24L16 25L15 25L15 27L14 27L14 25L13 25L13 26L12 26L12 30L13 30L13 29L14 29L14 30L15 30L15 29L14 29L14 28L15 28L15 27L16 27L16 26L18 26L18 25L19 25L19 27L17 27L17 28L16 28L16 30L18 30L18 31L17 31L17 32L16 32L16 31L15 31L15 32L14 32L14 31L12 31L12 32L10 32L10 31L11 31L11 30L10 30L10 29L6 29L6 30L7 30L7 31L6 31L6 32L5 32L5 33L6 33L6 34L7 34L7 33L6 33L6 32L7 32L7 31L8 31L8 30L10 30L10 31L9 31L9 32L8 32L8 33L9 33L9 35L6 35L6 36L9 36L9 38L8 38L8 37L4 37L4 39L3 39L3 40L4 40L4 41L3 41L3 42L2 42L2 43L3 43L3 42L4 42L4 41L5 41L5 42L7 42L7 43L8 43L8 44L9 44L9 42L8 42L8 40L9 40L9 41L10 41L10 39L12 39L12 38L13 38L13 39L14 39L14 40L15 40L15 38L13 38L13 37L14 37L14 36L16 36L16 41L15 41L15 42L14 42L14 43L16 43L16 42L17 42L17 43L18 43L18 44L19 44L19 43L20 43L20 42L21 42L21 41L22 41L22 43L21 43L21 44L20 44L20 45L19 45L19 46L18 46L18 45L17 45L17 44L16 44L16 46L14 46L14 47L15 47L15 48L14 48L14 49L18 49L18 48L19 48L19 49L20 49L20 48L21 48L21 47L22 47L22 48L23 48L23 49L21 49L21 50L22 50L22 51L23 51L23 52L24 52L24 51L23 51L23 49L24 49L24 47L23 47L23 46L24 46L24 44L22 44L22 43L23 43L23 42L24 42L24 43L25 43L25 44L26 44L26 42L27 42L27 43L32 43L32 44L31 44L31 45L32 45L32 46L31 46L31 47L30 47L30 46L29 46L29 48L31 48L31 50L30 50L30 51L32 51L32 48L36 48L36 47L37 47L37 46L38 46L38 45L39 45L39 46L40 46L40 45L41 45L41 44L43 44L43 43L41 43L41 41L43 41L43 39L46 39L46 40L47 40L47 41L49 41L49 42L48 42L48 43L46 43L46 41L45 41L45 43L44 43L44 44L45 44L45 43L46 43L46 44L49 44L49 42L50 42L50 44L51 44L51 43L52 43L52 38L51 38L51 39L50 39L50 37L51 37L51 36L52 36L52 34L50 34L50 35L49 35L49 34L48 34L48 35L49 35L49 36L47 36L47 37L49 37L49 39L50 39L50 40L51 40L51 42L50 42L50 41L49 41L49 40L47 40L47 39L46 39L46 37L45 37L45 36L44 36L44 35L43 35L43 34L44 34L44 33L43 33L43 32L44 32L44 30L41 30L41 29L44 29L44 27L43 27L43 26L44 26L44 25L43 25L43 26L41 26L41 27L42 27L42 28L40 28L40 29L39 29L39 32L40 32L40 33L39 33L39 34L38 34L38 31L37 31L37 34L38 34L38 35L35 35L35 31L34 31L34 30L37 30L37 29L38 29L38 28L39 28L39 27L38 27L38 28L37 28L37 27L36 27L36 26L37 26L37 25L38 25L38 24L40 24L40 25L39 25L39 26L40 26L40 25L41 25L41 24L44 24L44 23L48 23L48 24L49 24L49 23L48 23L48 21L47 21L47 20L49 20L49 21L50 21L50 20L51 20L51 19L52 19L52 18L51 18L51 19L50 19L50 20L49 20L49 19L48 19L48 18L47 18L47 17L46 17L46 16L47 16L47 15L46 15L46 14L44 14L44 13L43 13L43 14L41 14L41 15L42 15L42 16L40 16L40 18L38 18L38 16L39 16L39 15L40 15L40 14L38 14L38 13L39 13L39 12L40 12L40 11L39 11L39 10L38 10L38 8L37 8L37 10L38 10L38 11L39 11L39 12L38 12L38 13L34 13L34 12L35 12L35 11L34 11L34 10L36 10L36 9L35 9L35 7L36 7L36 6L37 6L37 7L38 7L38 6L37 6L37 5L36 5L36 6L35 6L35 7L34 7L34 5L35 5L35 4L34 4L34 5L32 5L32 4L31 4L31 7L32 7L32 8L31 8L31 9L32 9L32 10L33 10L33 11L31 11L31 10L30 10L30 11L28 11L28 10L29 10L29 9L30 9L30 8L29 8L29 9L27 9L27 11L26 11L26 10L25 10L25 9L23 9L23 8L24 8L24 5L23 5L23 4L24 4L24 3L23 3L23 4L22 4L22 1L21 1L21 2L20 2L20 1L17 1L17 2L16 2L16 1ZM27 1L27 2L26 2L26 3L25 3L25 4L26 4L26 3L27 3L27 2L28 2L28 4L29 4L29 2L31 2L31 1ZM42 2L42 3L43 3L43 2ZM15 3L15 4L14 4L14 5L13 5L13 6L14 6L14 7L15 7L15 6L16 6L16 7L17 7L17 9L18 9L18 10L16 10L16 11L15 11L15 12L14 12L14 11L13 11L13 12L14 12L14 13L15 13L15 14L16 14L16 15L18 15L18 14L16 14L16 13L15 13L15 12L17 12L17 13L20 13L20 15L19 15L19 16L18 16L18 17L13 17L13 18L14 18L14 19L16 19L16 18L18 18L18 20L16 20L16 21L15 21L15 20L14 20L14 22L15 22L15 23L16 23L16 24L17 24L17 25L18 25L18 24L19 24L19 25L21 25L21 26L20 26L20 27L19 27L19 28L17 28L17 29L18 29L18 30L19 30L19 28L20 28L20 31L21 31L21 32L20 32L20 33L19 33L19 32L18 32L18 33L13 33L13 32L12 32L12 33L11 33L11 35L9 35L9 36L10 36L10 37L11 37L11 38L12 38L12 37L13 37L13 36L14 36L14 35L16 35L16 34L18 34L18 36L17 36L17 38L18 38L18 39L17 39L17 41L18 41L18 42L19 42L19 41L21 41L21 39L22 39L22 40L23 40L23 41L25 41L25 42L26 42L26 41L27 41L27 42L31 42L31 41L29 41L29 39L30 39L30 40L31 40L31 39L30 39L30 38L31 38L31 37L30 37L30 36L29 36L29 35L30 35L30 34L31 34L31 36L32 36L32 42L33 42L33 44L32 44L32 45L33 45L33 47L34 47L34 45L35 45L35 46L37 46L37 45L38 45L38 44L39 44L39 45L40 45L40 44L41 44L41 43L40 43L40 41L39 41L39 40L36 40L36 39L38 39L38 38L39 38L39 39L41 39L41 37L42 37L42 39L43 39L43 38L45 38L45 37L44 37L44 36L42 36L42 35L41 35L41 34L43 34L43 33L41 33L41 34L40 34L40 35L39 35L39 37L38 37L38 36L35 36L35 37L38 37L38 38L35 38L35 40L34 40L34 31L32 31L32 30L34 30L34 28L32 28L32 29L29 29L29 23L30 23L30 22L31 22L31 23L32 23L32 22L33 22L33 23L34 23L34 21L35 21L35 22L36 22L36 21L38 21L38 22L37 22L37 24L35 24L35 25L37 25L37 24L38 24L38 22L40 22L40 20L41 20L41 21L42 21L42 23L44 23L44 22L45 22L45 21L46 21L46 20L47 20L47 18L46 18L46 17L44 17L44 15L43 15L43 17L41 17L41 18L40 18L40 20L38 20L38 19L37 19L37 18L35 18L35 19L34 19L34 17L37 17L37 16L38 16L38 15L35 15L35 14L34 14L34 13L33 13L33 12L34 12L34 11L33 11L33 12L32 12L32 13L33 13L33 15L34 15L34 17L33 17L33 16L32 16L32 19L31 19L31 20L30 20L30 21L29 21L29 18L31 18L31 17L27 17L27 16L26 16L26 15L27 15L27 14L28 14L28 16L29 16L29 14L28 14L28 13L27 13L27 14L26 14L26 15L25 15L25 14L23 14L23 13L26 13L26 11L25 11L25 12L23 12L23 13L22 13L22 10L20 10L20 11L19 11L19 9L21 9L21 6L20 6L20 5L22 5L22 8L23 8L23 5L22 5L22 4L20 4L20 5L19 5L19 6L18 6L18 5L17 5L17 6L16 6L16 4L17 4L17 3ZM25 5L25 8L28 8L28 5ZM17 6L17 7L18 7L18 6ZM19 6L19 8L18 8L18 9L19 9L19 8L20 8L20 6ZM26 6L26 7L27 7L27 6ZM29 6L29 7L30 7L30 6ZM32 6L32 7L33 7L33 8L32 8L32 9L33 9L33 10L34 10L34 9L33 9L33 8L34 8L34 7L33 7L33 6ZM0 8L0 10L1 10L1 12L0 12L0 14L2 14L2 10L1 10L1 9L2 9L2 8ZM4 8L4 9L7 9L7 8ZM50 9L50 12L51 12L51 11L52 11L52 9ZM23 10L23 11L24 11L24 10ZM47 10L47 11L49 11L49 10ZM9 11L9 12L10 12L10 11ZM20 12L20 13L21 13L21 12ZM29 12L29 13L30 13L30 15L32 15L32 14L31 14L31 12ZM6 13L6 14L7 14L7 13ZM9 13L9 14L10 14L10 15L12 15L12 14L10 14L10 13ZM21 14L21 15L20 15L20 16L19 16L19 17L20 17L20 16L21 16L21 15L22 15L22 16L23 16L23 17L21 17L21 18L20 18L20 19L19 19L19 20L21 20L21 21L23 21L23 24L22 24L22 23L20 23L20 24L21 24L21 25L22 25L22 26L23 26L23 24L25 24L25 23L26 23L26 24L28 24L28 22L27 22L27 23L26 23L26 22L25 22L25 21L23 21L23 20L25 20L25 19L26 19L26 20L27 20L27 21L28 21L28 18L26 18L26 16L25 16L25 15L23 15L23 14ZM3 15L3 16L2 16L2 17L3 17L3 16L4 16L4 15ZM5 15L5 16L8 16L8 17L10 17L10 16L8 16L8 15ZM45 15L45 16L46 16L46 15ZM48 15L48 16L49 16L49 15ZM43 17L43 18L42 18L42 19L45 19L45 20L46 20L46 18L44 18L44 17ZM21 18L21 20L22 20L22 18ZM23 18L23 19L25 19L25 18ZM9 19L9 20L10 20L10 21L9 21L9 22L10 22L10 21L11 21L11 20L10 20L10 19ZM33 19L33 21L34 21L34 19ZM36 19L36 20L37 20L37 19ZM31 20L31 22L32 22L32 20ZM43 20L43 22L44 22L44 20ZM16 21L16 23L18 23L18 22L20 22L20 21ZM24 22L24 23L25 23L25 22ZM1 23L1 24L2 24L2 23ZM9 23L9 24L11 24L11 23ZM40 23L40 24L41 24L41 23ZM32 24L32 25L30 25L30 28L31 28L31 27L35 27L35 29L37 29L37 28L36 28L36 27L35 27L35 26L34 26L34 25L33 25L33 24ZM5 25L5 28L8 28L8 25ZM25 25L25 28L28 28L28 25ZM45 25L45 28L48 28L48 25ZM49 25L49 26L50 26L50 25ZM3 26L3 27L4 27L4 26ZM6 26L6 27L7 27L7 26ZM26 26L26 27L27 27L27 26ZM46 26L46 27L47 27L47 26ZM52 26L52 29L53 29L53 26ZM13 27L13 28L14 28L14 27ZM21 28L21 29L23 29L23 30L21 30L21 31L22 31L22 32L23 32L23 33L21 33L21 34L20 34L20 35L19 35L19 36L20 36L20 37L19 37L19 38L20 38L20 39L19 39L19 40L18 40L18 41L19 41L19 40L20 40L20 39L21 39L21 38L23 38L23 36L24 36L24 37L25 37L25 38L26 38L26 36L27 36L27 39L26 39L26 40L25 40L25 39L24 39L24 40L25 40L25 41L26 41L26 40L27 40L27 41L28 41L28 39L29 39L29 36L27 36L27 35L29 35L29 34L28 34L28 33L30 33L30 32L31 32L31 33L32 33L32 31L31 31L31 30L29 30L29 31L30 31L30 32L28 32L28 31L27 31L27 30L28 30L28 29L26 29L26 30L25 30L25 29L24 29L24 28ZM49 28L49 29L50 29L50 28ZM23 30L23 31L24 31L24 32L25 32L25 31L24 31L24 30ZM45 30L45 31L46 31L46 30ZM26 31L26 33L25 33L25 34L26 34L26 35L27 35L27 33L28 33L28 32L27 32L27 31ZM40 31L40 32L43 32L43 31ZM9 32L9 33L10 33L10 32ZM21 34L21 35L22 35L22 36L21 36L21 37L20 37L20 38L21 38L21 37L22 37L22 36L23 36L23 35L24 35L24 34L23 34L23 35L22 35L22 34ZM11 35L11 36L12 36L12 35ZM32 35L32 36L33 36L33 35ZM40 35L40 37L39 37L39 38L40 38L40 37L41 37L41 35ZM2 36L2 37L3 37L3 36ZM1 38L1 40L2 40L2 38ZM6 38L6 39L4 39L4 40L5 40L5 41L7 41L7 40L6 40L6 39L8 39L8 38ZM9 38L9 39L10 39L10 38ZM33 40L33 41L34 41L34 44L33 44L33 45L34 45L34 44L36 44L36 43L37 43L37 44L38 44L38 43L39 43L39 44L40 44L40 43L39 43L39 42L38 42L38 41L36 41L36 43L35 43L35 41L34 41L34 40ZM37 42L37 43L38 43L38 42ZM14 44L14 45L15 45L15 44ZM21 44L21 45L20 45L20 46L19 46L19 48L20 48L20 47L21 47L21 45L22 45L22 46L23 46L23 45L22 45L22 44ZM25 45L25 48L28 48L28 45ZM45 45L45 48L48 48L48 45ZM17 46L17 47L16 47L16 48L17 48L17 47L18 47L18 46ZM26 46L26 47L27 47L27 46ZM42 46L42 48L40 48L40 50L41 50L41 49L43 49L43 48L44 48L44 46ZM46 46L46 47L47 47L47 46ZM31 47L31 48L32 48L32 47ZM11 49L11 52L12 52L12 51L15 51L15 50L12 50L12 49ZM25 49L25 50L26 50L26 49ZM28 49L28 50L27 50L27 51L29 51L29 49ZM34 49L34 51L33 51L33 52L34 52L34 51L35 51L35 49ZM36 51L36 52L37 52L37 51ZM43 51L43 52L44 52L44 51ZM0 0L0 7L7 7L7 0ZM1 1L1 6L6 6L6 1ZM2 2L2 5L5 5L5 2ZM46 0L46 7L53 7L53 0ZM47 1L47 6L52 6L52 1ZM48 2L48 5L51 5L51 2ZM0 46L0 53L7 53L7 46ZM1 47L1 52L6 52L6 47ZM2 48L2 51L5 51L5 48Z" fill="#000000"/></g></g></svg>
