<?xml version="1.0" encoding="UTF-8"?>
<svg xmlns="http://www.w3.org/2000/svg" version="1.1" width="100" height="100" viewBox="0 0 100 100"><rect x="0" y="0" width="100" height="100" fill="#ffffff"/><g transform="scale(1.887)"><g transform="translate(0,0)"><path fill-rule="evenodd" d="M8 0L8 1L13 1L13 2L14 2L14 3L12 3L12 5L9 5L9 4L11 4L11 3L9 3L9 2L8 2L8 5L9 5L9 6L8 6L8 7L9 7L9 6L10 6L10 7L11 7L11 8L12 8L12 10L11 10L11 9L10 9L10 8L8 8L8 9L7 9L7 8L6 8L6 9L5 9L5 10L0 10L0 11L1 11L1 12L0 12L0 15L1 15L1 14L2 14L2 13L3 13L3 11L4 11L4 14L3 14L3 15L4 15L4 16L2 16L2 17L1 17L1 18L0 18L0 20L1 20L1 21L0 21L0 23L1 23L1 22L2 22L2 24L0 24L0 26L1 26L1 28L0 28L0 30L3 30L3 31L2 31L2 33L3 33L3 35L2 35L2 34L1 34L1 33L0 33L0 35L2 35L2 36L0 36L0 37L1 37L1 38L0 38L0 41L1 41L1 40L2 40L2 41L3 41L3 43L2 43L2 42L0 42L0 43L1 43L1 44L3 44L3 45L4 45L4 44L3 44L3 43L7 43L7 44L6 44L6 45L7 45L7 44L8 44L8 46L10 46L10 50L9 50L9 49L8 49L8 53L9 53L9 52L10 52L10 51L12 51L12 52L13 52L13 51L15 51L15 50L17 50L17 49L16 49L16 48L18 48L18 49L20 49L20 50L21 50L21 49L20 49L20 48L18 48L18 46L19 46L19 47L20 47L20 45L21 45L21 47L23 47L23 48L22 48L22 49L23 49L23 48L24 48L24 49L25 49L25 50L24 50L24 51L25 51L25 50L26 50L26 52L25 52L25 53L26 53L26 52L27 52L27 53L28 53L28 51L30 51L30 52L29 52L29 53L33 53L33 52L34 52L34 53L35 53L35 52L37 52L37 53L38 53L38 50L39 50L39 53L40 53L40 51L42 51L42 50L39 50L39 48L38 48L38 47L40 47L40 48L41 48L41 49L42 49L42 48L41 48L41 47L40 47L40 46L43 46L43 45L44 45L44 48L43 48L43 50L45 50L45 51L43 51L43 52L41 52L41 53L45 53L45 51L46 51L46 50L47 50L47 51L48 51L48 49L49 49L49 50L50 50L50 51L49 51L49 52L48 52L48 53L52 53L52 50L50 50L50 49L51 49L51 48L53 48L53 47L52 47L52 46L53 46L53 45L52 45L52 46L51 46L51 45L50 45L50 44L51 44L51 42L50 42L50 41L51 41L51 40L52 40L52 41L53 41L53 40L52 40L52 39L53 39L53 38L51 38L51 36L53 36L53 35L52 35L52 34L53 34L53 33L52 33L52 32L53 32L53 31L52 31L52 32L51 32L51 31L50 31L50 30L53 30L53 28L52 28L52 29L51 29L51 28L50 28L50 27L53 27L53 26L51 26L51 25L50 25L50 26L49 26L49 24L45 24L45 23L47 23L47 22L48 22L48 20L47 20L47 19L48 19L48 18L49 18L49 17L48 17L48 18L47 18L47 16L46 16L46 17L45 17L45 18L44 18L44 19L43 19L43 18L42 18L42 17L40 17L40 15L42 15L42 16L43 16L43 17L44 17L44 14L46 14L46 15L47 15L47 14L46 14L46 13L47 13L47 12L48 12L48 13L49 13L49 14L48 14L48 16L50 16L50 14L52 14L52 16L51 16L51 17L50 17L50 22L49 22L49 23L52 23L52 24L53 24L53 23L52 23L52 22L53 22L53 21L51 21L51 18L52 18L52 16L53 16L53 13L52 13L52 12L53 12L53 11L52 11L52 10L53 10L53 8L52 8L52 9L51 9L51 8L48 8L48 9L51 9L51 10L50 10L50 11L52 11L52 12L51 12L51 13L49 13L49 11L46 11L46 12L45 12L45 13L43 13L43 12L44 12L44 11L45 11L45 10L44 10L44 11L42 11L42 13L43 13L43 15L42 15L42 14L41 14L41 13L38 13L38 12L39 12L39 11L38 11L38 12L37 12L37 10L38 10L38 9L41 9L41 10L43 10L43 8L42 8L42 7L43 7L43 3L44 3L44 4L45 4L45 3L44 3L44 1L43 1L43 0L42 0L42 2L43 2L43 3L41 3L41 4L42 4L42 5L41 5L41 6L40 6L40 7L39 7L39 6L38 6L38 5L40 5L40 2L41 2L41 0L39 0L39 1L38 1L38 0L37 0L37 2L39 2L39 4L37 4L37 3L36 3L36 1L35 1L35 3L33 3L33 4L32 4L32 3L30 3L30 2L31 2L31 0L29 0L29 2L28 2L28 1L27 1L27 0L26 0L26 1L25 1L25 0L24 0L24 1L23 1L23 0L22 0L22 1L23 1L23 2L24 2L24 3L23 3L23 5L24 5L24 7L23 7L23 6L22 6L22 7L21 7L21 5L22 5L22 4L19 4L19 3L20 3L20 2L21 2L21 3L22 3L22 2L21 2L21 1L19 1L19 0L16 0L16 2L15 2L15 1L13 1L13 0ZM39 1L39 2L40 2L40 1ZM16 2L16 3L14 3L14 4L13 4L13 5L14 5L14 6L13 6L13 7L12 7L12 6L11 6L11 7L12 7L12 8L13 8L13 7L14 7L14 6L15 6L15 7L16 7L16 6L17 6L17 7L18 7L18 6L17 6L17 2ZM18 2L18 3L19 3L19 2ZM25 2L25 3L24 3L24 4L26 4L26 3L27 3L27 4L28 4L28 3L27 3L27 2ZM29 3L29 9L28 9L28 13L26 13L26 14L29 14L29 15L26 15L26 16L28 16L28 18L26 18L26 19L28 19L28 20L26 20L26 21L25 21L25 17L24 17L24 16L23 16L23 17L24 17L24 18L23 18L23 20L24 20L24 21L23 21L23 22L22 22L22 19L21 19L21 18L22 18L22 17L20 17L20 19L19 19L19 16L18 16L18 19L17 19L17 20L14 20L14 18L15 18L15 17L16 17L16 18L17 18L17 16L14 16L14 14L15 14L15 15L19 15L19 14L17 14L17 12L18 12L18 11L17 11L17 10L18 10L18 9L16 9L16 11L15 11L15 8L14 8L14 11L15 11L15 12L14 12L14 13L12 13L12 12L13 12L13 11L12 11L12 12L11 12L11 10L10 10L10 9L9 9L9 10L7 10L7 9L6 9L6 10L5 10L5 12L8 12L8 14L7 14L7 13L5 13L5 14L4 14L4 15L5 15L5 16L4 16L4 18L3 18L3 19L2 19L2 18L1 18L1 19L2 19L2 22L3 22L3 23L4 23L4 24L5 24L5 22L4 22L4 21L5 21L5 20L12 20L12 21L11 21L11 22L10 22L10 21L6 21L6 22L8 22L8 24L9 24L9 27L10 27L10 28L9 28L9 30L8 30L8 29L6 29L6 30L5 30L5 29L4 29L4 28L1 28L1 29L4 29L4 30L5 30L5 31L3 31L3 32L4 32L4 34L5 34L5 37L6 37L6 38L5 38L5 39L4 39L4 40L3 40L3 39L2 39L2 38L3 38L3 37L4 37L4 36L2 36L2 38L1 38L1 39L2 39L2 40L3 40L3 41L4 41L4 42L5 42L5 41L6 41L6 42L7 42L7 43L8 43L8 44L9 44L9 45L10 45L10 46L11 46L11 47L14 47L14 50L15 50L15 47L17 47L17 45L16 45L16 44L17 44L17 43L18 43L18 42L19 42L19 43L20 43L20 44L21 44L21 43L20 43L20 39L21 39L21 41L24 41L24 42L23 42L23 43L22 43L22 44L23 44L23 46L24 46L24 44L27 44L27 43L26 43L26 42L25 42L25 41L24 41L24 38L25 38L25 39L27 39L27 41L28 41L28 42L29 42L29 43L28 43L28 44L29 44L29 43L30 43L30 45L29 45L29 48L30 48L30 45L31 45L31 47L34 47L34 48L32 48L32 49L34 49L34 50L33 50L33 51L36 51L36 50L37 50L37 49L34 49L34 48L35 48L35 45L38 45L38 46L37 46L37 47L38 47L38 46L40 46L40 45L38 45L38 44L39 44L39 43L40 43L40 44L41 44L41 45L43 45L43 44L41 44L41 43L43 43L43 42L45 42L45 43L44 43L44 44L45 44L45 43L46 43L46 44L49 44L49 43L50 43L50 42L49 42L49 41L50 41L50 40L51 40L51 39L50 39L50 40L49 40L49 39L48 39L48 38L49 38L49 34L50 34L50 31L48 31L48 32L49 32L49 34L47 34L47 32L46 32L46 31L47 31L47 30L46 30L46 29L44 29L44 30L45 30L45 31L43 31L43 32L44 32L44 33L43 33L43 34L44 34L44 35L45 35L45 34L46 34L46 35L48 35L48 37L47 37L47 36L46 36L46 37L47 37L47 39L48 39L48 40L47 40L47 41L48 41L48 43L47 43L47 42L45 42L45 41L46 41L46 40L45 40L45 41L44 41L44 40L43 40L43 39L42 39L42 38L44 38L44 39L45 39L45 37L44 37L44 36L42 36L42 34L39 34L39 31L38 31L38 30L39 30L39 28L40 28L40 30L41 30L41 27L43 27L43 28L42 28L42 30L43 30L43 28L44 28L44 25L43 25L43 23L45 23L45 22L47 22L47 21L45 21L45 20L42 20L42 21L44 21L44 22L41 22L41 23L40 23L40 22L39 22L39 20L41 20L41 19L40 19L40 17L38 17L38 16L37 16L37 15L39 15L39 14L35 14L35 13L34 13L34 12L33 12L33 11L31 11L31 10L34 10L34 11L35 11L35 12L36 12L36 11L35 11L35 10L36 10L36 9L38 9L38 8L36 8L36 9L34 9L34 5L35 5L35 7L36 7L36 5L37 5L37 4L34 4L34 5L33 5L33 8L30 8L30 5L31 5L31 4L30 4L30 3ZM14 4L14 5L16 5L16 4ZM25 5L25 8L28 8L28 5ZM19 6L19 8L20 8L20 9L22 9L22 10L19 10L19 13L20 13L20 11L21 11L21 13L23 13L23 11L22 11L22 10L23 10L23 9L22 9L22 8L23 8L23 7L22 7L22 8L21 8L21 7L20 7L20 6ZM26 6L26 7L27 7L27 6ZM31 6L31 7L32 7L32 6ZM37 6L37 7L38 7L38 6ZM41 6L41 7L42 7L42 6ZM44 6L44 9L46 9L46 8L45 8L45 6ZM0 8L0 9L4 9L4 8ZM25 9L25 10L24 10L24 12L25 12L25 10L26 10L26 12L27 12L27 9ZM29 9L29 10L31 10L31 9ZM6 10L6 11L7 11L7 10ZM9 10L9 11L8 11L8 12L9 12L9 14L10 14L10 10ZM16 11L16 12L15 12L15 14L16 14L16 12L17 12L17 11ZM29 11L29 12L30 12L30 13L32 13L32 14L30 14L30 16L31 16L31 18L33 18L33 20L34 20L34 19L35 19L35 21L36 21L36 22L37 22L37 23L39 23L39 22L38 22L38 20L39 20L39 19L37 19L37 21L36 21L36 19L35 19L35 16L34 16L34 17L33 17L33 14L34 14L34 15L35 15L35 14L34 14L34 13L32 13L32 12L31 12L31 11ZM40 11L40 12L41 12L41 11ZM11 13L11 14L12 14L12 15L10 15L10 17L9 17L9 15L8 15L8 17L9 17L9 18L10 18L10 19L12 19L12 20L13 20L13 18L14 18L14 16L13 16L13 18L12 18L12 15L13 15L13 14L12 14L12 13ZM6 14L6 15L7 15L7 14ZM22 14L22 15L25 15L25 14ZM20 15L20 16L21 16L21 15ZM31 15L31 16L32 16L32 15ZM6 16L6 17L7 17L7 16ZM10 17L10 18L11 18L11 17ZM29 17L29 18L30 18L30 17ZM36 17L36 18L37 18L37 17ZM6 18L6 19L7 19L7 18ZM4 19L4 20L3 20L3 21L4 21L4 20L5 20L5 19ZM18 19L18 20L17 20L17 21L18 21L18 20L19 20L19 22L18 22L18 24L17 24L17 22L16 22L16 24L17 24L17 26L15 26L15 25L13 25L13 28L12 28L12 27L11 27L11 26L12 26L12 25L11 25L11 24L13 24L13 22L14 22L14 23L15 23L15 22L14 22L14 21L13 21L13 22L11 22L11 24L10 24L10 23L9 23L9 24L10 24L10 27L11 27L11 28L10 28L10 30L9 30L9 32L10 32L10 30L11 30L11 31L12 31L12 33L11 33L11 34L10 34L10 35L8 35L8 39L7 39L7 38L6 38L6 39L7 39L7 40L6 40L6 41L7 41L7 42L8 42L8 40L9 40L9 41L10 41L10 42L9 42L9 43L10 43L10 45L11 45L11 44L12 44L12 46L13 46L13 44L14 44L14 46L15 46L15 42L14 42L14 43L13 43L13 42L12 42L12 43L11 43L11 39L12 39L12 40L14 40L14 41L16 41L16 42L17 42L17 41L16 41L16 40L17 40L17 39L19 39L19 38L21 38L21 36L23 36L23 35L24 35L24 34L22 34L22 32L23 32L23 30L22 30L22 29L21 29L21 28L22 28L22 27L24 27L24 28L23 28L23 29L24 29L24 33L25 33L25 34L26 34L26 33L25 33L25 32L26 32L26 30L27 30L27 35L28 35L28 36L30 36L30 37L31 37L31 38L32 38L32 40L31 40L31 39L30 39L30 38L29 38L29 37L26 37L26 35L25 35L25 38L29 38L29 40L28 40L28 41L29 41L29 42L30 42L30 40L31 40L31 43L32 43L32 44L34 44L34 45L35 45L35 44L34 44L34 43L35 43L35 42L36 42L36 44L38 44L38 42L37 42L37 41L35 41L35 38L37 38L37 39L36 39L36 40L37 40L37 39L38 39L38 38L39 38L39 37L37 37L37 36L39 36L39 34L38 34L38 33L36 33L36 32L37 32L37 31L34 31L34 30L35 30L35 29L33 29L33 28L32 28L32 27L31 27L31 30L30 30L30 29L29 29L29 28L30 28L30 26L29 26L29 25L31 25L31 26L32 26L32 24L33 24L33 26L34 26L34 28L37 28L37 25L38 25L38 28L39 28L39 27L41 27L41 25L40 25L40 26L39 26L39 25L38 25L38 24L36 24L36 23L35 23L35 22L34 22L34 23L33 23L33 21L32 21L32 22L31 22L31 21L28 21L28 22L29 22L29 23L28 23L28 24L24 24L24 22L23 22L23 23L21 23L21 26L20 26L20 25L19 25L19 26L18 26L18 24L19 24L19 23L20 23L20 20L21 20L21 19L20 19L20 20L19 20L19 19ZM29 19L29 20L31 20L31 19ZM52 19L52 20L53 20L53 19ZM30 22L30 24L32 24L32 23L31 23L31 22ZM6 23L6 24L7 24L7 23ZM34 23L34 26L35 26L35 23ZM41 23L41 24L42 24L42 23ZM2 24L2 25L1 25L1 26L3 26L3 27L4 27L4 26L3 26L3 24ZM22 24L22 26L21 26L21 27L22 27L22 26L24 26L24 24ZM5 25L5 28L8 28L8 25ZM25 25L25 28L28 28L28 25ZM45 25L45 28L48 28L48 25ZM6 26L6 27L7 27L7 26ZM17 26L17 27L16 27L16 29L17 29L17 30L15 30L15 31L13 31L13 30L14 30L14 29L13 29L13 30L12 30L12 28L11 28L11 30L12 30L12 31L13 31L13 33L12 33L12 34L13 34L13 35L16 35L16 36L17 36L17 37L16 37L16 38L18 38L18 34L17 34L17 35L16 35L16 32L15 32L15 31L17 31L17 33L19 33L19 34L21 34L21 35L20 35L20 36L19 36L19 37L20 37L20 36L21 36L21 35L22 35L22 34L21 34L21 32L22 32L22 30L21 30L21 29L19 29L19 28L17 28L17 27L18 27L18 26ZM26 26L26 27L27 27L27 26ZM46 26L46 27L47 27L47 26ZM14 27L14 28L15 28L15 27ZM49 28L49 29L48 29L48 30L49 30L49 29L50 29L50 28ZM32 29L32 31L30 31L30 30L28 30L28 32L30 32L30 33L32 33L32 37L34 37L34 38L33 38L33 39L34 39L34 38L35 38L35 37L34 37L34 36L35 36L35 35L34 35L34 34L35 34L35 33L33 33L33 32L34 32L34 31L33 31L33 29ZM36 29L36 30L37 30L37 29ZM6 30L6 31L8 31L8 30ZM18 30L18 31L19 31L19 30ZM20 30L20 32L21 32L21 30ZM40 31L40 32L41 32L41 33L42 33L42 31ZM5 32L5 34L6 34L6 35L7 35L7 34L9 34L9 33L8 33L8 32ZM14 32L14 33L15 33L15 32ZM6 33L6 34L7 34L7 33ZM51 33L51 34L52 34L52 33ZM29 34L29 35L30 35L30 36L31 36L31 35L30 35L30 34ZM11 35L11 36L9 36L9 37L10 37L10 38L12 38L12 39L13 39L13 38L14 38L14 40L16 40L16 39L15 39L15 38L14 38L14 37L15 37L15 36L14 36L14 37L13 37L13 36L12 36L12 35ZM33 35L33 36L34 36L34 35ZM36 35L36 36L37 36L37 35ZM50 35L50 36L51 36L51 35ZM6 36L6 37L7 37L7 36ZM40 37L40 40L38 40L38 41L40 41L40 40L41 40L41 42L40 42L40 43L41 43L41 42L42 42L42 40L41 40L41 37ZM22 38L22 39L23 39L23 38ZM9 39L9 40L10 40L10 39ZM18 40L18 41L19 41L19 40ZM33 40L33 41L32 41L32 43L33 43L33 41L34 41L34 40ZM18 44L18 45L19 45L19 44ZM25 45L25 48L28 48L28 45ZM32 45L32 46L33 46L33 45ZM45 45L45 48L48 48L48 45ZM49 45L49 46L50 46L50 45ZM26 46L26 47L27 47L27 46ZM46 46L46 47L47 47L47 46ZM49 47L49 49L50 49L50 48L51 48L51 47ZM11 48L11 50L12 50L12 49L13 49L13 48ZM29 49L29 50L30 50L30 51L31 51L31 52L32 52L32 51L31 51L31 49ZM45 49L45 50L46 50L46 49ZM16 51L16 52L14 52L14 53L18 53L18 52L19 52L19 53L20 53L20 52L19 52L19 51ZM50 51L50 52L51 52L51 51ZM21 52L21 53L22 53L22 52ZM46 52L46 53L47 53L47 52ZM0 0L0 7L7 7L7 0ZM1 1L1 6L6 6L6 1ZM2 2L2 5L5 5L5 2ZM46 0L46 7L53 7L53 0ZM47 1L47 6L52 6L52 1ZM48 2L48 5L51 5L51 2ZM0 46L0 53L7 53L7 46ZM1 47L1 52L6 52L6 47ZM2 48L2 51L5 51L5 48Z" fill="#000000"/></g></g></svg>
