<?xml version="1.0" encoding="UTF-8"?>
<svg xmlns="http://www.w3.org/2000/svg" version="1.1" width="100" height="100" viewBox="0 0 100 100"><rect x="0" y="0" width="100" height="100" fill="#ffffff"/><g transform="scale(1.887)"><g transform="translate(0,0)"><path fill-rule="evenodd" d="M8 0L8 2L9 2L9 0ZM13 0L13 1L12 1L12 2L14 2L14 1L15 1L15 0ZM18 0L18 3L17 3L17 4L16 4L16 3L15 3L15 4L14 4L14 3L11 3L11 4L8 4L8 9L7 9L7 8L5 8L5 9L4 9L4 10L3 10L3 8L0 8L0 9L2 9L2 10L1 10L1 12L0 12L0 13L2 13L2 17L3 17L3 14L4 14L4 15L8 15L8 17L7 17L7 16L5 16L5 17L4 17L4 18L0 18L0 19L4 19L4 18L5 18L5 17L7 17L7 18L6 18L6 19L7 19L7 20L6 20L6 21L5 21L5 23L4 23L4 25L3 25L3 23L2 23L2 22L0 22L0 25L1 25L1 24L2 24L2 25L3 25L3 26L0 26L0 27L1 27L1 28L2 28L2 29L0 29L0 30L2 30L2 31L1 31L1 32L0 32L0 33L1 33L1 34L2 34L2 32L3 32L3 33L5 33L5 34L3 34L3 35L2 35L2 36L1 36L1 37L0 37L0 40L1 40L1 41L0 41L0 43L1 43L1 44L3 44L3 45L4 45L4 44L3 44L3 43L9 43L9 42L10 42L10 45L9 45L9 44L8 44L8 46L9 46L9 47L8 47L8 48L9 48L9 49L13 49L13 48L9 48L9 47L10 47L10 45L11 45L11 43L12 43L12 45L13 45L13 46L12 46L12 47L13 47L13 46L14 46L14 47L16 47L16 48L14 48L14 52L13 52L13 53L14 53L14 52L15 52L15 53L16 53L16 52L17 52L17 51L18 51L18 53L19 53L19 51L18 51L18 49L19 49L19 48L20 48L20 49L21 49L21 48L20 48L20 47L19 47L19 46L20 46L20 44L22 44L22 46L23 46L23 47L22 47L22 48L23 48L23 51L24 51L24 53L25 53L25 51L24 51L24 49L25 49L25 50L26 50L26 49L29 49L29 50L28 50L28 51L27 51L27 52L26 52L26 53L27 53L27 52L28 52L28 53L33 53L33 51L34 51L34 49L33 49L33 48L36 48L36 49L35 49L35 51L36 51L36 53L39 53L39 52L38 52L38 51L39 51L39 50L40 50L40 51L41 51L41 50L42 50L42 52L40 52L40 53L42 53L42 52L43 52L43 50L42 50L42 49L43 49L43 48L44 48L44 49L46 49L46 50L44 50L44 51L45 51L45 52L44 52L44 53L46 53L46 51L47 51L47 50L48 50L48 51L49 51L49 53L51 53L51 52L50 52L50 51L51 51L51 49L53 49L53 45L52 45L52 44L50 44L50 42L49 42L49 44L48 44L48 43L47 43L47 42L48 42L48 41L52 41L52 43L53 43L53 40L52 40L52 39L53 39L53 38L52 38L52 37L53 37L53 36L52 36L52 35L53 35L53 33L52 33L52 32L53 32L53 29L52 29L52 27L53 27L53 26L52 26L52 27L51 27L51 28L50 28L50 26L51 26L51 25L52 25L52 24L53 24L53 22L52 22L52 20L53 20L53 12L50 12L50 11L51 11L51 9L52 9L52 11L53 11L53 8L51 8L51 9L50 9L50 10L49 10L49 8L43 8L43 3L44 3L44 4L45 4L45 3L44 3L44 1L43 1L43 0L42 0L42 1L41 1L41 0L40 0L40 2L39 2L39 0L38 0L38 2L35 2L35 3L34 3L34 4L33 4L33 5L32 5L32 3L33 3L33 1L32 1L32 0L30 0L30 1L29 1L29 2L28 2L28 0L27 0L27 2L26 2L26 0L23 0L23 1L22 1L22 2L20 2L20 1L21 1L21 0ZM34 0L34 1L36 1L36 0ZM16 1L16 2L17 2L17 1ZM23 1L23 2L22 2L22 4L21 4L21 3L18 3L18 5L19 5L19 8L18 8L18 6L17 6L17 5L16 5L16 4L15 4L15 5L13 5L13 4L12 4L12 5L11 5L11 7L12 7L12 8L11 8L11 10L10 10L10 9L9 9L9 10L8 10L8 11L9 11L9 13L10 13L10 14L9 14L9 17L10 17L10 16L11 16L11 18L8 18L8 19L10 19L10 20L11 20L11 21L13 21L13 22L12 22L12 25L9 25L9 28L10 28L10 27L11 27L11 29L10 29L10 30L9 30L9 31L8 31L8 33L6 33L6 32L7 32L7 31L6 31L6 32L5 32L5 33L6 33L6 34L9 34L9 33L10 33L10 30L13 30L13 32L12 32L12 31L11 31L11 33L13 33L13 34L10 34L10 35L9 35L9 37L11 37L11 38L12 38L12 39L10 39L10 41L11 41L11 40L12 40L12 41L13 41L13 38L14 38L14 35L15 35L15 32L16 32L16 31L17 31L17 30L19 30L19 29L20 29L20 31L18 31L18 32L19 32L19 33L18 33L18 34L16 34L16 35L18 35L18 36L16 36L16 38L15 38L15 39L14 39L14 40L15 40L15 41L14 41L14 42L13 42L13 43L14 43L14 44L13 44L13 45L16 45L16 47L17 47L17 45L18 45L18 46L19 46L19 45L18 45L18 44L17 44L17 43L18 43L18 42L19 42L19 40L20 40L20 38L23 38L23 37L22 37L22 36L23 36L23 34L24 34L24 33L26 33L26 35L25 35L25 36L24 36L24 39L22 39L22 40L23 40L23 41L22 41L22 44L23 44L23 41L25 41L25 37L26 37L26 40L27 40L27 38L28 38L28 41L27 41L27 42L26 42L26 43L25 43L25 42L24 42L24 43L25 43L25 44L26 44L26 43L27 43L27 42L28 42L28 44L29 44L29 49L30 49L30 52L31 52L31 49L32 49L32 51L33 51L33 49L32 49L32 47L31 47L31 46L32 46L32 44L33 44L33 45L34 45L34 46L33 46L33 47L34 47L34 46L35 46L35 45L36 45L36 44L35 44L35 41L36 41L36 40L39 40L39 41L38 41L38 42L37 42L37 44L38 44L38 46L36 46L36 47L37 47L37 49L36 49L36 51L37 51L37 49L38 49L38 50L39 50L39 47L40 47L40 46L41 46L41 47L42 47L42 46L44 46L44 45L43 45L43 44L44 44L44 43L41 43L41 41L40 41L40 40L41 40L41 39L42 39L42 40L43 40L43 39L44 39L44 41L42 41L42 42L45 42L45 44L47 44L47 43L46 43L46 42L45 42L45 41L47 41L47 40L48 40L48 39L49 39L49 37L50 37L50 40L51 40L51 39L52 39L52 38L51 38L51 37L52 37L52 36L51 36L51 35L52 35L52 34L51 34L51 32L52 32L52 29L51 29L51 31L50 31L50 28L49 28L49 29L48 29L48 30L47 30L47 31L48 31L48 35L46 35L46 34L45 34L45 33L42 33L42 30L43 30L43 32L44 32L44 31L45 31L45 32L46 32L46 29L44 29L44 26L43 26L43 25L42 25L42 26L41 26L41 25L40 25L40 24L42 24L42 22L43 22L43 24L44 24L44 22L45 22L45 24L47 24L47 21L48 21L48 24L49 24L49 23L50 23L50 24L52 24L52 22L51 22L51 23L50 23L50 21L51 21L51 20L52 20L52 18L51 18L51 19L50 19L50 18L49 18L49 19L48 19L48 18L47 18L47 17L48 17L48 16L49 16L49 14L48 14L48 12L46 12L46 11L48 11L48 10L47 10L47 9L46 9L46 11L45 11L45 9L44 9L44 11L45 11L45 12L44 12L44 14L45 14L45 12L46 12L46 15L47 15L47 16L45 16L45 15L44 15L44 16L45 16L45 17L44 17L44 19L46 19L46 20L45 20L45 21L44 21L44 20L41 20L41 21L42 21L42 22L40 22L40 18L41 18L41 17L40 17L40 16L42 16L42 18L43 18L43 15L41 15L41 13L42 13L42 14L43 14L43 11L42 11L42 10L43 10L43 9L42 9L42 8L41 8L41 9L42 9L42 10L41 10L41 11L39 11L39 10L40 10L40 8L39 8L39 7L40 7L40 5L42 5L42 3L43 3L43 2L42 2L42 3L41 3L41 2L40 2L40 5L38 5L38 4L39 4L39 2L38 2L38 4L37 4L37 3L36 3L36 4L37 4L37 5L36 5L36 6L35 6L35 9L34 9L34 10L33 10L33 9L32 9L32 6L31 6L31 5L30 5L30 4L29 4L29 5L30 5L30 6L29 6L29 8L30 8L30 10L31 10L31 12L30 12L30 11L29 11L29 12L30 12L30 16L29 16L29 15L28 15L28 14L29 14L29 13L27 13L27 11L28 11L28 10L29 10L29 9L27 9L27 11L26 11L26 10L25 10L25 9L21 9L21 10L20 10L20 11L22 11L22 12L20 12L20 16L19 16L19 15L18 15L18 16L19 16L19 17L18 17L18 18L16 18L16 19L19 19L19 20L23 20L23 23L22 23L22 24L23 24L23 25L22 25L22 26L23 26L23 25L24 25L24 24L25 24L25 22L26 22L26 24L29 24L29 23L28 23L28 22L29 22L29 21L30 21L30 22L31 22L31 21L32 21L32 22L33 22L33 23L32 23L32 24L31 24L31 23L30 23L30 24L31 24L31 25L30 25L30 27L31 27L31 28L29 28L29 29L27 29L27 30L29 30L29 29L30 29L30 30L31 30L31 31L32 31L32 32L30 32L30 31L28 31L28 32L27 32L27 31L26 31L26 29L25 29L25 31L26 31L26 32L24 32L24 33L23 33L23 32L22 32L22 31L23 31L23 30L24 30L24 29L23 29L23 30L21 30L21 29L20 29L20 28L19 28L19 24L18 24L18 23L20 23L20 24L21 24L21 21L20 21L20 22L18 22L18 20L16 20L16 23L14 23L14 24L15 24L15 25L14 25L14 26L13 26L13 22L15 22L15 21L14 21L14 20L15 20L15 16L16 16L16 15L15 15L15 14L14 14L14 11L15 11L15 12L17 12L17 13L16 13L16 14L18 14L18 11L19 11L19 8L20 8L20 4L21 4L21 7L22 7L22 8L24 8L24 3L25 3L25 4L26 4L26 2L24 2L24 1ZM30 1L30 2L29 2L29 3L30 3L30 2L32 2L32 1ZM23 2L23 3L24 3L24 2ZM27 2L27 3L28 3L28 2ZM22 4L22 7L23 7L23 4ZM15 5L15 6L14 6L14 7L13 7L13 6L12 6L12 7L13 7L13 8L12 8L12 9L13 9L13 10L11 10L11 12L12 12L12 14L10 14L10 15L13 15L13 11L14 11L14 9L15 9L15 8L16 8L16 9L17 9L17 6L16 6L16 5ZM25 5L25 8L28 8L28 5ZM37 5L37 6L36 6L36 9L37 9L37 11L36 11L36 10L34 10L34 11L35 11L35 14L34 14L34 12L32 12L32 14L31 14L31 16L30 16L30 17L29 17L29 16L28 16L28 17L27 17L27 16L26 16L26 14L27 14L27 13L26 13L26 11L25 11L25 10L22 10L22 11L23 11L23 12L22 12L22 13L21 13L21 14L22 14L22 13L23 13L23 12L24 12L24 14L25 14L25 16L24 16L24 15L22 15L22 16L24 16L24 17L25 17L25 20L24 20L24 18L22 18L22 19L23 19L23 20L24 20L24 22L25 22L25 20L26 20L26 19L27 19L27 21L28 21L28 19L30 19L30 20L32 20L32 21L33 21L33 22L34 22L34 21L35 21L35 20L34 20L34 15L36 15L36 18L35 18L35 19L36 19L36 18L37 18L37 20L36 20L36 22L35 22L35 23L33 23L33 24L32 24L32 26L31 26L31 27L34 27L34 29L33 29L33 28L32 28L32 29L33 29L33 30L32 30L32 31L33 31L33 30L34 30L34 33L33 33L33 32L32 32L32 33L31 33L31 34L30 34L30 33L29 33L29 32L28 32L28 34L30 34L30 35L29 35L29 37L28 37L28 38L30 38L30 40L29 40L29 41L28 41L28 42L30 42L30 40L31 40L31 38L34 38L34 40L32 40L32 41L33 41L33 42L32 42L32 43L33 43L33 44L34 44L34 40L35 40L35 39L36 39L36 38L38 38L38 39L39 39L39 40L40 40L40 39L39 39L39 38L38 38L38 36L39 36L39 35L40 35L40 37L41 37L41 32L40 32L40 33L39 33L39 31L40 31L40 29L41 29L41 30L42 30L42 29L43 29L43 28L42 28L42 27L43 27L43 26L42 26L42 27L41 27L41 28L40 28L40 27L39 27L39 28L40 28L40 29L39 29L39 31L38 31L38 27L35 27L35 26L34 26L34 25L35 25L35 24L36 24L36 26L37 26L37 24L38 24L38 25L39 25L39 26L40 26L40 25L39 25L39 24L40 24L40 22L38 22L38 21L39 21L39 20L38 20L38 19L39 19L39 18L38 18L38 17L37 17L37 15L36 15L36 13L37 13L37 14L38 14L38 16L40 16L40 15L39 15L39 14L40 14L40 13L41 13L41 12L40 12L40 13L39 13L39 11L38 11L38 9L39 9L39 8L38 8L38 9L37 9L37 6L38 6L38 7L39 7L39 6L38 6L38 5ZM9 6L9 8L10 8L10 6ZM15 6L15 7L14 7L14 8L15 8L15 7L16 7L16 6ZM26 6L26 7L27 7L27 6ZM30 6L30 7L31 7L31 6ZM33 6L33 8L34 8L34 6ZM41 6L41 7L42 7L42 6ZM44 6L44 7L45 7L45 6ZM6 9L6 10L5 10L5 11L3 11L3 13L5 13L5 14L7 14L7 13L8 13L8 12L7 12L7 11L6 11L6 10L7 10L7 9ZM31 9L31 10L32 10L32 11L33 11L33 10L32 10L32 9ZM16 10L16 11L18 11L18 10ZM24 11L24 12L25 12L25 11ZM37 11L37 13L38 13L38 14L39 14L39 13L38 13L38 11ZM6 12L6 13L7 13L7 12ZM50 13L50 14L51 14L51 15L50 15L50 17L52 17L52 13ZM32 14L32 16L31 16L31 17L30 17L30 19L31 19L31 18L32 18L32 19L33 19L33 17L32 17L32 16L33 16L33 15L34 15L34 14ZM14 15L14 16L15 16L15 15ZM20 16L20 17L21 17L21 16ZM25 16L25 17L26 17L26 18L27 18L27 19L28 19L28 18L27 18L27 17L26 17L26 16ZM12 18L12 19L13 19L13 20L14 20L14 18ZM20 18L20 19L21 19L21 18ZM49 19L49 20L48 20L48 21L50 21L50 19ZM33 20L33 21L34 21L34 20ZM6 21L6 22L7 22L7 23L6 23L6 24L9 24L9 23L8 23L8 21ZM9 21L9 22L10 22L10 21ZM43 21L43 22L44 22L44 21ZM10 23L10 24L11 24L11 23ZM16 23L16 25L17 25L17 23ZM36 23L36 24L37 24L37 23ZM38 23L38 24L39 24L39 23ZM5 25L5 28L8 28L8 25ZM25 25L25 28L28 28L28 25ZM45 25L45 28L48 28L48 25ZM49 25L49 26L50 26L50 25ZM3 26L3 27L4 27L4 26ZM6 26L6 27L7 27L7 26ZM11 26L11 27L12 27L12 28L14 28L14 30L15 30L15 31L14 31L14 32L15 32L15 31L16 31L16 29L17 29L17 28L18 28L18 29L19 29L19 28L18 28L18 26L16 26L16 27L17 27L17 28L14 28L14 27L12 27L12 26ZM20 26L20 27L21 27L21 28L24 28L24 27L21 27L21 26ZM26 26L26 27L27 27L27 26ZM46 26L46 27L47 27L47 26ZM3 28L3 29L4 29L4 30L3 30L3 31L4 31L4 30L5 30L5 29L4 29L4 28ZM6 29L6 30L8 30L8 29ZM34 29L34 30L35 30L35 33L34 33L34 35L32 35L32 34L31 34L31 35L30 35L30 36L31 36L31 37L30 37L30 38L31 38L31 37L32 37L32 36L33 36L33 37L34 37L34 38L36 38L36 36L38 36L38 34L39 34L39 33L38 33L38 31L37 31L37 29L36 29L36 30L35 30L35 29ZM36 31L36 33L35 33L35 35L34 35L34 37L35 37L35 35L36 35L36 33L37 33L37 34L38 34L38 33L37 33L37 31ZM20 32L20 33L21 33L21 32ZM26 32L26 33L27 33L27 32ZM49 33L49 34L50 34L50 35L51 35L51 34L50 34L50 33ZM13 34L13 35L14 35L14 34ZM20 34L20 35L21 35L21 36L22 36L22 34ZM43 34L43 35L44 35L44 36L42 36L42 37L43 37L43 38L44 38L44 37L45 37L45 38L46 38L46 39L48 39L48 37L49 37L49 35L48 35L48 37L47 37L47 36L45 36L45 35L44 35L44 34ZM5 35L5 37L6 37L6 38L7 38L7 37L8 37L8 35ZM10 35L10 36L11 36L11 37L12 37L12 35ZM27 35L27 36L26 36L26 37L27 37L27 36L28 36L28 35ZM31 35L31 36L32 36L32 35ZM2 36L2 37L1 37L1 38L2 38L2 39L1 39L1 40L2 40L2 41L1 41L1 42L2 42L2 43L3 43L3 42L2 42L2 41L4 41L4 42L7 42L7 41L8 41L8 42L9 42L9 39L6 39L6 40L7 40L7 41L4 41L4 40L5 40L5 39L3 39L3 38L2 38L2 37L3 37L3 36ZM6 36L6 37L7 37L7 36ZM18 36L18 37L19 37L19 38L20 38L20 36ZM16 38L16 41L17 41L17 38ZM2 39L2 40L3 40L3 39ZM18 39L18 40L19 40L19 39ZM39 41L39 42L38 42L38 44L39 44L39 43L40 43L40 45L41 45L41 46L42 46L42 44L41 44L41 43L40 43L40 41ZM16 42L16 43L17 43L17 42ZM20 42L20 43L21 43L21 42ZM6 44L6 45L7 45L7 44ZM16 44L16 45L17 45L17 44ZM30 44L30 45L31 45L31 44ZM23 45L23 46L24 46L24 45ZM25 45L25 48L28 48L28 45ZM45 45L45 48L48 48L48 45ZM49 45L49 47L50 47L50 49L51 49L51 47L50 47L50 45ZM26 46L26 47L27 47L27 46ZM38 46L38 47L39 47L39 46ZM46 46L46 47L47 47L47 46ZM18 47L18 48L19 48L19 47ZM30 47L30 49L31 49L31 47ZM41 48L41 49L42 49L42 48ZM48 49L48 50L49 50L49 51L50 51L50 50L49 50L49 49ZM8 50L8 53L12 53L12 52L11 52L11 51L13 51L13 50L10 50L10 51L9 51L9 50ZM16 50L16 51L17 51L17 50ZM20 50L20 51L21 51L21 52L22 52L22 53L23 53L23 52L22 52L22 50ZM28 51L28 52L29 52L29 51ZM34 52L34 53L35 53L35 52ZM52 52L52 53L53 53L53 52ZM0 0L0 7L7 7L7 0ZM1 1L1 6L6 6L6 1ZM2 2L2 5L5 5L5 2ZM46 0L46 7L53 7L53 0ZM47 1L47 6L52 6L52 1ZM48 2L48 5L51 5L51 2ZM0 46L0 53L7 53L7 46ZM1 47L1 52L6 52L6 47ZM2 48L2 51L5 51L5 48Z" fill="#000000"/></g></g></svg>
