<?xml version="1.0" encoding="UTF-8"?>
<svg xmlns="http://www.w3.org/2000/svg" version="1.1" width="100" height="100" viewBox="0 0 100 100"><rect x="0" y="0" width="100" height="100" fill="#ffffff"/><g transform="scale(1.887)"><g transform="translate(0,0)"><path fill-rule="evenodd" d="M8 0L8 4L10 4L10 5L8 5L8 7L9 7L9 9L8 9L8 10L5 10L5 9L7 9L7 8L4 8L4 11L5 11L5 14L3 14L3 15L2 15L2 13L3 13L3 10L1 10L1 9L2 9L2 8L0 8L0 10L1 10L1 11L0 11L0 12L1 12L1 14L0 14L0 17L2 17L2 18L4 18L4 20L3 20L3 19L1 19L1 20L2 20L2 21L1 21L1 22L3 22L3 23L5 23L5 24L4 24L4 25L0 25L0 29L1 29L1 30L0 30L0 31L1 31L1 32L0 32L0 33L1 33L1 32L2 32L2 31L1 31L1 30L2 30L2 26L4 26L4 29L3 29L3 31L4 31L4 30L5 30L5 31L7 31L7 32L4 32L4 34L5 34L5 33L7 33L7 32L8 32L8 31L9 31L9 33L8 33L8 35L9 35L9 36L10 36L10 38L11 38L11 39L12 39L12 40L11 40L11 41L10 41L10 40L9 40L9 39L8 39L8 37L7 37L7 36L6 36L6 35L7 35L7 34L6 34L6 35L5 35L5 36L4 36L4 35L3 35L3 36L2 36L2 34L0 34L0 36L2 36L2 38L1 38L1 37L0 37L0 40L1 40L1 41L0 41L0 43L1 43L1 44L3 44L3 45L4 45L4 44L3 44L3 43L7 43L7 44L6 44L6 45L7 45L7 44L9 44L9 45L8 45L8 46L9 46L9 47L8 47L8 49L9 49L9 51L8 51L8 53L9 53L9 52L10 52L10 51L12 51L12 50L13 50L13 52L14 52L14 53L17 53L17 52L15 52L15 51L16 51L16 50L17 50L17 51L18 51L18 53L19 53L19 51L20 51L20 50L21 50L21 51L22 51L22 52L21 52L21 53L22 53L22 52L23 52L23 51L24 51L24 53L25 53L25 52L26 52L26 53L28 53L28 52L30 52L30 51L28 51L28 50L31 50L31 49L30 49L30 48L29 48L29 45L30 45L30 47L31 47L31 46L32 46L32 51L31 51L31 52L32 52L32 53L38 53L38 52L39 52L39 53L40 53L40 52L39 52L39 51L38 51L38 52L35 52L35 51L37 51L37 47L39 47L39 49L38 49L38 50L39 50L39 49L40 49L40 50L41 50L41 53L43 53L43 52L44 52L44 53L46 53L46 52L47 52L47 53L48 53L48 52L47 52L47 50L46 50L46 49L49 49L49 50L50 50L50 51L49 51L49 53L52 53L52 52L53 52L53 51L51 51L51 50L50 50L50 45L51 45L51 44L52 44L52 47L51 47L51 48L52 48L52 49L53 49L53 48L52 48L52 47L53 47L53 38L52 38L52 36L53 36L53 32L52 32L52 31L53 31L53 30L52 30L52 29L53 29L53 26L52 26L52 29L51 29L51 28L50 28L50 27L51 27L51 25L52 25L52 24L53 24L53 22L52 22L52 21L53 21L53 20L52 20L52 19L53 19L53 17L51 17L51 18L50 18L50 19L49 19L49 20L48 20L48 19L47 19L47 23L44 23L44 22L45 22L45 21L46 21L46 19L42 19L42 18L43 18L43 16L45 16L45 15L47 15L47 14L48 14L48 16L47 16L47 17L48 17L48 18L49 18L49 17L50 17L50 15L49 15L49 13L50 13L50 14L51 14L51 15L52 15L52 16L53 16L53 13L51 13L51 12L53 12L53 8L49 8L49 10L47 10L47 12L46 12L46 9L44 9L44 8L43 8L43 3L44 3L44 4L45 4L45 3L44 3L44 1L43 1L43 0L40 0L40 1L39 1L39 0L38 0L38 2L37 2L37 1L36 1L36 2L37 2L37 3L38 3L38 2L40 2L40 1L42 1L42 2L41 2L41 3L39 3L39 4L38 4L38 7L37 7L37 6L36 6L36 7L35 7L35 6L34 6L34 4L35 4L35 5L37 5L37 4L35 4L35 3L34 3L34 2L33 2L33 1L34 1L34 0L29 0L29 1L31 1L31 2L29 2L29 4L27 4L27 3L28 3L28 0L27 0L27 1L26 1L26 0L24 0L24 1L26 1L26 2L23 2L23 0L13 0L13 1L12 1L12 0ZM14 1L14 2L13 2L13 3L14 3L14 5L15 5L15 7L14 7L14 6L13 6L13 7L12 7L12 6L11 6L11 5L10 5L10 6L9 6L9 7L10 7L10 6L11 6L11 9L12 9L12 8L13 8L13 7L14 7L14 8L15 8L15 7L16 7L16 9L15 9L15 11L16 11L16 10L18 10L18 9L19 9L19 11L20 11L20 10L22 10L22 13L23 13L23 14L21 14L21 15L20 15L20 13L21 13L21 12L20 12L20 13L17 13L17 12L16 12L16 14L18 14L18 15L17 15L17 16L16 16L16 15L15 15L15 16L14 16L14 15L13 15L13 16L12 16L12 15L11 15L11 14L9 14L9 12L8 12L8 11L6 11L6 12L8 12L8 15L10 15L10 18L9 18L9 17L8 17L8 16L7 16L7 15L6 15L6 14L7 14L7 13L6 13L6 14L5 14L5 16L7 16L7 17L6 17L6 18L5 18L5 17L4 17L4 15L3 15L3 17L4 17L4 18L5 18L5 19L6 19L6 20L8 20L8 21L3 21L3 22L5 22L5 23L6 23L6 24L7 24L7 23L9 23L9 24L12 24L12 25L11 25L11 26L9 26L9 28L10 28L10 29L8 29L8 30L7 30L7 29L6 29L6 30L7 30L7 31L8 31L8 30L9 30L9 31L10 31L10 29L12 29L12 30L11 30L11 31L12 31L12 32L11 32L11 33L12 33L12 35L10 35L10 33L9 33L9 35L10 35L10 36L11 36L11 38L13 38L13 39L14 39L14 40L16 40L16 41L15 41L15 43L16 43L16 42L18 42L18 41L19 41L19 43L20 43L20 42L21 42L21 41L22 41L22 43L21 43L21 44L20 44L20 45L17 45L17 44L14 44L14 45L13 45L13 47L12 47L12 46L10 46L10 48L11 48L11 49L12 49L12 48L13 48L13 47L15 47L15 48L14 48L14 49L13 49L13 50L14 50L14 49L18 49L18 48L19 48L19 49L20 49L20 48L21 48L21 47L22 47L22 48L23 48L23 49L21 49L21 50L22 50L22 51L23 51L23 49L24 49L24 47L23 47L23 46L24 46L24 44L22 44L22 43L23 43L23 40L22 40L22 39L21 39L21 38L23 38L23 37L25 37L25 39L24 39L24 42L25 42L25 44L26 44L26 42L27 42L27 44L28 44L28 42L27 42L27 41L26 41L26 39L27 39L27 40L28 40L28 41L32 41L32 42L30 42L30 43L31 43L31 44L30 44L30 45L32 45L32 44L33 44L33 45L34 45L34 47L33 47L33 48L36 48L36 47L37 47L37 46L38 46L38 45L39 45L39 46L40 46L40 47L41 47L41 48L40 48L40 49L43 49L43 50L44 50L44 51L45 51L45 52L46 52L46 51L45 51L45 50L44 50L44 47L43 47L43 46L40 46L40 45L41 45L41 44L42 44L42 43L43 43L43 44L44 44L44 43L46 43L46 42L47 42L47 41L48 41L48 39L50 39L50 40L51 40L51 43L50 43L50 44L49 44L49 42L48 42L48 43L47 43L47 44L49 44L49 45L50 45L50 44L51 44L51 43L52 43L52 38L51 38L51 39L50 39L50 37L51 37L51 36L52 36L52 34L51 34L51 33L52 33L52 32L51 32L51 31L52 31L52 30L51 30L51 29L50 29L50 31L48 31L48 30L47 30L47 31L46 31L46 29L43 29L43 30L42 30L42 31L41 31L41 28L42 28L42 26L41 26L41 24L42 24L42 25L43 25L43 26L44 26L44 25L43 25L43 23L41 23L41 22L38 22L38 21L39 21L39 20L40 20L40 21L41 21L41 20L42 20L42 19L41 19L41 20L40 20L40 18L41 18L41 16L43 16L43 14L44 14L44 15L45 15L45 14L44 14L44 12L45 12L45 13L46 13L46 14L47 14L47 13L46 13L46 12L45 12L45 10L44 10L44 9L43 9L43 10L41 10L41 7L42 7L42 5L41 5L41 4L42 4L42 3L43 3L43 2L42 2L42 3L41 3L41 4L40 4L40 5L39 5L39 7L38 7L38 8L40 8L40 9L39 9L39 10L38 10L38 9L37 9L37 13L35 13L35 12L34 12L34 10L36 10L36 9L35 9L35 7L34 7L34 6L33 6L33 5L32 5L32 4L34 4L34 3L32 3L32 2L31 2L31 3L32 3L32 4L31 4L31 5L32 5L32 6L31 6L31 7L32 7L32 6L33 6L33 7L34 7L34 8L33 8L33 9L31 9L31 11L32 11L32 12L31 12L31 13L32 13L32 14L31 14L31 15L30 15L30 13L29 13L29 11L30 11L30 8L29 8L29 9L27 9L27 10L26 10L26 9L25 9L25 10L24 10L24 5L23 5L23 4L26 4L26 3L27 3L27 2L26 2L26 3L23 3L23 4L22 4L22 1L21 1L21 2L20 2L20 1L17 1L17 2L16 2L16 1ZM9 2L9 3L10 3L10 4L11 4L11 2ZM14 2L14 3L15 3L15 5L16 5L16 7L17 7L17 9L18 9L18 8L19 8L19 9L21 9L21 6L20 6L20 5L22 5L22 8L23 8L23 5L22 5L22 4L20 4L20 5L19 5L19 6L18 6L18 5L16 5L16 3L15 3L15 2ZM25 5L25 8L28 8L28 5ZM29 5L29 7L30 7L30 5ZM40 5L40 7L41 7L41 5ZM17 6L17 7L18 7L18 6ZM19 6L19 8L20 8L20 6ZM26 6L26 7L27 7L27 6ZM44 6L44 7L45 7L45 6ZM47 8L47 9L48 9L48 8ZM9 9L9 10L10 10L10 9ZM13 9L13 11L14 11L14 9ZM33 9L33 10L34 10L34 9ZM51 9L51 11L50 11L50 12L51 12L51 11L52 11L52 9ZM23 10L23 11L24 11L24 10ZM28 10L28 11L29 11L29 10ZM40 10L40 11L38 11L38 15L36 15L36 14L34 14L34 13L33 13L33 12L32 12L32 13L33 13L33 14L32 14L32 17L31 17L31 16L30 16L30 17L27 17L27 16L26 16L26 15L27 15L27 14L26 14L26 15L25 15L25 14L24 14L24 15L23 15L23 16L22 16L22 15L21 15L21 16L20 16L20 15L19 15L19 16L18 16L18 17L12 17L12 16L11 16L11 19L9 19L9 18L8 18L8 17L7 17L7 18L6 18L6 19L7 19L7 18L8 18L8 20L11 20L11 22L10 22L10 21L8 21L8 22L9 22L9 23L12 23L12 21L13 21L13 20L14 20L14 22L15 22L15 21L20 21L20 22L18 22L18 23L17 23L17 22L16 22L16 23L15 23L15 24L14 24L14 23L13 23L13 25L14 25L14 30L12 30L12 31L14 31L14 32L16 32L16 28L17 28L17 31L18 31L18 30L19 30L19 28L20 28L20 31L21 31L21 32L20 32L20 33L19 33L19 32L18 32L18 33L13 33L13 35L12 35L12 36L13 36L13 35L14 35L14 34L15 34L15 35L16 35L16 34L17 34L17 36L16 36L16 37L15 37L15 36L14 36L14 38L16 38L16 39L17 39L17 41L18 41L18 40L19 40L19 41L21 41L21 39L20 39L20 38L21 38L21 37L22 37L22 36L23 36L23 35L24 35L24 36L25 36L25 34L26 34L26 35L27 35L27 36L26 36L26 38L28 38L28 40L29 40L29 39L32 39L32 41L33 41L33 44L34 44L34 45L38 45L38 44L39 44L39 45L40 45L40 43L42 43L42 42L46 42L46 41L47 41L47 39L48 39L48 38L49 38L49 35L50 35L50 33L48 33L48 32L47 32L47 34L46 34L46 35L45 35L45 34L44 34L44 36L43 36L43 33L44 33L44 32L46 32L46 31L44 31L44 32L42 32L42 33L40 33L40 32L41 32L41 31L40 31L40 32L39 32L39 29L40 29L40 28L41 28L41 26L40 26L40 24L41 24L41 23L40 23L40 24L39 24L39 25L37 25L37 24L35 24L35 25L37 25L37 26L36 26L36 29L38 29L38 34L37 34L37 30L36 30L36 31L35 31L35 30L34 30L34 29L35 29L35 28L34 28L34 27L35 27L35 26L34 26L34 25L33 25L33 23L34 23L34 21L38 21L38 20L39 20L39 18L40 18L40 17L38 17L38 20L35 20L35 19L37 19L37 18L35 18L35 19L34 19L34 17L37 17L37 16L38 16L38 15L39 15L39 13L40 13L40 12L41 12L41 14L40 14L40 15L42 15L42 14L43 14L43 11L41 11L41 10ZM10 11L10 13L11 13L11 12L12 12L12 14L15 14L15 13L13 13L13 12L12 12L12 11ZM25 11L25 12L23 12L23 13L27 13L27 12L26 12L26 11ZM28 14L28 15L29 15L29 14ZM33 14L33 17L34 17L34 14ZM24 15L24 17L25 17L25 19L23 19L23 17L21 17L21 18L20 18L20 19L19 19L19 20L21 20L21 21L23 21L23 22L24 22L24 23L23 23L23 24L22 24L22 23L20 23L20 24L21 24L21 25L19 25L19 24L18 24L18 25L17 25L17 23L16 23L16 25L15 25L15 27L16 27L16 26L18 26L18 25L19 25L19 27L17 27L17 28L19 28L19 27L20 27L20 26L21 26L21 25L22 25L22 26L23 26L23 27L24 27L24 24L25 24L25 23L26 23L26 24L28 24L28 22L29 22L29 25L30 25L30 24L31 24L31 22L29 22L29 21L30 21L30 20L31 20L31 21L32 21L32 19L33 19L33 18L29 18L29 21L28 21L28 18L27 18L27 17L26 17L26 16L25 16L25 15ZM19 16L19 17L20 17L20 16ZM44 17L44 18L46 18L46 17ZM12 18L12 19L11 19L11 20L12 20L12 19L13 19L13 18ZM14 18L14 20L18 20L18 18L16 18L16 19L15 19L15 18ZM21 18L21 20L22 20L22 18ZM26 18L26 19L27 19L27 18ZM51 18L51 19L50 19L50 20L49 20L49 21L50 21L50 24L51 24L51 23L52 23L52 22L51 22L51 21L52 21L52 20L51 20L51 19L52 19L52 18ZM23 20L23 21L25 21L25 22L26 22L26 23L27 23L27 22L28 22L28 21L25 21L25 20ZM33 20L33 21L34 21L34 20ZM44 20L44 21L43 21L43 22L44 22L44 21L45 21L45 20ZM50 20L50 21L51 21L51 20ZM6 22L6 23L7 23L7 22ZM32 22L32 23L33 23L33 22ZM35 22L35 23L36 23L36 22ZM37 22L37 23L38 23L38 22ZM0 23L0 24L2 24L2 23ZM47 23L47 24L49 24L49 23ZM5 25L5 28L8 28L8 25ZM25 25L25 28L28 28L28 25ZM31 25L31 26L29 26L29 27L31 27L31 28L29 28L29 29L32 29L32 30L31 30L31 31L29 31L29 33L26 33L26 32L25 32L25 33L24 33L24 31L27 31L27 32L28 32L28 31L27 31L27 30L28 30L28 29L26 29L26 30L25 30L25 29L24 29L24 28L21 28L21 29L23 29L23 30L21 30L21 31L22 31L22 32L23 32L23 33L21 33L21 34L20 34L20 35L19 35L19 36L20 36L20 37L16 37L16 38L17 38L17 39L18 39L18 38L20 38L20 37L21 37L21 36L22 36L22 35L23 35L23 33L24 33L24 34L25 34L25 33L26 33L26 34L27 34L27 35L31 35L31 34L29 34L29 33L32 33L32 30L33 30L33 29L32 29L32 27L33 27L33 25ZM45 25L45 28L48 28L48 25ZM49 25L49 26L50 26L50 25ZM6 26L6 27L7 27L7 26ZM11 26L11 28L12 28L12 29L13 29L13 28L12 28L12 26ZM26 26L26 27L27 27L27 26ZM31 26L31 27L32 27L32 26ZM39 26L39 27L38 27L38 29L39 29L39 27L40 27L40 26ZM46 26L46 27L47 27L47 26ZM43 27L43 28L44 28L44 27ZM23 30L23 31L24 31L24 30ZM34 31L34 35L33 35L33 36L34 36L34 40L33 40L33 41L34 41L34 44L35 44L35 41L34 41L34 40L35 40L35 39L36 39L36 40L40 40L40 41L39 41L39 42L38 42L38 41L36 41L36 43L37 43L37 42L38 42L38 43L40 43L40 41L43 41L43 40L42 40L42 39L41 39L41 40L40 40L40 38L41 38L41 37L43 37L43 38L44 38L44 37L43 37L43 36L41 36L41 35L40 35L40 34L38 34L38 35L36 35L36 36L37 36L37 39L36 39L36 38L35 38L35 31ZM21 34L21 35L22 35L22 34ZM47 34L47 35L49 35L49 34ZM38 35L38 36L39 36L39 37L38 37L38 38L39 38L39 37L40 37L40 35ZM3 36L3 38L2 38L2 39L1 39L1 40L2 40L2 41L1 41L1 42L2 42L2 43L3 43L3 39L4 39L4 40L5 40L5 39L6 39L6 40L7 40L7 41L5 41L5 42L7 42L7 41L8 41L8 42L9 42L9 44L11 44L11 43L12 43L12 44L13 44L13 42L14 42L14 41L12 41L12 42L11 42L11 43L10 43L10 42L9 42L9 40L7 40L7 39L6 39L6 38L7 38L7 37L6 37L6 36L5 36L5 37L4 37L4 36ZM28 36L28 38L29 38L29 37L31 37L31 38L32 38L32 36ZM46 36L46 38L45 38L45 39L46 39L46 38L47 38L47 37L48 37L48 36ZM5 37L5 38L4 38L4 39L5 39L5 38L6 38L6 37ZM19 39L19 40L20 40L20 39ZM44 40L44 41L45 41L45 40ZM25 41L25 42L26 42L26 41ZM21 44L21 45L20 45L20 46L19 46L19 48L20 48L20 47L21 47L21 45L22 45L22 46L23 46L23 45L22 45L22 44ZM14 45L14 46L15 46L15 47L16 47L16 48L17 48L17 47L18 47L18 46L16 46L16 45ZM25 45L25 48L28 48L28 45ZM45 45L45 48L48 48L48 45ZM26 46L26 47L27 47L27 46ZM46 46L46 47L47 47L47 46ZM42 47L42 48L43 48L43 47ZM25 49L25 50L26 50L26 49ZM27 49L27 50L28 50L28 49ZM34 49L34 51L35 51L35 49ZM18 50L18 51L19 51L19 50ZM50 51L50 52L51 52L51 51ZM11 52L11 53L12 53L12 52ZM0 0L0 7L7 7L7 0ZM1 1L1 6L6 6L6 1ZM2 2L2 5L5 5L5 2ZM46 0L46 7L53 7L53 0ZM47 1L47 6L52 6L52 1ZM48 2L48 5L51 5L51 2ZM0 46L0 53L7 53L7 46ZM1 47L1 52L6 52L6 47ZM2 48L2 51L5 51L5 48Z" fill="#000000"/></g></g></svg>
