<?xml version="1.0" encoding="UTF-8"?>
<svg xmlns="http://www.w3.org/2000/svg" version="1.1" width="100" height="100" viewBox="0 0 100 100"><rect x="0" y="0" width="100" height="100" fill="#ffffff"/><g transform="scale(1.887)"><g transform="translate(0,0)"><path fill-rule="evenodd" d="M8 0L8 2L9 2L9 3L10 3L10 5L9 5L9 4L8 4L8 9L7 9L7 8L5 8L5 10L6 10L6 11L8 11L8 10L9 10L9 11L10 11L10 10L11 10L11 11L12 11L12 12L11 12L11 14L12 14L12 15L10 15L10 12L8 12L8 13L7 13L7 12L6 12L6 13L5 13L5 12L3 12L3 11L4 11L4 9L3 9L3 8L0 8L0 10L1 10L1 12L0 12L0 13L1 13L1 16L2 16L2 14L4 14L4 16L3 16L3 17L2 17L2 18L4 18L4 19L3 19L3 20L4 20L4 19L5 19L5 22L6 22L6 23L4 23L4 22L0 22L0 23L1 23L1 24L0 24L0 25L3 25L3 26L4 26L4 27L1 27L1 28L4 28L4 30L6 30L6 31L5 31L5 32L4 32L4 31L3 31L3 29L2 29L2 31L1 31L1 33L0 33L0 34L2 34L2 35L1 35L1 36L0 36L0 37L1 37L1 38L2 38L2 37L3 37L3 38L4 38L4 39L5 39L5 38L4 38L4 36L5 36L5 35L4 35L4 34L5 34L5 32L6 32L6 33L7 33L7 32L6 32L6 31L8 31L8 29L9 29L9 27L10 27L10 30L11 30L11 31L12 31L12 32L10 32L10 31L9 31L9 33L8 33L8 35L7 35L7 34L6 34L6 35L7 35L7 36L6 36L6 37L7 37L7 38L6 38L6 39L9 39L9 37L10 37L10 40L8 40L8 41L7 41L7 40L5 40L5 41L4 41L4 42L3 42L3 41L2 41L2 42L1 42L1 40L2 40L2 39L0 39L0 43L1 43L1 44L3 44L3 45L4 45L4 44L3 44L3 43L7 43L7 42L8 42L8 41L10 41L10 40L12 40L12 44L10 44L10 45L8 45L8 46L9 46L9 47L8 47L8 48L10 48L10 49L11 49L11 51L10 51L10 52L9 52L9 50L8 50L8 53L12 53L12 52L13 52L13 49L12 49L12 48L13 48L13 47L14 47L14 48L15 48L15 50L14 50L14 52L15 52L15 53L16 53L16 52L17 52L17 51L16 51L16 50L18 50L18 53L19 53L19 50L18 50L18 49L19 49L19 48L20 48L20 49L21 49L21 48L20 48L20 47L19 47L19 46L20 46L20 44L22 44L22 46L23 46L23 47L22 47L22 48L23 48L23 51L24 51L24 49L25 49L25 50L26 50L26 49L29 49L29 50L28 50L28 51L29 51L29 52L28 52L28 53L31 53L31 52L30 52L30 49L31 49L31 51L32 51L32 53L34 53L34 52L35 52L35 51L36 51L36 53L38 53L38 52L39 52L39 50L38 50L38 49L37 49L37 47L38 47L38 45L39 45L39 46L40 46L40 45L41 45L41 46L42 46L42 47L39 47L39 48L40 48L40 49L41 49L41 51L40 51L40 53L42 53L42 52L44 52L44 53L45 53L45 52L46 52L46 53L47 53L47 52L48 52L48 51L49 51L49 53L50 53L50 50L51 50L51 49L50 49L50 47L51 47L51 45L52 45L52 49L53 49L53 45L52 45L52 44L50 44L50 43L51 43L51 41L52 41L52 43L53 43L53 41L52 41L52 40L53 40L53 38L52 38L52 37L53 37L53 36L52 36L52 35L53 35L53 33L52 33L52 32L53 32L53 30L52 30L52 32L51 32L51 34L52 34L52 35L51 35L51 36L52 36L52 37L51 37L51 38L52 38L52 40L50 40L50 34L49 34L49 35L48 35L48 32L46 32L46 31L49 31L49 30L48 30L48 29L49 29L49 28L50 28L50 31L51 31L51 29L52 29L52 27L53 27L53 26L52 26L52 27L51 27L51 24L50 24L50 23L51 23L51 21L52 21L52 20L53 20L53 16L52 16L52 15L53 15L53 12L50 12L50 11L49 11L49 10L47 10L47 12L46 12L46 11L45 11L45 10L44 10L44 9L49 9L49 8L44 8L44 9L43 9L43 8L42 8L42 7L43 7L43 3L44 3L44 4L45 4L45 3L44 3L44 1L43 1L43 0L42 0L42 1L40 1L40 0L38 0L38 1L37 1L37 2L35 2L35 4L34 4L34 3L33 3L33 4L34 4L34 5L32 5L32 4L31 4L31 2L32 2L32 1L33 1L33 0L30 0L30 1L31 1L31 2L29 2L29 3L30 3L30 5L31 5L31 6L30 6L30 7L29 7L29 4L27 4L27 2L28 2L28 1L29 1L29 0L27 0L27 2L26 2L26 0L23 0L23 1L24 1L24 2L23 2L23 4L22 4L22 1L21 1L21 0L18 0L18 3L17 3L17 4L16 4L16 5L15 5L15 4L14 4L14 3L15 3L15 2L14 2L14 1L15 1L15 0L12 0L12 1L11 1L11 0ZM34 0L34 1L36 1L36 0ZM10 1L10 3L11 3L11 5L10 5L10 6L9 6L9 9L10 9L10 6L11 6L11 7L12 7L12 8L13 8L13 7L14 7L14 8L15 8L15 9L14 9L14 10L15 10L15 11L14 11L14 12L17 12L17 13L16 13L16 14L13 14L13 17L12 17L12 16L11 16L11 17L10 17L10 18L15 18L15 16L16 16L16 14L18 14L18 11L19 11L19 8L20 8L20 4L21 4L21 7L22 7L22 8L23 8L23 9L21 9L21 10L20 10L20 11L21 11L21 10L23 10L23 9L24 9L24 10L25 10L25 11L24 11L24 12L23 12L23 11L22 11L22 12L20 12L20 16L19 16L19 15L18 15L18 16L19 16L19 17L18 17L18 18L16 18L16 19L19 19L19 20L23 20L23 23L22 23L22 24L23 24L23 25L22 25L22 26L24 26L24 24L25 24L25 22L26 22L26 24L28 24L28 23L27 23L27 21L26 21L26 20L27 20L27 19L28 19L28 21L29 21L29 20L30 20L30 19L32 19L32 18L33 18L33 17L32 17L32 16L33 16L33 15L34 15L34 19L33 19L33 21L32 21L32 22L33 22L33 23L35 23L35 22L36 22L36 24L35 24L35 25L34 25L34 26L35 26L35 27L33 27L33 25L32 25L32 28L30 28L30 26L31 26L31 25L30 25L30 24L31 24L31 23L30 23L30 22L31 22L31 21L30 21L30 22L29 22L29 23L30 23L30 24L29 24L29 25L30 25L30 26L29 26L29 28L30 28L30 30L31 30L31 31L30 31L30 32L31 32L31 33L30 33L30 36L29 36L29 35L28 35L28 32L29 32L29 31L28 31L28 32L27 32L27 31L26 31L26 29L25 29L25 34L24 34L24 35L23 35L23 32L22 32L22 31L23 31L23 30L24 30L24 29L23 29L23 30L21 30L21 29L20 29L20 28L19 28L19 24L18 24L18 23L20 23L20 24L21 24L21 21L20 21L20 22L18 22L18 20L15 20L15 21L14 21L14 20L13 20L13 19L11 19L11 20L12 20L12 22L11 22L11 21L10 21L10 20L9 20L9 19L8 19L8 18L9 18L9 17L8 17L8 18L7 18L7 17L6 17L6 16L7 16L7 15L6 15L6 14L7 14L7 13L6 13L6 14L5 14L5 15L6 15L6 16L4 16L4 17L6 17L6 18L5 18L5 19L6 19L6 20L7 20L7 19L8 19L8 21L6 21L6 22L8 22L8 24L9 24L9 26L10 26L10 27L12 27L12 26L13 26L13 24L12 24L12 23L13 23L13 21L14 21L14 22L15 22L15 23L14 23L14 24L15 24L15 25L14 25L14 27L13 27L13 28L11 28L11 30L12 30L12 29L13 29L13 33L12 33L12 34L13 34L13 37L12 37L12 36L11 36L11 39L12 39L12 40L13 40L13 39L12 39L12 38L13 38L13 37L14 37L14 38L15 38L15 39L14 39L14 40L15 40L15 41L14 41L14 42L15 42L15 44L14 44L14 45L12 45L12 47L13 47L13 46L15 46L15 44L17 44L17 45L16 45L16 47L15 47L15 48L16 48L16 47L17 47L17 45L18 45L18 46L19 46L19 45L18 45L18 44L19 44L19 40L20 40L20 38L23 38L23 37L24 37L24 39L22 39L22 40L23 40L23 41L22 41L22 44L23 44L23 42L24 42L24 40L25 40L25 42L26 42L26 43L24 43L24 44L26 44L26 43L28 43L28 44L29 44L29 49L30 49L30 48L31 48L31 49L32 49L32 51L33 51L33 52L34 52L34 51L35 51L35 49L36 49L36 51L37 51L37 52L38 52L38 51L37 51L37 49L36 49L36 48L33 48L33 47L34 47L34 46L36 46L36 47L37 47L37 45L38 45L38 42L41 42L41 43L40 43L40 44L39 44L39 45L40 45L40 44L41 44L41 45L42 45L42 46L43 46L43 47L42 47L42 51L41 51L41 52L42 52L42 51L44 51L44 50L45 50L45 51L46 51L46 52L47 52L47 51L46 51L46 50L47 50L47 49L46 49L46 50L45 50L45 49L43 49L43 47L44 47L44 45L43 45L43 44L44 44L44 43L43 43L43 44L42 44L42 42L43 42L43 40L42 40L42 39L44 39L44 38L45 38L45 41L48 41L48 42L47 42L47 43L46 43L46 42L45 42L45 44L47 44L47 43L48 43L48 42L49 42L49 43L50 43L50 41L48 41L48 40L49 40L49 39L48 39L48 38L49 38L49 36L48 36L48 35L46 35L46 34L47 34L47 33L45 33L45 32L44 32L44 31L42 31L42 30L43 30L43 29L44 29L44 30L45 30L45 31L46 31L46 29L44 29L44 25L43 25L43 23L44 23L44 22L45 22L45 24L46 24L46 23L47 23L47 24L48 24L48 23L50 23L50 21L51 21L51 20L52 20L52 18L50 18L50 17L51 17L51 15L50 15L50 17L48 17L48 18L50 18L50 21L49 21L49 22L48 22L48 20L49 20L49 19L47 19L47 17L46 17L46 16L47 16L47 15L49 15L49 14L48 14L48 12L49 12L49 13L50 13L50 14L51 14L51 13L50 13L50 12L49 12L49 11L48 11L48 12L47 12L47 13L46 13L46 16L44 16L44 15L45 15L45 11L44 11L44 10L43 10L43 9L42 9L42 8L41 8L41 9L42 9L42 10L43 10L43 11L41 11L41 10L39 10L39 9L40 9L40 8L39 8L39 7L40 7L40 6L41 6L41 7L42 7L42 6L41 6L41 5L42 5L42 3L43 3L43 2L42 2L42 3L41 3L41 2L40 2L40 1L38 1L38 3L36 3L36 4L35 4L35 5L34 5L34 6L33 6L33 7L32 7L32 6L31 6L31 7L30 7L30 10L31 10L31 11L30 11L30 12L29 12L29 13L30 13L30 14L29 14L29 15L30 15L30 19L28 19L28 18L27 18L27 17L26 17L26 16L28 16L28 13L27 13L27 14L26 14L26 16L25 16L25 15L24 15L24 12L25 12L25 13L26 13L26 12L27 12L27 11L28 11L28 10L29 10L29 9L26 9L26 10L25 10L25 9L24 9L24 4L23 4L23 7L22 7L22 4L21 4L21 3L18 3L18 5L19 5L19 8L18 8L18 6L17 6L17 5L16 5L16 6L15 6L15 5L12 5L12 3L13 3L13 1L12 1L12 2L11 2L11 1ZM16 1L16 2L17 2L17 1ZM20 1L20 2L21 2L21 1ZM24 2L24 3L25 3L25 4L26 4L26 2ZM39 2L39 4L38 4L38 5L37 5L37 4L36 4L36 9L37 9L37 10L38 10L38 12L37 12L37 11L36 11L36 10L34 10L34 9L35 9L35 6L34 6L34 8L32 8L32 7L31 7L31 8L32 8L32 11L33 11L33 12L32 12L32 13L33 13L33 14L32 14L32 15L31 15L31 16L32 16L32 15L33 15L33 14L34 14L34 15L35 15L35 14L34 14L34 13L35 13L35 12L34 12L34 11L36 11L36 18L35 18L35 19L34 19L34 21L35 21L35 19L36 19L36 18L37 18L37 20L36 20L36 22L38 22L38 23L37 23L37 24L36 24L36 26L37 26L37 24L38 24L38 25L39 25L39 27L38 27L38 28L37 28L37 27L35 27L35 28L32 28L32 29L33 29L33 30L32 30L32 31L33 31L33 30L34 30L34 33L33 33L33 32L32 32L32 34L31 34L31 36L32 36L32 38L30 38L30 37L29 37L29 39L31 39L31 43L29 43L29 40L28 40L28 39L27 39L27 38L28 38L28 35L27 35L27 36L26 36L26 37L25 37L25 40L26 40L26 42L28 42L28 43L29 43L29 44L30 44L30 45L31 45L31 48L32 48L32 49L33 49L33 51L34 51L34 49L33 49L33 48L32 48L32 46L34 46L34 44L32 44L32 41L33 41L33 43L34 43L34 40L35 40L35 39L36 39L36 38L38 38L38 39L40 39L40 37L41 37L41 39L42 39L42 36L43 36L43 38L44 38L44 37L45 37L45 35L44 35L44 36L43 36L43 34L42 34L42 32L41 32L41 31L40 31L40 30L42 30L42 29L41 29L41 28L42 28L42 27L43 27L43 26L42 26L42 25L41 25L41 24L42 24L42 23L43 23L43 22L44 22L44 19L43 19L43 18L42 18L42 16L43 16L43 15L44 15L44 12L42 12L42 13L41 13L41 12L40 12L40 13L41 13L41 14L40 14L40 17L39 17L39 18L38 18L38 15L39 15L39 14L38 14L38 12L39 12L39 10L38 10L38 8L37 8L37 6L38 6L38 7L39 7L39 6L40 6L40 2ZM11 5L11 6L12 6L12 7L13 7L13 6L12 6L12 5ZM25 5L25 8L28 8L28 5ZM38 5L38 6L39 6L39 5ZM14 6L14 7L15 7L15 8L16 8L16 9L17 9L17 6L16 6L16 7L15 7L15 6ZM26 6L26 7L27 7L27 6ZM44 6L44 7L45 7L45 6ZM51 8L51 9L52 9L52 11L53 11L53 8ZM6 9L6 10L7 10L7 9ZM12 9L12 11L13 11L13 9ZM2 10L2 11L3 11L3 10ZM16 10L16 11L18 11L18 10ZM33 10L33 11L34 11L34 10ZM25 11L25 12L26 12L26 11ZM12 12L12 13L13 13L13 12ZM22 12L22 13L21 13L21 14L22 14L22 13L23 13L23 12ZM30 12L30 13L31 13L31 12ZM42 13L42 14L41 14L41 15L42 15L42 14L43 14L43 13ZM8 14L8 16L9 16L9 14ZM14 15L14 16L15 16L15 15ZM22 15L22 16L24 16L24 15ZM20 16L20 17L21 17L21 16ZM25 17L25 20L24 20L24 18L22 18L22 19L23 19L23 20L24 20L24 22L25 22L25 20L26 20L26 17ZM31 17L31 18L32 18L32 17ZM40 17L40 18L41 18L41 17ZM45 17L45 19L46 19L46 20L47 20L47 19L46 19L46 17ZM0 18L0 20L1 20L1 18ZM6 18L6 19L7 19L7 18ZM20 18L20 19L21 19L21 18ZM38 19L38 20L39 20L39 21L38 21L38 22L39 22L39 23L38 23L38 24L39 24L39 23L42 23L42 22L43 22L43 20L42 20L42 19ZM40 20L40 22L42 22L42 20ZM8 21L8 22L9 22L9 23L10 23L10 21ZM15 21L15 22L16 22L16 25L17 25L17 22L16 22L16 21ZM47 22L47 23L48 23L48 22ZM52 22L52 23L53 23L53 22ZM6 23L6 24L7 24L7 23ZM3 24L3 25L4 25L4 24ZM10 24L10 25L11 25L11 26L12 26L12 24ZM52 24L52 25L53 25L53 24ZM5 25L5 28L8 28L8 25ZM25 25L25 28L28 28L28 25ZM45 25L45 28L48 28L48 25ZM6 26L6 27L7 27L7 26ZM16 26L16 27L17 27L17 28L16 28L16 29L15 29L15 27L14 27L14 29L15 29L15 31L14 31L14 32L15 32L15 34L14 34L14 35L15 35L15 36L14 36L14 37L15 37L15 36L17 36L17 35L16 35L16 34L18 34L18 33L19 33L19 32L18 32L18 31L20 31L20 29L19 29L19 28L18 28L18 26ZM20 26L20 27L21 27L21 28L24 28L24 27L21 27L21 26ZM26 26L26 27L27 27L27 26ZM41 26L41 27L39 27L39 28L38 28L38 31L37 31L37 29L36 29L36 28L35 28L35 29L34 29L34 30L35 30L35 33L34 33L34 35L32 35L32 36L33 36L33 38L32 38L32 39L33 39L33 40L34 40L34 39L35 39L35 37L36 37L36 36L37 36L37 37L38 37L38 38L39 38L39 37L40 37L40 36L39 36L39 37L38 37L38 36L37 36L37 35L38 35L38 34L39 34L39 35L41 35L41 36L42 36L42 34L40 34L40 31L39 31L39 30L40 30L40 28L41 28L41 27L42 27L42 26ZM46 26L46 27L47 27L47 26ZM49 26L49 27L50 27L50 28L51 28L51 27L50 27L50 26ZM17 28L17 29L16 29L16 31L15 31L15 32L17 32L17 30L19 30L19 29L18 29L18 28ZM6 29L6 30L7 30L7 29ZM27 29L27 30L28 30L28 29ZM35 29L35 30L36 30L36 29ZM2 31L2 34L3 34L3 31ZM36 31L36 33L35 33L35 35L34 35L34 37L35 37L35 35L36 35L36 33L37 33L37 34L38 34L38 33L39 33L39 31L38 31L38 33L37 33L37 31ZM20 32L20 33L21 33L21 32ZM26 32L26 34L25 34L25 35L24 35L24 36L25 36L25 35L26 35L26 34L27 34L27 32ZM43 32L43 33L44 33L44 32ZM9 33L9 35L11 35L11 34L10 34L10 33ZM20 34L20 35L21 35L21 36L22 36L22 37L23 37L23 36L22 36L22 34ZM2 35L2 36L4 36L4 35ZM18 35L18 38L20 38L20 36L19 36L19 35ZM46 36L46 39L47 39L47 38L48 38L48 37L47 37L47 36ZM26 37L26 38L27 38L27 37ZM16 38L16 39L15 39L15 40L16 40L16 41L17 41L17 38ZM18 39L18 40L19 40L19 39ZM26 39L26 40L27 40L27 41L28 41L28 40L27 40L27 39ZM36 40L36 41L35 41L35 43L36 43L36 45L37 45L37 42L38 42L38 41L39 41L39 40ZM40 40L40 41L41 41L41 42L42 42L42 40ZM6 41L6 42L7 42L7 41ZM2 42L2 43L3 43L3 42ZM10 42L10 43L11 43L11 42ZM16 42L16 43L17 43L17 44L18 44L18 43L17 43L17 42ZM20 42L20 43L21 43L21 42ZM8 43L8 44L9 44L9 43ZM6 44L6 45L7 45L7 44ZM31 44L31 45L32 45L32 44ZM49 44L49 47L50 47L50 44ZM10 45L10 47L11 47L11 45ZM23 45L23 46L24 46L24 45ZM25 45L25 48L28 48L28 45ZM45 45L45 48L48 48L48 45ZM26 46L26 47L27 47L27 46ZM46 46L46 47L47 47L47 46ZM18 47L18 48L19 48L19 47ZM49 49L49 50L50 50L50 49ZM20 50L20 51L21 51L21 52L22 52L22 53L23 53L23 52L22 52L22 50ZM25 51L25 52L24 52L24 53L27 53L27 51ZM52 52L52 53L53 53L53 52ZM0 0L0 7L7 7L7 0ZM1 1L1 6L6 6L6 1ZM2 2L2 5L5 5L5 2ZM46 0L46 7L53 7L53 0ZM47 1L47 6L52 6L52 1ZM48 2L48 5L51 5L51 2ZM0 46L0 53L7 53L7 46ZM1 47L1 52L6 52L6 47ZM2 48L2 51L5 51L5 48Z" fill="#000000"/></g></g></svg>
