<?xml version="1.0" encoding="UTF-8"?>
<svg xmlns="http://www.w3.org/2000/svg" version="1.1" width="100" height="100" viewBox="0 0 100 100"><rect x="0" y="0" width="100" height="100" fill="#ffffff"/><g transform="scale(1.887)"><g transform="translate(0,0)"><path fill-rule="evenodd" d="M8 0L8 4L9 4L9 5L8 5L8 7L9 7L9 5L10 5L10 8L9 8L9 9L10 9L10 8L13 8L13 9L12 9L12 10L13 10L13 11L12 11L12 12L13 12L13 13L12 13L12 14L9 14L9 15L8 15L8 14L6 14L6 15L7 15L7 16L5 16L5 15L4 15L4 12L5 12L5 11L7 11L7 12L6 12L6 13L7 13L7 12L8 12L8 13L9 13L9 12L10 12L10 13L11 13L11 10L9 10L9 12L8 12L8 9L7 9L7 8L4 8L4 9L3 9L3 11L1 11L1 12L0 12L0 14L1 14L1 16L2 16L2 14L1 14L1 12L3 12L3 16L5 16L5 17L3 17L3 18L4 18L4 20L6 20L6 21L4 21L4 22L2 22L2 21L1 21L1 20L2 20L2 17L0 17L0 21L1 21L1 23L0 23L0 25L2 25L2 26L3 26L3 27L2 27L2 28L3 28L3 27L4 27L4 29L3 29L3 32L4 32L4 31L5 31L5 32L6 32L6 33L3 33L3 34L4 34L4 35L5 35L5 34L6 34L6 35L10 35L10 34L8 34L8 33L7 33L7 32L6 32L6 31L8 31L8 32L9 32L9 33L10 33L10 32L12 32L12 33L11 33L11 36L8 36L8 38L6 38L6 37L7 37L7 36L3 36L3 35L0 35L0 38L1 38L1 37L3 37L3 38L2 38L2 39L3 39L3 38L4 38L4 39L5 39L5 41L4 41L4 40L1 40L1 39L0 39L0 43L1 43L1 44L3 44L3 45L4 45L4 44L3 44L3 43L8 43L8 42L10 42L10 43L9 43L9 44L6 44L6 45L8 45L8 46L11 46L11 45L12 45L12 46L14 46L14 47L13 47L13 48L12 48L12 47L11 47L11 48L12 48L12 49L13 49L13 50L12 50L12 51L10 51L10 48L9 48L9 47L8 47L8 49L9 49L9 51L8 51L8 53L13 53L13 52L12 52L12 51L13 51L13 50L14 50L14 51L16 51L16 50L17 50L17 51L18 51L18 50L19 50L19 51L20 51L20 50L21 50L21 51L22 51L22 52L21 52L21 53L22 53L22 52L23 52L23 53L26 53L26 52L27 52L27 53L28 53L28 52L29 52L29 53L30 53L30 52L29 52L29 51L30 51L30 50L31 50L31 49L29 49L29 46L30 46L30 48L31 48L31 44L32 44L32 46L33 46L33 47L32 47L32 51L31 51L31 53L34 53L34 52L33 52L33 51L34 51L34 49L35 49L35 53L38 53L38 52L39 52L39 53L40 53L40 50L42 50L42 51L41 51L41 52L43 52L43 53L45 53L45 51L46 51L46 52L47 52L47 53L48 53L48 51L47 51L47 50L49 50L49 53L50 53L50 45L51 45L51 46L52 46L52 48L53 48L53 38L52 38L52 36L53 36L53 32L52 32L52 31L53 31L53 30L52 30L52 29L53 29L53 26L52 26L52 29L51 29L51 28L50 28L50 27L51 27L51 26L50 26L50 25L52 25L52 24L53 24L53 22L52 22L52 21L53 21L53 20L52 20L52 19L53 19L53 13L51 13L51 12L53 12L53 8L49 8L49 9L48 9L48 8L47 8L47 10L50 10L50 11L49 11L49 12L47 12L47 11L46 11L46 9L44 9L44 11L46 11L46 12L47 12L47 13L49 13L49 12L50 12L50 14L52 14L52 17L51 17L51 18L52 18L52 19L51 19L51 20L52 20L52 21L51 21L51 22L52 22L52 23L51 23L51 24L50 24L50 15L49 15L49 14L46 14L46 13L45 13L45 12L43 12L43 3L44 3L44 4L45 4L45 3L44 3L44 1L43 1L43 0L40 0L40 1L42 1L42 2L41 2L41 3L40 3L40 4L39 4L39 3L38 3L38 2L39 2L39 0L38 0L38 1L36 1L36 2L35 2L35 3L36 3L36 2L37 2L37 4L38 4L38 5L37 5L37 6L36 6L36 7L35 7L35 6L34 6L34 3L33 3L33 6L32 6L32 7L31 7L31 6L30 6L30 7L29 7L29 5L31 5L31 4L32 4L32 3L31 3L31 4L30 4L30 3L26 3L26 2L28 2L28 0L27 0L27 1L26 1L26 0L24 0L24 1L26 1L26 2L23 2L23 0L13 0L13 1L12 1L12 2L11 2L11 3L10 3L10 4L9 4L9 2L10 2L10 1L11 1L11 0L10 0L10 1L9 1L9 0ZM29 0L29 2L30 2L30 1L31 1L31 2L33 2L33 1L34 1L34 0L33 0L33 1L32 1L32 0ZM14 1L14 2L13 2L13 3L14 3L14 4L15 4L15 3L16 3L16 5L15 5L15 7L14 7L14 6L13 6L13 4L12 4L12 3L11 3L11 4L12 4L12 5L11 5L11 7L12 7L12 6L13 6L13 7L14 7L14 8L16 8L16 9L15 9L15 10L14 10L14 9L13 9L13 10L14 10L14 12L15 12L15 13L13 13L13 14L12 14L12 15L10 15L10 16L9 16L9 17L8 17L8 16L7 16L7 17L5 17L5 18L7 18L7 19L6 19L6 20L7 20L7 21L6 21L6 22L5 22L5 23L4 23L4 24L5 24L5 23L6 23L6 24L10 24L10 26L9 26L9 28L11 28L11 27L13 27L13 26L14 26L14 25L13 25L13 24L11 24L11 23L12 23L12 22L13 22L13 23L14 23L14 24L15 24L15 23L16 23L16 25L15 25L15 27L16 27L16 26L18 26L18 25L19 25L19 27L17 27L17 28L16 28L16 30L18 30L18 31L17 31L17 32L16 32L16 31L15 31L15 32L14 32L14 31L12 31L12 32L13 32L13 33L12 33L12 35L13 35L13 33L18 33L18 32L19 32L19 33L20 33L20 32L21 32L21 31L22 31L22 32L23 32L23 33L21 33L21 34L20 34L20 35L19 35L19 36L20 36L20 37L19 37L19 38L20 38L20 39L19 39L19 40L18 40L18 41L17 41L17 39L18 39L18 37L17 37L17 35L18 35L18 34L16 34L16 35L15 35L15 34L14 34L14 35L15 35L15 36L16 36L16 41L15 41L15 42L14 42L14 41L12 41L12 43L10 43L10 45L11 45L11 44L12 44L12 43L16 43L16 42L17 42L17 43L18 43L18 44L19 44L19 43L20 43L20 42L21 42L21 41L22 41L22 43L21 43L21 44L20 44L20 45L19 45L19 46L18 46L18 47L17 47L17 44L16 44L16 47L17 47L17 48L14 48L14 49L18 49L18 48L19 48L19 49L20 49L20 48L21 48L21 47L22 47L22 48L23 48L23 49L21 49L21 50L22 50L22 51L23 51L23 52L26 52L26 51L23 51L23 49L24 49L24 47L23 47L23 46L24 46L24 43L25 43L25 44L26 44L26 42L27 42L27 43L29 43L29 44L31 44L31 43L32 43L32 44L33 44L33 45L34 45L34 46L35 46L35 47L33 47L33 48L36 48L36 45L34 45L34 44L33 44L33 41L34 41L34 43L35 43L35 41L34 41L34 40L35 40L35 31L36 31L36 30L37 30L37 29L39 29L39 30L40 30L40 31L39 31L39 32L40 32L40 35L39 35L39 34L38 34L38 31L37 31L37 34L38 34L38 35L36 35L36 36L37 36L37 37L36 37L36 38L37 38L37 39L36 39L36 40L40 40L40 43L43 43L43 42L41 42L41 40L43 40L43 39L44 39L44 37L43 37L43 39L41 39L41 37L42 37L42 33L43 33L43 32L44 32L44 33L45 33L45 36L46 36L46 38L45 38L45 39L46 39L46 40L44 40L44 42L45 42L45 41L46 41L46 42L47 42L47 41L46 41L46 40L49 40L49 39L50 39L50 40L51 40L51 41L50 41L50 42L51 42L51 43L50 43L50 44L49 44L49 45L50 45L50 44L51 44L51 45L52 45L52 44L51 44L51 43L52 43L52 40L51 40L51 39L52 39L52 38L51 38L51 39L50 39L50 37L51 37L51 36L52 36L52 34L51 34L51 35L50 35L50 34L49 34L49 35L47 35L47 36L46 36L46 34L47 34L47 33L52 33L52 32L51 32L51 31L52 31L52 30L51 30L51 29L50 29L50 28L49 28L49 29L50 29L50 31L49 31L49 32L47 32L47 33L46 33L46 30L45 30L45 29L44 29L44 27L43 27L43 28L40 28L40 27L42 27L42 26L40 26L40 25L42 25L42 24L43 24L43 23L42 23L42 24L40 24L40 23L41 23L41 22L40 22L40 21L43 21L43 22L44 22L44 20L42 20L42 17L41 17L41 14L40 14L40 13L42 13L42 12L40 12L40 10L41 10L41 9L42 9L42 8L40 8L40 9L39 9L39 8L38 8L38 9L37 9L37 11L39 11L39 12L38 12L38 13L36 13L36 15L38 15L38 17L34 17L34 15L35 15L35 12L36 12L36 11L35 11L35 12L34 12L34 10L36 10L36 9L35 9L35 7L34 7L34 6L33 6L33 7L34 7L34 8L33 8L33 9L31 9L31 10L30 10L30 13L29 13L29 11L28 11L28 10L29 10L29 9L30 9L30 8L31 8L31 7L30 7L30 8L29 8L29 9L27 9L27 10L26 10L26 9L24 9L24 8L22 8L22 3L21 3L21 2L22 2L22 1L21 1L21 2L20 2L20 1L17 1L17 2L16 2L16 1ZM14 2L14 3L15 3L15 2ZM42 2L42 3L41 3L41 4L40 4L40 5L39 5L39 7L40 7L40 6L41 6L41 7L42 7L42 5L41 5L41 4L42 4L42 3L43 3L43 2ZM23 3L23 4L24 4L24 3ZM25 3L25 4L26 4L26 3ZM20 4L20 5L19 5L19 6L18 6L18 5L16 5L16 7L17 7L17 9L18 9L18 10L16 10L16 11L15 11L15 12L17 12L17 13L20 13L20 15L19 15L19 16L18 16L18 17L13 17L13 16L12 16L12 17L9 17L9 18L10 18L10 20L9 20L9 21L7 21L7 22L6 22L6 23L9 23L9 22L10 22L10 20L11 20L11 22L12 22L12 21L13 21L13 22L16 22L16 23L17 23L17 25L18 25L18 24L19 24L19 25L21 25L21 26L20 26L20 27L19 27L19 28L17 28L17 29L18 29L18 30L19 30L19 28L20 28L20 31L21 31L21 30L23 30L23 31L24 31L24 33L23 33L23 35L22 35L22 34L21 34L21 35L22 35L22 36L21 36L21 37L20 37L20 38L21 38L21 39L20 39L20 40L19 40L19 41L18 41L18 42L19 42L19 41L21 41L21 39L22 39L22 40L23 40L23 41L24 41L24 39L25 39L25 40L26 40L26 41L27 41L27 42L29 42L29 43L31 43L31 42L32 42L32 41L33 41L33 40L34 40L34 39L33 39L33 38L32 38L32 37L34 37L34 31L35 31L35 30L36 30L36 29L37 29L37 28L36 28L36 27L38 27L38 28L39 28L39 29L40 29L40 28L39 28L39 27L40 27L40 26L39 26L39 25L40 25L40 24L38 24L38 23L40 23L40 22L39 22L39 21L40 21L40 18L39 18L39 17L40 17L40 14L39 14L39 13L40 13L40 12L39 12L39 13L38 13L38 14L39 14L39 17L38 17L38 18L39 18L39 20L38 20L38 19L37 19L37 18L35 18L35 20L34 20L34 17L33 17L33 16L32 16L32 17L33 17L33 19L32 19L32 18L31 18L31 13L30 13L30 16L29 16L29 13L28 13L28 17L27 17L27 16L26 16L26 15L27 15L27 14L26 14L26 15L25 15L25 14L23 14L23 13L25 13L25 12L26 12L26 10L25 10L25 12L23 12L23 11L24 11L24 9L23 9L23 10L22 10L22 11L21 11L21 10L20 10L20 11L19 11L19 9L21 9L21 6L20 6L20 5L21 5L21 4ZM23 5L23 7L24 7L24 5ZM25 5L25 8L28 8L28 5ZM17 6L17 7L18 7L18 6ZM19 6L19 8L18 8L18 9L19 9L19 8L20 8L20 6ZM26 6L26 7L27 7L27 6ZM37 6L37 7L38 7L38 6ZM44 6L44 8L45 8L45 6ZM0 8L0 10L2 10L2 8ZM4 9L4 10L5 10L5 9ZM6 9L6 10L7 10L7 9ZM33 9L33 10L32 10L32 11L33 11L33 10L34 10L34 9ZM38 9L38 10L39 10L39 9ZM50 9L50 10L51 10L51 11L50 11L50 12L51 12L51 11L52 11L52 9ZM20 12L20 13L21 13L21 12ZM22 12L22 13L23 13L23 12ZM32 12L32 14L33 14L33 15L34 15L34 13L33 13L33 12ZM15 13L15 14L13 14L13 15L14 15L14 16L15 16L15 14L16 14L16 13ZM43 13L43 14L42 14L42 16L43 16L43 19L45 19L45 21L46 21L46 23L45 23L45 24L46 24L46 23L47 23L47 24L49 24L49 23L48 23L48 21L46 21L46 18L47 18L47 15L46 15L46 16L45 16L45 14L44 14L44 13ZM17 14L17 15L16 15L16 16L17 16L17 15L18 15L18 14ZM21 14L21 15L20 15L20 16L19 16L19 17L20 17L20 16L21 16L21 15L22 15L22 16L23 16L23 17L21 17L21 18L20 18L20 19L19 19L19 20L21 20L21 21L23 21L23 23L24 23L24 24L25 24L25 23L26 23L26 24L27 24L27 23L28 23L28 24L29 24L29 23L28 23L28 22L29 22L29 21L28 21L28 18L26 18L26 16L25 16L25 15L23 15L23 14ZM43 15L43 16L44 16L44 18L46 18L46 17L45 17L45 16L44 16L44 15ZM48 15L48 16L49 16L49 15ZM7 17L7 18L8 18L8 17ZM24 17L24 18L23 18L23 19L25 19L25 20L23 20L23 21L25 21L25 22L24 22L24 23L25 23L25 22L26 22L26 23L27 23L27 20L26 20L26 19L25 19L25 17ZM48 17L48 19L47 19L47 20L49 20L49 17ZM13 18L13 19L11 19L11 20L13 20L13 21L14 21L14 20L18 20L18 18L16 18L16 19L15 19L15 18ZM21 18L21 20L22 20L22 18ZM29 18L29 20L31 20L31 18ZM7 19L7 20L8 20L8 19ZM13 19L13 20L14 20L14 19ZM16 21L16 22L17 22L17 23L18 23L18 22L20 22L20 21ZM31 21L31 22L30 22L30 25L29 25L29 28L30 28L30 25L32 25L32 24L31 24L31 22L32 22L32 23L33 23L33 25L34 25L34 26L35 26L35 27L36 27L36 26L37 26L37 25L38 25L38 24L37 24L37 23L38 23L38 21L37 21L37 22L36 22L36 21L33 21L33 22L32 22L32 21ZM1 23L1 24L2 24L2 25L3 25L3 26L4 26L4 25L3 25L3 24L2 24L2 23ZM20 23L20 24L21 24L21 25L22 25L22 26L24 26L24 25L23 25L23 24L22 24L22 23ZM35 24L35 25L37 25L37 24ZM5 25L5 28L8 28L8 25ZM11 25L11 26L10 26L10 27L11 27L11 26L12 26L12 25ZM25 25L25 28L28 28L28 25ZM43 25L43 26L44 26L44 25ZM45 25L45 28L48 28L48 25ZM6 26L6 27L7 27L7 26ZM26 26L26 27L27 27L27 26ZM31 26L31 30L32 30L32 31L30 31L30 30L29 30L29 31L30 31L30 32L29 32L29 33L26 33L26 32L25 32L25 33L24 33L24 35L25 35L25 36L22 36L22 37L21 37L21 38L23 38L23 37L25 37L25 39L26 39L26 40L28 40L28 41L30 41L30 40L28 40L28 38L29 38L29 39L31 39L31 41L32 41L32 40L33 40L33 39L32 39L32 38L29 38L29 37L32 37L32 36L33 36L33 33L32 33L32 31L34 31L34 30L35 30L35 28L34 28L34 30L33 30L33 29L32 29L32 28L33 28L33 27L32 27L32 26ZM46 26L46 27L47 27L47 26ZM49 26L49 27L50 27L50 26ZM0 27L0 30L1 30L1 32L2 32L2 30L1 30L1 27ZM12 28L12 29L10 29L10 30L9 30L9 29L4 29L4 30L5 30L5 31L6 31L6 30L9 30L9 31L11 31L11 30L12 30L12 29L14 29L14 28ZM21 28L21 29L23 29L23 30L24 30L24 31L26 31L26 30L28 30L28 29L26 29L26 30L25 30L25 29L24 29L24 28ZM41 29L41 31L40 31L40 32L41 32L41 33L42 33L42 32L41 32L41 31L43 31L43 30L44 30L44 29ZM47 30L47 31L48 31L48 30ZM27 31L27 32L28 32L28 31ZM44 31L44 32L45 32L45 31ZM30 32L30 33L29 33L29 34L28 34L28 37L29 37L29 36L31 36L31 35L32 35L32 33L31 33L31 32ZM0 33L0 34L1 34L1 33ZM6 33L6 34L7 34L7 33ZM25 33L25 34L26 34L26 35L27 35L27 34L26 34L26 33ZM43 35L43 36L44 36L44 35ZM49 35L49 37L47 37L47 38L46 38L46 39L49 39L49 37L50 37L50 35ZM11 36L11 37L13 37L13 39L14 39L14 40L15 40L15 38L14 38L14 36ZM26 36L26 38L27 38L27 36ZM39 36L39 37L38 37L38 38L39 38L39 39L40 39L40 36ZM8 38L8 39L9 39L9 41L10 41L10 42L11 42L11 40L12 40L12 38L11 38L11 40L10 40L10 39L9 39L9 38ZM6 39L6 40L7 40L7 41L6 41L6 42L8 42L8 40L7 40L7 39ZM3 41L3 42L2 42L2 43L3 43L3 42L4 42L4 41ZM36 41L36 43L37 43L37 42L38 42L38 43L39 43L39 42L38 42L38 41ZM23 42L23 43L22 43L22 44L21 44L21 45L20 45L20 46L19 46L19 48L20 48L20 47L21 47L21 45L22 45L22 46L23 46L23 45L22 45L22 44L23 44L23 43L24 43L24 42ZM45 43L45 44L47 44L47 43ZM14 44L14 46L15 46L15 44ZM37 44L37 52L38 52L38 51L39 51L39 50L40 50L40 49L41 49L41 48L40 48L40 49L39 49L39 47L42 47L42 49L43 49L43 47L44 47L44 45L43 45L43 44L42 44L42 45L43 45L43 46L41 46L41 44L40 44L40 46L39 46L39 47L38 47L38 44ZM25 45L25 48L28 48L28 45ZM45 45L45 48L48 48L48 45ZM26 46L26 47L27 47L27 46ZM46 46L46 47L47 47L47 46ZM25 49L25 50L26 50L26 49ZM27 49L27 51L29 51L29 50L28 50L28 49ZM38 49L38 50L39 50L39 49ZM44 50L44 51L43 51L43 52L44 52L44 51L45 51L45 50ZM9 51L9 52L10 52L10 51ZM51 51L51 53L52 53L52 52L53 52L53 51ZM15 52L15 53L17 53L17 52ZM18 52L18 53L19 53L19 52ZM0 0L0 7L7 7L7 0ZM1 1L1 6L6 6L6 1ZM2 2L2 5L5 5L5 2ZM46 0L46 7L53 7L53 0ZM47 1L47 6L52 6L52 1ZM48 2L48 5L51 5L51 2ZM0 46L0 53L7 53L7 46ZM1 47L1 52L6 52L6 47ZM2 48L2 51L5 51L5 48Z" fill="#000000"/></g></g></svg>
