<?xml version="1.0" encoding="UTF-8"?>
<svg xmlns="http://www.w3.org/2000/svg" version="1.1" width="100" height="100" viewBox="0 0 100 100"><rect x="0" y="0" width="100" height="100" fill="#ffffff"/><g transform="scale(1.887)"><g transform="translate(0,0)"><path fill-rule="evenodd" d="M8 0L8 2L11 2L11 3L9 3L9 4L8 4L8 9L7 9L7 8L5 8L5 9L4 9L4 12L3 12L3 11L2 11L2 10L3 10L3 8L0 8L0 11L1 11L1 12L0 12L0 13L1 13L1 12L2 12L2 14L0 14L0 16L1 16L1 17L0 17L0 19L1 19L1 18L3 18L3 20L1 20L1 21L0 21L0 24L1 24L1 21L2 21L2 22L3 22L3 23L4 23L4 24L2 24L2 26L1 26L1 25L0 25L0 26L1 26L1 30L2 30L2 29L5 29L5 30L3 30L3 32L2 32L2 31L0 31L0 35L3 35L3 37L4 37L4 36L5 36L5 37L7 37L7 36L5 36L5 34L4 34L4 31L5 31L5 33L7 33L7 34L6 34L6 35L8 35L8 33L9 33L9 36L8 36L8 38L9 38L9 37L10 37L10 39L9 39L9 40L10 40L10 41L9 41L9 44L10 44L10 45L8 45L8 44L6 44L6 45L8 45L8 46L10 46L10 48L9 48L9 47L8 47L8 48L9 48L9 49L10 49L10 53L11 53L11 51L12 51L12 50L11 50L11 49L10 49L10 48L11 48L11 47L12 47L12 48L13 48L13 49L14 49L14 50L13 50L13 51L14 51L14 50L15 50L15 52L14 52L14 53L15 53L15 52L18 52L18 53L19 53L19 52L18 52L18 51L19 51L19 50L18 50L18 49L19 49L19 48L20 48L20 49L21 49L21 48L20 48L20 47L19 47L19 46L20 46L20 44L22 44L22 46L23 46L23 47L22 47L22 48L23 48L23 51L24 51L24 49L25 49L25 50L26 50L26 49L29 49L29 50L28 50L28 51L29 51L29 50L30 50L30 51L32 51L32 53L34 53L34 52L35 52L35 51L36 51L36 53L39 53L39 52L38 52L38 51L40 51L40 53L41 53L41 52L42 52L42 53L43 53L43 50L44 50L44 51L45 51L45 52L44 52L44 53L45 53L45 52L46 52L46 51L47 51L47 49L48 49L48 51L49 51L49 53L51 53L51 52L50 52L50 51L51 51L51 49L53 49L53 45L52 45L52 44L50 44L50 43L49 43L49 42L48 42L48 41L50 41L50 42L51 42L51 41L52 41L52 43L53 43L53 41L52 41L52 39L53 39L53 38L52 38L52 39L51 39L51 40L50 40L50 33L49 33L49 34L48 34L48 33L47 33L47 34L46 34L46 35L44 35L44 36L42 36L42 35L43 35L43 34L42 34L42 33L46 33L46 31L49 31L49 30L48 30L48 29L50 29L50 31L51 31L51 32L52 32L52 31L53 31L53 30L52 30L52 31L51 31L51 29L52 29L52 27L53 27L53 26L52 26L52 27L51 27L51 26L50 26L50 25L51 25L51 24L50 24L50 23L51 23L51 21L52 21L52 20L53 20L53 12L50 12L50 11L51 11L51 9L52 9L52 11L53 11L53 8L51 8L51 9L49 9L49 8L45 8L45 10L44 10L44 9L43 9L43 10L44 10L44 11L45 11L45 12L46 12L46 9L47 9L47 10L48 10L48 11L49 11L49 12L48 12L48 13L47 13L47 14L46 14L46 13L45 13L45 14L46 14L46 15L44 15L44 12L43 12L43 11L42 11L42 9L41 9L41 8L40 8L40 9L39 9L39 6L40 6L40 7L41 7L41 6L40 6L40 5L41 5L41 4L42 4L42 7L43 7L43 8L44 8L44 7L45 7L45 6L44 6L44 7L43 7L43 3L44 3L44 4L45 4L45 3L44 3L44 1L43 1L43 0L38 0L38 1L37 1L37 2L36 2L36 3L34 3L34 2L33 2L33 3L34 3L34 5L32 5L32 1L33 1L33 0L30 0L30 1L29 1L29 0L27 0L27 2L26 2L26 0L23 0L23 1L24 1L24 2L23 2L23 3L24 3L24 2L26 2L26 4L24 4L24 8L22 8L22 7L23 7L23 5L22 5L22 3L21 3L21 2L22 2L22 1L21 1L21 0L18 0L18 3L16 3L16 9L17 9L17 6L18 6L18 8L19 8L19 11L18 11L18 10L16 10L16 11L18 11L18 14L16 14L16 13L17 13L17 12L16 12L16 13L15 13L15 12L14 12L14 11L13 11L13 10L14 10L14 9L15 9L15 8L14 8L14 7L15 7L15 6L14 6L14 7L13 7L13 5L15 5L15 4L14 4L14 3L15 3L15 0L12 0L12 1L13 1L13 2L14 2L14 3L12 3L12 2L11 2L11 0ZM34 0L34 1L36 1L36 0ZM16 1L16 2L17 2L17 1ZM20 1L20 2L21 2L21 1ZM28 1L28 2L27 2L27 3L29 3L29 7L30 7L30 11L29 11L29 12L30 12L30 15L29 15L29 17L30 17L30 19L28 19L28 18L27 18L27 17L26 17L26 16L27 16L27 15L28 15L28 14L29 14L29 13L27 13L27 11L28 11L28 10L29 10L29 9L26 9L26 10L25 10L25 11L24 11L24 12L23 12L23 11L22 11L22 10L24 10L24 9L21 9L21 10L20 10L20 11L21 11L21 12L20 12L20 16L19 16L19 15L18 15L18 16L19 16L19 17L18 17L18 18L16 18L16 19L19 19L19 20L22 20L22 19L23 19L23 17L24 17L24 20L23 20L23 22L24 22L24 20L25 20L25 22L26 22L26 24L29 24L29 25L30 25L30 27L29 27L29 28L30 28L30 30L29 30L29 31L28 31L28 32L27 32L27 31L26 31L26 29L25 29L25 34L26 34L26 35L24 35L24 39L22 39L22 40L23 40L23 41L22 41L22 44L24 44L24 43L25 43L25 44L26 44L26 43L27 43L27 42L26 42L26 39L25 39L25 37L26 37L26 38L27 38L27 39L28 39L28 40L27 40L27 41L28 41L28 40L29 40L29 37L30 37L30 38L31 38L31 39L32 39L32 40L31 40L31 41L30 41L30 42L31 42L31 45L30 45L30 43L28 43L28 44L29 44L29 47L30 47L30 48L31 48L31 49L30 49L30 50L31 50L31 49L32 49L32 51L33 51L33 52L34 52L34 51L35 51L35 49L36 49L36 51L37 51L37 49L38 49L38 50L40 50L40 51L42 51L42 50L43 50L43 47L44 47L44 46L43 46L43 45L42 45L42 42L43 42L43 41L42 41L42 42L40 42L40 40L42 40L42 39L43 39L43 37L42 37L42 39L41 39L41 37L40 37L40 35L42 35L42 34L41 34L41 33L40 33L40 32L42 32L42 31L43 31L43 32L44 32L44 31L43 31L43 29L44 29L44 30L45 30L45 31L46 31L46 30L47 30L47 29L46 29L46 30L45 30L45 29L44 29L44 24L43 24L43 23L44 23L44 22L45 22L45 24L47 24L47 22L48 22L48 24L49 24L49 23L50 23L50 21L49 21L49 22L48 22L48 20L49 20L49 19L50 19L50 20L52 20L52 18L51 18L51 19L50 19L50 18L49 18L49 17L48 17L48 16L49 16L49 14L47 14L47 15L48 15L48 16L47 16L47 17L46 17L46 18L45 18L45 16L44 16L44 15L41 15L41 13L40 13L40 12L41 12L41 9L40 9L40 12L38 12L38 14L37 14L37 13L36 13L36 15L34 15L34 14L35 14L35 13L34 13L34 14L32 14L32 12L33 12L33 11L34 11L34 12L35 12L35 11L34 11L34 10L36 10L36 11L39 11L39 9L38 9L38 6L39 6L39 5L40 5L40 4L41 4L41 2L42 2L42 3L43 3L43 2L42 2L42 1L41 1L41 2L40 2L40 1L38 1L38 2L37 2L37 3L36 3L36 4L35 4L35 5L34 5L34 6L33 6L33 7L32 7L32 6L31 6L31 5L30 5L30 3L31 3L31 1L30 1L30 3L29 3L29 1ZM38 2L38 3L37 3L37 4L36 4L36 5L37 5L37 4L38 4L38 5L39 5L39 4L40 4L40 3L39 3L39 2ZM18 3L18 5L19 5L19 8L20 8L20 4L21 4L21 3ZM10 4L10 5L9 5L9 7L10 7L10 8L11 8L11 7L12 7L12 8L13 8L13 7L12 7L12 5L13 5L13 4ZM10 5L10 7L11 7L11 5ZM21 5L21 7L22 7L22 5ZM25 5L25 8L28 8L28 5ZM26 6L26 7L27 7L27 6ZM30 6L30 7L31 7L31 6ZM34 6L34 8L32 8L32 10L31 10L31 11L33 11L33 10L34 10L34 9L35 9L35 6ZM36 6L36 9L37 9L37 6ZM5 9L5 12L4 12L4 13L6 13L6 14L7 14L7 13L6 13L6 12L7 12L7 11L6 11L6 10L7 10L7 9ZM8 9L8 12L9 12L9 13L8 13L8 14L9 14L9 16L8 16L8 15L5 15L5 14L3 14L3 16L2 16L2 15L1 15L1 16L2 16L2 17L3 17L3 18L8 18L8 19L9 19L9 20L8 20L8 21L6 21L6 22L8 22L8 23L6 23L6 24L9 24L9 25L11 25L11 27L9 27L9 28L12 28L12 26L13 26L13 27L14 27L14 28L13 28L13 29L12 29L12 30L13 30L13 32L12 32L12 31L11 31L11 30L10 30L10 32L9 32L9 33L10 33L10 34L13 34L13 38L15 38L15 37L14 37L14 36L15 36L15 35L14 35L14 34L15 34L15 32L14 32L14 31L15 31L15 29L16 29L16 30L19 30L19 29L20 29L20 31L18 31L18 32L19 32L19 33L18 33L18 34L16 34L16 35L17 35L17 37L16 37L16 39L17 39L17 41L16 41L16 40L15 40L15 39L14 39L14 40L15 40L15 41L14 41L14 45L12 45L12 44L11 44L11 43L12 43L12 42L13 42L13 41L12 41L12 42L11 42L11 43L10 43L10 44L11 44L11 45L12 45L12 47L13 47L13 48L16 48L16 47L17 47L17 46L19 46L19 45L18 45L18 44L17 44L17 43L18 43L18 42L19 42L19 40L20 40L20 38L23 38L23 37L22 37L22 36L23 36L23 32L22 32L22 31L23 31L23 30L24 30L24 29L23 29L23 30L21 30L21 29L20 29L20 28L19 28L19 24L18 24L18 23L20 23L20 24L21 24L21 21L20 21L20 22L18 22L18 20L16 20L16 23L14 23L14 24L15 24L15 25L14 25L14 26L13 26L13 25L11 25L11 24L13 24L13 22L15 22L15 21L14 21L14 20L15 20L15 19L14 19L14 18L15 18L15 16L16 16L16 14L12 14L12 13L10 13L10 12L11 12L11 10L12 10L12 9L10 9L10 10L9 10L9 9ZM48 9L48 10L49 10L49 11L50 11L50 10L49 10L49 9ZM25 11L25 12L24 12L24 14L23 14L23 12L22 12L22 13L21 13L21 14L23 14L23 15L22 15L22 16L24 16L24 17L25 17L25 20L26 20L26 21L27 21L27 23L29 23L29 22L30 22L30 23L32 23L32 26L33 26L33 27L32 27L32 29L33 29L33 30L32 30L32 31L34 31L34 33L33 33L33 32L32 32L32 33L31 33L31 34L32 34L32 35L31 35L31 36L32 36L32 38L33 38L33 39L34 39L34 40L32 40L32 41L31 41L31 42L33 42L33 44L32 44L32 45L31 45L31 47L32 47L32 45L33 45L33 48L32 48L32 49L33 49L33 51L34 51L34 49L33 49L33 48L36 48L36 49L37 49L37 47L35 47L35 46L34 46L34 45L33 45L33 44L34 44L34 40L35 40L35 38L34 38L34 36L36 36L36 37L37 37L37 38L38 38L38 39L39 39L39 38L38 38L38 37L39 37L39 36L38 36L38 35L40 35L40 34L38 34L38 33L39 33L39 32L40 32L40 31L38 31L38 33L37 33L37 31L36 31L36 29L37 29L37 28L38 28L38 29L39 29L39 28L40 28L40 29L41 29L41 31L42 31L42 29L43 29L43 28L42 28L42 25L43 25L43 24L42 24L42 23L43 23L43 22L44 22L44 19L43 19L43 18L42 18L42 17L41 17L41 15L39 15L39 14L40 14L40 13L39 13L39 14L38 14L38 15L39 15L39 16L38 16L38 17L37 17L37 15L36 15L36 18L35 18L35 20L36 20L36 22L35 22L35 23L34 23L34 20L33 20L33 19L34 19L34 15L33 15L33 16L32 16L32 14L31 14L31 15L30 15L30 17L31 17L31 19L30 19L30 21L28 21L28 19L27 19L27 18L26 18L26 17L25 17L25 16L26 16L26 14L27 14L27 13L25 13L25 12L26 12L26 11ZM42 13L42 14L43 14L43 13ZM50 13L50 14L51 14L51 15L50 15L50 17L52 17L52 13ZM10 14L10 15L11 15L11 17L10 17L10 16L9 16L9 19L11 19L11 21L12 21L12 16L13 16L13 15L11 15L11 14ZM24 14L24 16L25 16L25 14ZM4 15L4 17L5 17L5 15ZM14 15L14 16L15 16L15 15ZM6 16L6 17L7 17L7 16ZM20 16L20 17L21 17L21 16ZM31 16L31 17L32 17L32 16ZM38 17L38 18L41 18L41 19L42 19L42 18L41 18L41 17ZM47 17L47 19L49 19L49 18L48 18L48 17ZM20 18L20 19L22 19L22 18ZM32 18L32 19L33 19L33 18ZM36 18L36 20L37 20L37 18ZM4 19L4 20L5 20L5 19ZM6 19L6 20L7 20L7 19ZM13 19L13 20L14 20L14 19ZM26 19L26 20L27 20L27 19ZM38 19L38 20L39 20L39 21L38 21L38 22L39 22L39 21L40 21L40 23L42 23L42 22L43 22L43 20L42 20L42 22L41 22L41 21L40 21L40 19ZM45 19L45 20L46 20L46 21L45 21L45 22L46 22L46 21L47 21L47 20L46 20L46 19ZM9 20L9 21L8 21L8 22L9 22L9 21L10 21L10 20ZM31 20L31 21L30 21L30 22L31 22L31 21L32 21L32 20ZM3 21L3 22L5 22L5 21ZM11 22L11 23L12 23L12 22ZM36 22L36 24L35 24L35 25L34 25L34 26L35 26L35 29L34 29L34 30L35 30L35 29L36 29L36 27L39 27L39 25L38 25L38 24L39 24L39 23L38 23L38 24L37 24L37 22ZM52 22L52 23L53 23L53 22ZM16 23L16 25L17 25L17 23ZM22 23L22 24L23 24L23 23ZM24 23L24 24L25 24L25 23ZM36 24L36 26L37 26L37 24ZM52 24L52 25L53 25L53 24ZM5 25L5 28L8 28L8 25ZM22 25L22 26L23 26L23 27L21 27L21 26L20 26L20 27L21 27L21 28L24 28L24 25ZM25 25L25 28L28 28L28 25ZM45 25L45 28L48 28L48 25ZM2 26L2 27L4 27L4 26ZM6 26L6 27L7 27L7 26ZM16 26L16 27L17 27L17 28L16 28L16 29L17 29L17 28L18 28L18 29L19 29L19 28L18 28L18 26ZM26 26L26 27L27 27L27 26ZM46 26L46 27L47 27L47 26ZM30 27L30 28L31 28L31 27ZM40 27L40 28L41 28L41 27ZM50 27L50 28L51 28L51 27ZM14 28L14 29L13 29L13 30L14 30L14 29L15 29L15 28ZM6 29L6 30L5 30L5 31L6 31L6 32L8 32L8 29ZM27 29L27 30L28 30L28 29ZM6 30L6 31L7 31L7 30ZM30 30L30 31L29 31L29 32L28 32L28 34L27 34L27 32L26 32L26 34L27 34L27 36L26 36L26 37L27 37L27 38L28 38L28 37L29 37L29 36L30 36L30 32L31 32L31 30ZM16 31L16 32L17 32L17 31ZM35 31L35 33L34 33L34 35L35 35L35 33L36 33L36 36L37 36L37 35L38 35L38 34L37 34L37 33L36 33L36 31ZM11 32L11 33L12 33L12 32ZM20 32L20 33L21 33L21 32ZM2 33L2 34L3 34L3 35L4 35L4 34L3 34L3 33ZM51 33L51 34L52 34L52 35L51 35L51 36L52 36L52 37L53 37L53 36L52 36L52 35L53 35L53 33ZM20 34L20 35L21 35L21 36L22 36L22 34ZM28 34L28 36L27 36L27 37L28 37L28 36L29 36L29 34ZM47 34L47 35L46 35L46 36L45 36L45 37L46 37L46 36L47 36L47 38L49 38L49 35L48 35L48 34ZM18 35L18 37L17 37L17 38L18 38L18 37L19 37L19 38L20 38L20 36L19 36L19 35ZM32 35L32 36L33 36L33 35ZM47 35L47 36L48 36L48 35ZM0 36L0 39L2 39L2 40L1 40L1 41L0 41L0 43L1 43L1 44L3 44L3 45L4 45L4 44L3 44L3 43L7 43L7 42L8 42L8 41L7 41L7 40L8 40L8 39L7 39L7 38L6 38L6 39L7 39L7 40L6 40L6 41L5 41L5 42L4 42L4 41L3 41L3 39L5 39L5 38L2 38L2 37L1 37L1 36ZM10 36L10 37L12 37L12 36ZM11 38L11 40L13 40L13 39L12 39L12 38ZM45 38L45 40L46 40L46 42L44 42L44 43L46 43L46 44L47 44L47 43L46 43L46 42L47 42L47 40L48 40L48 39L47 39L47 40L46 40L46 38ZM18 39L18 40L19 40L19 39ZM36 40L36 41L35 41L35 43L36 43L36 45L37 45L37 46L38 46L38 47L40 47L40 46L41 46L41 48L40 48L40 49L41 49L41 50L42 50L42 47L43 47L43 46L42 46L42 45L41 45L41 43L40 43L40 46L38 46L38 44L39 44L39 42L38 42L38 41L39 41L39 40ZM2 41L2 43L3 43L3 41ZM6 41L6 42L7 42L7 41ZM23 41L23 43L24 43L24 42L25 42L25 43L26 43L26 42L25 42L25 41ZM16 42L16 43L17 43L17 42ZM20 42L20 43L21 43L21 42ZM37 42L37 44L38 44L38 42ZM48 43L48 44L49 44L49 43ZM15 44L15 46L13 46L13 47L16 47L16 45L17 45L17 44ZM23 45L23 46L24 46L24 45ZM25 45L25 48L28 48L28 45ZM45 45L45 48L48 48L48 45ZM49 45L49 47L50 47L50 49L51 49L51 48L52 48L52 45L51 45L51 47L50 47L50 45ZM26 46L26 47L27 47L27 46ZM46 46L46 47L47 47L47 46ZM18 47L18 48L19 48L19 47ZM44 49L44 50L45 50L45 51L46 51L46 50L45 50L45 49ZM8 50L8 53L9 53L9 50ZM16 50L16 51L18 51L18 50ZM20 50L20 51L21 51L21 52L22 52L22 53L23 53L23 52L22 52L22 50ZM49 50L49 51L50 51L50 50ZM25 51L25 52L24 52L24 53L26 53L26 52L27 52L27 51ZM28 52L28 53L29 53L29 52ZM30 52L30 53L31 53L31 52ZM52 52L52 53L53 53L53 52ZM0 0L0 7L7 7L7 0ZM1 1L1 6L6 6L6 1ZM2 2L2 5L5 5L5 2ZM46 0L46 7L53 7L53 0ZM47 1L47 6L52 6L52 1ZM48 2L48 5L51 5L51 2ZM0 46L0 53L7 53L7 46ZM1 47L1 52L6 52L6 47ZM2 48L2 51L5 51L5 48Z" fill="#000000"/></g></g></svg>
