<?xml version="1.0" encoding="UTF-8"?>
<svg xmlns="http://www.w3.org/2000/svg" version="1.1" width="100" height="100" viewBox="0 0 100 100"><rect x="0" y="0" width="100" height="100" fill="#ffffff"/><g transform="scale(1.887)"><g transform="translate(0,0)"><path fill-rule="evenodd" d="M8 0L8 2L9 2L9 3L11 3L11 4L8 4L8 11L7 11L7 10L5 10L5 9L7 9L7 8L5 8L5 9L4 9L4 10L1 10L1 12L0 12L0 13L1 13L1 12L2 12L2 11L3 11L3 13L2 13L2 14L1 14L1 15L3 15L3 17L1 17L1 16L0 16L0 18L1 18L1 19L0 19L0 33L1 33L1 34L2 34L2 37L1 37L1 35L0 35L0 38L1 38L1 39L0 39L0 43L1 43L1 44L3 44L3 45L4 45L4 44L3 44L3 43L7 43L7 44L6 44L6 45L8 45L8 46L10 46L10 47L11 47L11 49L10 49L10 48L9 48L9 47L8 47L8 48L9 48L9 49L10 49L10 50L8 50L8 53L11 53L11 51L10 51L10 50L12 50L12 51L13 51L13 52L14 52L14 53L16 53L16 52L17 52L17 51L18 51L18 53L19 53L19 51L18 51L18 49L19 49L19 48L20 48L20 49L21 49L21 48L20 48L20 47L19 47L19 46L20 46L20 44L22 44L22 46L23 46L23 47L22 47L22 48L23 48L23 51L24 51L24 53L27 53L27 52L26 52L26 51L24 51L24 49L25 49L25 50L26 50L26 49L28 49L28 51L29 51L29 52L28 52L28 53L29 53L29 52L30 52L30 53L33 53L33 52L34 52L34 53L35 53L35 52L36 52L36 53L39 53L39 52L40 52L40 53L41 53L41 52L42 52L42 53L43 53L43 50L42 50L42 49L41 49L41 48L40 48L40 46L41 46L41 47L44 47L44 49L47 49L47 50L48 50L48 51L49 51L49 52L50 52L50 51L51 51L51 49L50 49L50 47L51 47L51 48L52 48L52 47L53 47L53 45L52 45L52 44L50 44L50 43L51 43L51 42L49 42L49 43L48 43L48 41L52 41L52 43L53 43L53 41L52 41L52 40L53 40L53 38L52 38L52 40L50 40L50 37L49 37L49 34L48 34L48 33L47 33L47 32L48 32L48 31L49 31L49 30L48 30L48 29L49 29L49 28L50 28L50 31L51 31L51 32L53 32L53 30L52 30L52 27L53 27L53 26L52 26L52 27L51 27L51 28L50 28L50 27L49 27L49 26L50 26L50 25L51 25L51 24L50 24L50 23L51 23L51 21L52 21L52 20L53 20L53 16L52 16L52 15L53 15L53 12L50 12L50 11L51 11L51 10L50 10L50 11L48 11L48 10L49 10L49 8L43 8L43 3L44 3L44 4L45 4L45 3L44 3L44 1L43 1L43 0L38 0L38 1L41 1L41 3L42 3L42 5L41 5L41 6L40 6L40 7L39 7L39 6L38 6L38 7L37 7L37 4L36 4L36 3L38 3L38 2L35 2L35 4L34 4L34 3L33 3L33 4L32 4L32 3L30 3L30 2L31 2L31 0L28 0L28 1L27 1L27 2L26 2L26 0L23 0L23 1L22 1L22 3L21 3L21 2L20 2L20 1L21 1L21 0L18 0L18 3L16 3L16 5L15 5L15 6L14 6L14 7L13 7L13 5L14 5L14 2L15 2L15 0L13 0L13 1L14 1L14 2L13 2L13 3L12 3L12 2L9 2L9 1L10 1L10 0ZM11 0L11 1L12 1L12 0ZM34 0L34 1L36 1L36 0ZM16 1L16 2L17 2L17 1ZM23 1L23 2L24 2L24 4L23 4L23 3L22 3L22 4L21 4L21 3L18 3L18 5L19 5L19 8L18 8L18 6L17 6L17 5L16 5L16 6L15 6L15 7L14 7L14 8L15 8L15 9L14 9L14 10L11 10L11 9L12 9L12 8L13 8L13 7L12 7L12 5L13 5L13 4L11 4L11 5L9 5L9 11L8 11L8 13L9 13L9 15L8 15L8 14L7 14L7 13L6 13L6 12L7 12L7 11L5 11L5 10L4 10L4 12L5 12L5 13L3 13L3 15L4 15L4 17L3 17L3 18L2 18L2 21L1 21L1 23L3 23L3 25L2 25L2 27L1 27L1 29L2 29L2 30L1 30L1 33L2 33L2 34L4 34L4 35L5 35L5 37L3 37L3 38L5 38L5 37L6 37L6 38L7 38L7 37L6 37L6 36L10 36L10 35L11 35L11 34L10 34L10 33L13 33L13 34L12 34L12 35L13 35L13 38L15 38L15 37L16 37L16 39L17 39L17 41L16 41L16 40L15 40L15 39L14 39L14 40L15 40L15 41L14 41L14 42L13 42L13 41L12 41L12 40L13 40L13 39L10 39L10 40L9 40L9 41L8 41L8 40L7 40L7 39L5 39L5 40L7 40L7 41L6 41L6 42L7 42L7 41L8 41L8 42L9 42L9 43L8 43L8 45L11 45L11 46L12 46L12 48L13 48L13 46L14 46L14 49L12 49L12 50L13 50L13 51L15 51L15 48L16 48L16 47L17 47L17 46L19 46L19 45L18 45L18 44L17 44L17 43L18 43L18 42L19 42L19 40L20 40L20 38L23 38L23 37L22 37L22 36L23 36L23 34L24 34L24 33L26 33L26 35L24 35L24 39L22 39L22 40L23 40L23 41L22 41L22 44L23 44L23 46L24 46L24 44L26 44L26 43L27 43L27 44L29 44L29 43L30 43L30 47L29 47L29 48L30 48L30 50L29 50L29 51L30 51L30 50L31 50L31 49L32 49L32 51L33 51L33 49L34 49L34 51L35 51L35 49L36 49L36 52L37 52L37 49L38 49L38 50L39 50L39 51L38 51L38 52L39 52L39 51L40 51L40 48L39 48L39 47L37 47L37 45L38 45L38 46L40 46L40 40L39 40L39 39L35 39L35 37L36 37L36 36L38 36L38 38L40 38L40 39L41 39L41 40L42 40L42 39L43 39L43 36L44 36L44 35L46 35L46 36L48 36L48 34L47 34L47 33L46 33L46 32L47 32L47 31L46 31L46 30L47 30L47 29L46 29L46 30L45 30L45 29L44 29L44 26L43 26L43 25L44 25L44 22L45 22L45 24L46 24L46 23L47 23L47 22L48 22L48 24L49 24L49 23L50 23L50 20L52 20L52 18L51 18L51 19L50 19L50 18L48 18L48 16L47 16L47 15L46 15L46 18L48 18L48 20L47 20L47 19L46 19L46 20L45 20L45 21L44 21L44 18L45 18L45 13L46 13L46 14L48 14L48 15L49 15L49 14L48 14L48 11L47 11L47 13L46 13L46 12L45 12L45 13L44 13L44 10L45 10L45 11L46 11L46 10L48 10L48 9L46 9L46 10L45 10L45 9L44 9L44 10L43 10L43 8L42 8L42 6L41 6L41 9L40 9L40 10L39 10L39 9L38 9L38 8L37 8L37 9L36 9L36 4L35 4L35 9L34 9L34 10L33 10L33 9L32 9L32 8L34 8L34 4L33 4L33 7L32 7L32 6L31 6L31 9L30 9L30 3L29 3L29 1L28 1L28 4L29 4L29 9L26 9L26 10L25 10L25 11L24 11L24 12L23 12L23 11L22 11L22 10L24 10L24 9L21 9L21 10L20 10L20 11L22 11L22 12L20 12L20 16L19 16L19 15L18 15L18 16L19 16L19 17L18 17L18 18L16 18L16 19L19 19L19 20L23 20L23 22L24 22L24 24L23 24L23 23L22 23L22 24L23 24L23 25L22 25L22 26L23 26L23 27L21 27L21 26L20 26L20 27L21 27L21 28L24 28L24 24L25 24L25 22L26 22L26 24L27 24L27 23L28 23L28 24L29 24L29 25L30 25L30 26L29 26L29 27L30 27L30 26L31 26L31 25L32 25L32 24L31 24L31 23L30 23L30 24L29 24L29 23L28 23L28 22L27 22L27 19L28 19L28 21L30 21L30 22L31 22L31 21L30 21L30 18L32 18L32 19L33 19L33 20L34 20L34 23L36 23L36 24L35 24L35 25L34 25L34 26L35 26L35 27L36 27L36 28L34 28L34 27L31 27L31 28L29 28L29 29L28 29L28 30L29 30L29 31L28 31L28 32L27 32L27 30L26 30L26 29L25 29L25 30L26 30L26 31L25 31L25 32L24 32L24 33L23 33L23 32L22 32L22 31L23 31L23 30L24 30L24 29L23 29L23 30L21 30L21 29L20 29L20 28L19 28L19 24L18 24L18 23L20 23L20 24L21 24L21 21L20 21L20 22L18 22L18 20L15 20L15 19L14 19L14 20L13 20L13 21L14 21L14 22L15 22L15 23L14 23L14 24L15 24L15 25L14 25L14 28L16 28L16 30L19 30L19 29L20 29L20 31L18 31L18 32L19 32L19 33L18 33L18 34L16 34L16 35L18 35L18 36L17 36L17 37L16 37L16 36L15 36L15 37L14 37L14 35L13 35L13 34L15 34L15 32L14 32L14 31L15 31L15 30L13 30L13 29L12 29L12 28L11 28L11 29L10 29L10 28L9 28L9 30L8 30L8 31L5 31L5 30L7 30L7 29L4 29L4 32L5 32L5 34L4 34L4 33L3 33L3 32L2 32L2 30L3 30L3 29L2 29L2 27L3 27L3 28L4 28L4 27L3 27L3 26L4 26L4 24L7 24L7 23L6 23L6 22L8 22L8 20L9 20L9 19L10 19L10 20L11 20L11 21L9 21L9 23L8 23L8 24L9 24L9 27L10 27L10 26L11 26L11 25L10 25L10 24L9 24L9 23L11 23L11 24L12 24L12 27L13 27L13 23L11 23L11 21L12 21L12 20L11 20L11 18L10 18L10 17L8 17L8 16L10 16L10 15L11 15L11 14L10 14L10 12L9 12L9 11L12 11L12 13L13 13L13 11L14 11L14 10L15 10L15 13L16 13L16 14L18 14L18 11L19 11L19 8L20 8L20 4L21 4L21 7L22 7L22 8L24 8L24 4L26 4L26 2L24 2L24 1ZM39 2L39 4L38 4L38 5L40 5L40 2ZM42 2L42 3L43 3L43 2ZM22 4L22 7L23 7L23 4ZM31 4L31 5L32 5L32 4ZM25 5L25 8L28 8L28 5ZM10 6L10 7L11 7L11 8L12 8L12 7L11 7L11 6ZM16 6L16 9L17 9L17 6ZM26 6L26 7L27 7L27 6ZM44 6L44 7L45 7L45 6ZM0 8L0 9L3 9L3 8ZM51 8L51 9L52 9L52 11L53 11L53 8ZM29 9L29 10L28 10L28 11L27 11L27 10L26 10L26 11L27 11L27 13L25 13L25 12L24 12L24 14L23 14L23 15L22 15L22 16L23 16L23 17L24 17L24 18L22 18L22 19L23 19L23 20L24 20L24 22L25 22L25 21L26 21L26 19L27 19L27 18L28 18L28 19L29 19L29 18L30 18L30 16L29 16L29 17L28 17L28 16L26 16L26 14L28 14L28 15L29 15L29 14L30 14L30 13L29 13L29 10L30 10L30 12L31 12L31 10L32 10L32 11L33 11L33 10L32 10L32 9L31 9L31 10L30 10L30 9ZM41 9L41 10L40 10L40 11L41 11L41 12L40 12L40 14L38 14L38 13L37 13L37 12L39 12L39 11L36 11L36 10L34 10L34 12L32 12L32 14L31 14L31 15L32 15L32 17L33 17L33 19L34 19L34 20L36 20L36 21L37 21L37 22L36 22L36 23L37 23L37 24L36 24L36 26L37 26L37 24L38 24L38 25L39 25L39 24L38 24L38 23L40 23L40 26L39 26L39 28L38 28L38 27L37 27L37 28L36 28L36 29L35 29L35 30L34 30L34 29L33 29L33 28L32 28L32 29L31 29L31 30L30 30L30 29L29 29L29 30L30 30L30 31L29 31L29 34L28 34L28 35L27 35L27 36L26 36L26 37L25 37L25 38L26 38L26 39L25 39L25 40L26 40L26 41L24 41L24 42L23 42L23 43L26 43L26 41L27 41L27 42L30 42L30 41L31 41L31 40L32 40L32 41L33 41L33 43L34 43L34 44L32 44L32 43L31 43L31 44L32 44L32 45L33 45L33 46L31 46L31 47L33 47L33 48L32 48L32 49L33 49L33 48L36 48L36 49L37 49L37 47L36 47L36 45L37 45L37 44L38 44L38 45L39 45L39 42L38 42L38 41L39 41L39 40L36 40L36 41L35 41L35 43L34 43L34 40L35 40L35 39L34 39L34 36L35 36L35 35L36 35L36 33L37 33L37 34L38 34L38 36L39 36L39 34L38 34L38 33L39 33L39 32L40 32L40 37L41 37L41 35L43 35L43 34L42 34L42 32L43 32L43 33L44 33L44 32L46 32L46 31L44 31L44 30L43 30L43 31L42 31L42 29L43 29L43 28L42 28L42 27L43 27L43 26L42 26L42 25L43 25L43 24L42 24L42 23L43 23L43 22L44 22L44 21L43 21L43 22L42 22L42 20L43 20L43 18L42 18L42 17L43 17L43 16L44 16L44 15L43 15L43 14L44 14L44 13L43 13L43 12L42 12L42 11L43 11L43 10L42 10L42 9ZM16 10L16 11L18 11L18 10ZM41 10L41 11L42 11L42 10ZM35 11L35 12L34 12L34 14L33 14L33 15L34 15L34 19L35 19L35 18L36 18L36 20L37 20L37 18L36 18L36 15L34 15L34 14L36 14L36 11ZM16 12L16 13L17 13L17 12ZM22 12L22 13L21 13L21 14L22 14L22 13L23 13L23 12ZM41 12L41 13L42 13L42 14L40 14L40 16L39 16L39 15L37 15L37 16L39 16L39 17L38 17L38 18L39 18L39 19L38 19L38 20L39 20L39 21L38 21L38 22L37 22L37 23L38 23L38 22L40 22L40 23L42 23L42 22L40 22L40 19L41 19L41 20L42 20L42 18L40 18L40 16L41 16L41 15L42 15L42 16L43 16L43 15L42 15L42 14L43 14L43 13L42 13L42 12ZM5 13L5 14L4 14L4 15L5 15L5 14L6 14L6 15L7 15L7 16L6 16L6 17L7 17L7 18L5 18L5 17L4 17L4 18L3 18L3 21L2 21L2 22L3 22L3 23L5 23L5 21L7 21L7 20L5 20L5 19L9 19L9 18L8 18L8 17L7 17L7 16L8 16L8 15L7 15L7 14L6 14L6 13ZM28 13L28 14L29 14L29 13ZM50 13L50 14L51 14L51 13ZM13 14L13 17L12 17L12 16L11 16L11 17L12 17L12 18L15 18L15 16L16 16L16 15L15 15L15 14ZM24 14L24 17L25 17L25 18L24 18L24 20L25 20L25 19L26 19L26 16L25 16L25 14ZM14 15L14 16L15 16L15 15ZM50 15L50 17L51 17L51 15ZM20 16L20 17L21 17L21 16ZM20 18L20 19L21 19L21 18ZM49 19L49 20L48 20L48 21L49 21L49 20L50 20L50 19ZM4 20L4 21L3 21L3 22L4 22L4 21L5 21L5 20ZM14 20L14 21L15 21L15 22L16 22L16 21L15 21L15 20ZM46 20L46 21L47 21L47 20ZM32 21L32 23L33 23L33 21ZM52 22L52 23L53 23L53 22ZM16 24L16 25L17 25L17 24ZM52 24L52 25L53 25L53 24ZM5 25L5 28L8 28L8 25ZM25 25L25 28L28 28L28 25ZM45 25L45 28L48 28L48 25ZM6 26L6 27L7 27L7 26ZM16 26L16 27L17 27L17 28L18 28L18 29L19 29L19 28L18 28L18 26ZM26 26L26 27L27 27L27 26ZM40 26L40 28L39 28L39 29L38 29L38 28L37 28L37 29L36 29L36 30L35 30L35 33L34 33L34 30L33 30L33 33L32 33L32 32L31 32L31 31L32 31L32 30L31 30L31 31L30 31L30 32L31 32L31 33L30 33L30 34L31 34L31 33L32 33L32 36L31 36L31 35L30 35L30 36L29 36L29 35L28 35L28 36L27 36L27 37L26 37L26 38L29 38L29 37L30 37L30 38L31 38L31 37L32 37L32 39L33 39L33 40L34 40L34 39L33 39L33 37L32 37L32 36L34 36L34 35L35 35L35 33L36 33L36 31L37 31L37 33L38 33L38 31L40 31L40 32L41 32L41 29L40 29L40 28L41 28L41 26ZM46 26L46 27L47 27L47 26ZM37 29L37 30L38 30L38 29ZM10 30L10 31L9 31L9 32L8 32L8 34L9 34L9 35L10 35L10 34L9 34L9 33L10 33L10 32L13 32L13 30ZM51 30L51 31L52 31L52 30ZM16 31L16 32L17 32L17 31ZM43 31L43 32L44 32L44 31ZM6 32L6 33L7 33L7 32ZM20 32L20 33L21 33L21 32ZM26 32L26 33L27 33L27 32ZM33 33L33 35L34 35L34 33ZM51 33L51 34L50 34L50 35L51 35L51 36L52 36L52 37L53 37L53 36L52 36L52 35L53 35L53 33ZM5 34L5 35L7 35L7 34ZM20 34L20 35L21 35L21 36L22 36L22 34ZM46 34L46 35L47 35L47 34ZM51 34L51 35L52 35L52 34ZM18 36L18 37L19 37L19 38L20 38L20 36ZM28 36L28 37L29 37L29 36ZM11 37L11 38L12 38L12 37ZM46 37L46 38L47 38L47 37ZM48 37L48 39L47 39L47 40L46 40L46 41L44 41L44 42L43 42L43 41L42 41L42 42L41 42L41 43L42 43L42 44L41 44L41 45L42 45L42 46L43 46L43 45L42 45L42 44L43 44L43 43L44 43L44 44L45 44L45 43L46 43L46 44L48 44L48 43L46 43L46 41L47 41L47 40L48 40L48 39L49 39L49 37ZM8 38L8 39L9 39L9 38ZM18 39L18 40L19 40L19 39ZM26 39L26 40L27 40L27 41L28 41L28 40L29 40L29 41L30 41L30 39L28 39L28 40L27 40L27 39ZM3 41L3 42L2 42L2 43L3 43L3 42L5 42L5 41ZM9 41L9 42L10 42L10 41ZM11 42L11 43L9 43L9 44L11 44L11 45L12 45L12 46L13 46L13 43L12 43L12 42ZM16 42L16 43L17 43L17 42ZM20 42L20 43L21 43L21 42ZM37 42L37 43L38 43L38 42ZM42 42L42 43L43 43L43 42ZM15 44L15 45L14 45L14 46L16 46L16 45L17 45L17 44ZM34 44L34 46L35 46L35 44ZM49 44L49 47L50 47L50 44ZM25 45L25 48L28 48L28 45ZM45 45L45 48L48 48L48 45ZM26 46L26 47L27 47L27 46ZM46 46L46 47L47 47L47 46ZM51 46L51 47L52 47L52 46ZM18 47L18 48L19 48L19 47ZM48 49L48 50L49 50L49 51L50 51L50 49ZM16 50L16 51L17 51L17 50ZM20 50L20 51L21 51L21 52L22 52L22 53L23 53L23 52L22 52L22 50ZM44 50L44 51L46 51L46 50ZM44 52L44 53L45 53L45 52ZM52 52L52 53L53 53L53 52ZM0 0L0 7L7 7L7 0ZM1 1L1 6L6 6L6 1ZM2 2L2 5L5 5L5 2ZM46 0L46 7L53 7L53 0ZM47 1L47 6L52 6L52 1ZM48 2L48 5L51 5L51 2ZM0 46L0 53L7 53L7 46ZM1 47L1 52L6 52L6 47ZM2 48L2 51L5 51L5 48Z" fill="#000000"/></g></g></svg>
