<?xml version="1.0" encoding="UTF-8"?>
<svg xmlns="http://www.w3.org/2000/svg" version="1.1" width="100" height="100" viewBox="0 0 100 100"><rect x="0" y="0" width="100" height="100" fill="#ffffff"/><g transform="scale(1.887)"><g transform="translate(0,0)"><path fill-rule="evenodd" d="M8 0L8 2L9 2L9 4L8 4L8 9L7 9L7 8L5 8L5 9L3 9L3 8L0 8L0 9L2 9L2 10L0 10L0 17L2 17L2 16L3 16L3 15L4 15L4 16L6 16L6 17L5 17L5 18L4 18L4 19L3 19L3 20L4 20L4 21L2 21L2 20L1 20L1 19L2 19L2 18L0 18L0 20L1 20L1 21L0 21L0 22L4 22L4 21L5 21L5 20L6 20L6 21L7 21L7 22L6 22L6 23L5 23L5 24L3 24L3 23L2 23L2 24L1 24L1 25L0 25L0 26L1 26L1 27L0 27L0 30L2 30L2 31L1 31L1 32L2 32L2 31L3 31L3 33L2 33L2 35L7 35L7 36L6 36L6 37L5 37L5 36L4 36L4 37L5 37L5 38L4 38L4 39L3 39L3 41L4 41L4 40L6 40L6 41L7 41L7 40L6 40L6 39L8 39L8 40L9 40L9 39L10 39L10 40L11 40L11 41L9 41L9 42L8 42L8 43L7 43L7 42L3 42L3 43L2 43L2 40L1 40L1 39L2 39L2 36L1 36L1 33L0 33L0 37L1 37L1 38L0 38L0 41L1 41L1 42L0 42L0 43L1 43L1 44L3 44L3 45L4 45L4 44L3 44L3 43L7 43L7 44L6 44L6 45L8 45L8 46L9 46L9 47L8 47L8 48L9 48L9 50L8 50L8 53L10 53L10 52L9 52L9 51L10 51L10 50L11 50L11 51L13 51L13 52L11 52L11 53L13 53L13 52L14 52L14 53L15 53L15 52L17 52L17 53L19 53L19 52L18 52L18 51L16 51L16 50L18 50L18 49L19 49L19 48L20 48L20 49L21 49L21 48L20 48L20 47L19 47L19 46L20 46L20 44L22 44L22 46L23 46L23 47L22 47L22 48L23 48L23 51L24 51L24 49L25 49L25 50L26 50L26 49L29 49L29 50L28 50L28 51L30 51L30 52L28 52L28 53L30 53L30 52L32 52L32 53L33 53L33 51L34 51L34 49L33 49L33 48L36 48L36 49L35 49L35 51L36 51L36 49L37 49L37 51L39 51L39 50L40 50L40 53L42 53L42 52L44 52L44 53L46 53L46 51L45 51L45 50L46 50L46 49L47 49L47 50L48 50L48 51L47 51L47 52L48 52L48 51L49 51L49 53L50 53L50 51L51 51L51 49L50 49L50 47L51 47L51 48L52 48L52 49L53 49L53 48L52 48L52 47L53 47L53 45L52 45L52 44L50 44L50 43L49 43L49 42L50 42L50 41L51 41L51 40L52 40L52 43L53 43L53 38L52 38L52 39L51 39L51 40L50 40L50 37L49 37L49 36L50 36L50 35L49 35L49 36L48 36L48 31L47 31L47 30L48 30L48 29L50 29L50 31L51 31L51 32L52 32L52 31L53 31L53 29L52 29L52 27L53 27L53 26L52 26L52 27L51 27L51 26L50 26L50 25L53 25L53 22L52 22L52 24L50 24L50 23L51 23L51 21L52 21L52 20L53 20L53 16L52 16L52 15L53 15L53 12L50 12L50 11L51 11L51 10L50 10L50 11L49 11L49 8L43 8L43 10L42 10L42 9L41 9L41 6L42 6L42 7L43 7L43 3L44 3L44 4L45 4L45 3L44 3L44 1L43 1L43 0L42 0L42 1L41 1L41 4L40 4L40 3L39 3L39 4L38 4L38 5L36 5L36 9L37 9L37 6L38 6L38 7L39 7L39 8L38 8L38 9L40 9L40 10L39 10L39 11L38 11L38 13L37 13L37 11L36 11L36 10L34 10L34 9L35 9L35 4L36 4L36 3L38 3L38 2L39 2L39 1L40 1L40 0L38 0L38 2L35 2L35 4L34 4L34 3L33 3L33 2L32 2L32 1L33 1L33 0L32 0L32 1L31 1L31 0L29 0L29 2L30 2L30 3L31 3L31 4L30 4L30 5L31 5L31 6L30 6L30 7L29 7L29 3L28 3L28 0L27 0L27 2L26 2L26 0L23 0L23 1L24 1L24 2L22 2L22 3L21 3L21 2L20 2L20 1L21 1L21 0L18 0L18 3L17 3L17 4L16 4L16 9L17 9L17 6L18 6L18 8L19 8L19 11L18 11L18 10L16 10L16 11L18 11L18 14L16 14L16 13L17 13L17 12L16 12L16 13L15 13L15 12L14 12L14 11L13 11L13 10L14 10L14 9L15 9L15 8L14 8L14 7L15 7L15 6L14 6L14 7L13 7L13 6L12 6L12 8L10 8L10 7L11 7L11 6L10 6L10 3L11 3L11 2L9 2L9 1L10 1L10 0ZM13 0L13 1L12 1L12 2L14 2L14 1L15 1L15 0ZM34 0L34 1L36 1L36 0ZM16 1L16 2L17 2L17 1ZM24 2L24 4L23 4L23 3L22 3L22 4L21 4L21 3L18 3L18 5L19 5L19 8L20 8L20 4L21 4L21 7L22 7L22 8L24 8L24 4L26 4L26 2ZM42 2L42 3L43 3L43 2ZM12 3L12 4L13 4L13 5L15 5L15 4L14 4L14 3ZM32 3L32 4L31 4L31 5L33 5L33 7L32 7L32 6L31 6L31 7L30 7L30 8L29 8L29 9L27 9L27 10L26 10L26 9L21 9L21 10L20 10L20 11L21 11L21 10L26 10L26 12L27 12L27 11L28 11L28 10L29 10L29 13L27 13L27 14L26 14L26 16L25 16L25 14L24 14L24 12L25 12L25 11L24 11L24 12L23 12L23 11L22 11L22 12L20 12L20 16L19 16L19 15L18 15L18 16L19 16L19 17L18 17L18 18L16 18L16 19L19 19L19 20L23 20L23 23L22 23L22 24L25 24L25 22L26 22L26 24L28 24L28 23L27 23L27 21L25 21L25 22L24 22L24 20L25 20L25 17L26 17L26 20L27 20L27 19L28 19L28 21L29 21L29 20L30 20L30 22L31 22L31 18L32 18L32 16L33 16L33 15L32 15L32 14L33 14L33 13L32 13L32 12L34 12L34 19L33 19L33 21L32 21L32 23L35 23L35 22L36 22L36 20L38 20L38 22L37 22L37 23L36 23L36 24L35 24L35 25L34 25L34 26L35 26L35 27L33 27L33 26L31 26L31 25L30 25L30 24L31 24L31 23L29 23L29 25L30 25L30 26L29 26L29 27L31 27L31 28L29 28L29 29L30 29L30 30L29 30L29 31L28 31L28 32L27 32L27 30L28 30L28 29L27 29L27 30L26 30L26 29L25 29L25 30L26 30L26 31L25 31L25 32L24 32L24 33L23 33L23 32L22 32L22 31L23 31L23 30L24 30L24 29L23 29L23 30L21 30L21 29L20 29L20 28L19 28L19 24L18 24L18 23L20 23L20 24L21 24L21 21L20 21L20 22L18 22L18 20L15 20L15 19L14 19L14 18L15 18L15 16L17 16L17 15L16 15L16 14L13 14L13 11L12 11L12 10L13 10L13 8L12 8L12 9L11 9L11 10L7 10L7 9L5 9L5 10L3 10L3 11L1 11L1 12L3 12L3 13L1 13L1 14L2 14L2 15L3 15L3 13L4 13L4 15L5 15L5 14L9 14L9 15L8 15L8 16L7 16L7 15L6 15L6 16L7 16L7 17L6 17L6 18L5 18L5 19L6 19L6 20L7 20L7 21L8 21L8 23L6 23L6 24L9 24L9 25L10 25L10 27L11 27L11 26L12 26L12 25L11 25L11 22L12 22L12 24L13 24L13 22L15 22L15 23L14 23L14 24L15 24L15 25L14 25L14 26L13 26L13 27L14 27L14 28L12 28L12 29L11 29L11 28L9 28L9 29L5 29L5 30L4 30L4 25L1 25L1 26L2 26L2 28L3 28L3 31L5 31L5 33L4 33L4 34L11 34L11 33L10 33L10 31L11 31L11 32L12 32L12 31L11 31L11 30L13 30L13 33L12 33L12 36L10 36L10 37L9 37L9 35L8 35L8 37L9 37L9 38L8 38L8 39L9 39L9 38L10 38L10 39L11 39L11 40L12 40L12 42L11 42L11 43L10 43L10 42L9 42L9 43L8 43L8 44L9 44L9 45L10 45L10 47L9 47L9 48L10 48L10 49L11 49L11 50L12 50L12 49L13 49L13 48L12 48L12 47L11 47L11 46L13 46L13 47L15 47L15 48L14 48L14 50L15 50L15 48L17 48L17 46L19 46L19 45L18 45L18 44L17 44L17 43L18 43L18 42L19 42L19 40L20 40L20 38L23 38L23 37L22 37L22 36L24 36L24 39L22 39L22 40L23 40L23 41L22 41L22 44L23 44L23 46L24 46L24 44L26 44L26 43L27 43L27 44L29 44L29 43L31 43L31 45L30 45L30 47L29 47L29 49L30 49L30 51L31 51L31 49L32 49L32 51L33 51L33 49L32 49L32 47L34 47L34 46L35 46L35 47L37 47L37 49L38 49L38 50L39 50L39 49L40 49L40 47L42 47L42 46L44 46L44 45L43 45L43 43L45 43L45 44L47 44L47 43L48 43L48 42L49 42L49 41L48 41L48 42L47 42L47 43L46 43L46 42L44 42L44 41L47 41L47 40L48 40L48 39L49 39L49 37L48 37L48 36L47 36L47 35L46 35L46 34L44 34L44 33L45 33L45 32L44 32L44 31L43 31L43 32L44 32L44 33L42 33L42 34L41 34L41 33L40 33L40 32L42 32L42 31L41 31L41 29L42 29L42 30L43 30L43 28L44 28L44 26L43 26L43 25L42 25L42 24L43 24L43 23L42 23L42 24L41 24L41 22L40 22L40 16L42 16L42 18L41 18L41 19L42 19L42 18L43 18L43 17L44 17L44 18L45 18L45 19L46 19L46 20L43 20L43 21L42 21L42 20L41 20L41 21L42 21L42 22L43 22L43 21L44 21L44 23L46 23L46 24L47 24L47 23L48 23L48 24L49 24L49 23L50 23L50 20L52 20L52 18L51 18L51 19L50 19L50 17L52 17L52 16L51 16L51 15L50 15L50 17L48 17L48 18L49 18L49 19L47 19L47 16L45 16L45 17L44 17L44 15L46 15L46 14L47 14L47 15L49 15L49 13L50 13L50 14L51 14L51 13L50 13L50 12L49 12L49 13L48 13L48 11L47 11L47 9L46 9L46 11L47 11L47 13L46 13L46 12L45 12L45 9L44 9L44 11L43 11L43 12L44 12L44 15L41 15L41 14L40 14L40 12L41 12L41 13L42 13L42 14L43 14L43 13L42 13L42 10L40 10L40 11L39 11L39 13L38 13L38 15L37 15L37 14L36 14L36 11L35 11L35 12L34 12L34 10L33 10L33 11L31 11L31 10L32 10L32 8L34 8L34 4L33 4L33 3ZM22 4L22 7L23 7L23 4ZM39 4L39 5L38 5L38 6L39 6L39 7L40 7L40 6L41 6L41 5L42 5L42 4L41 4L41 5L40 5L40 4ZM25 5L25 8L28 8L28 5ZM39 5L39 6L40 6L40 5ZM9 6L9 7L10 7L10 6ZM26 6L26 7L27 7L27 6ZM44 6L44 7L45 7L45 6ZM9 8L9 9L10 9L10 8ZM30 8L30 9L31 9L31 8ZM51 8L51 9L52 9L52 11L53 11L53 8ZM5 10L5 11L3 11L3 12L4 12L4 13L5 13L5 11L7 11L7 12L6 12L6 13L7 13L7 12L9 12L9 13L10 13L10 12L9 12L9 11L7 11L7 10ZM11 12L11 14L12 14L12 12ZM22 12L22 13L21 13L21 14L22 14L22 13L23 13L23 12ZM30 12L30 13L31 13L31 14L32 14L32 13L31 13L31 12ZM45 13L45 14L46 14L46 13ZM47 13L47 14L48 14L48 13ZM28 14L28 15L27 15L27 16L26 16L26 17L27 17L27 18L28 18L28 19L30 19L30 15L29 15L29 14ZM39 14L39 16L37 16L37 15L36 15L36 18L35 18L35 19L34 19L34 20L35 20L35 19L36 19L36 18L37 18L37 19L38 19L38 20L39 20L39 18L38 18L38 17L39 17L39 16L40 16L40 14ZM9 15L9 16L8 16L8 17L7 17L7 18L6 18L6 19L7 19L7 20L8 20L8 19L7 19L7 18L9 18L9 20L11 20L11 21L12 21L12 19L11 19L11 18L10 18L10 16L11 16L11 17L13 17L13 16L12 16L12 15ZM14 15L14 16L15 16L15 15ZM22 15L22 16L23 16L23 17L25 17L25 16L24 16L24 15ZM28 15L28 16L29 16L29 15ZM31 15L31 16L32 16L32 15ZM20 16L20 17L21 17L21 16ZM45 17L45 18L46 18L46 17ZM20 18L20 19L21 19L21 18ZM22 18L22 19L23 19L23 20L24 20L24 18ZM13 19L13 20L14 20L14 21L15 21L15 20L14 20L14 19ZM49 19L49 20L48 20L48 21L49 21L49 20L50 20L50 19ZM46 20L46 21L47 21L47 20ZM9 22L9 24L10 24L10 22ZM16 22L16 23L17 23L17 22ZM38 22L38 23L37 23L37 24L36 24L36 26L37 26L37 24L38 24L38 25L39 25L39 24L40 24L40 26L41 26L41 28L40 28L40 29L41 29L41 28L42 28L42 25L41 25L41 24L40 24L40 23L39 23L39 22ZM38 23L38 24L39 24L39 23ZM16 24L16 25L17 25L17 24ZM5 25L5 28L8 28L8 25ZM22 25L22 26L23 26L23 27L21 27L21 26L20 26L20 27L21 27L21 28L24 28L24 26L23 26L23 25ZM25 25L25 28L28 28L28 25ZM45 25L45 28L48 28L48 25ZM6 26L6 27L7 27L7 26ZM16 26L16 27L17 27L17 28L16 28L16 29L15 29L15 28L14 28L14 29L15 29L15 31L14 31L14 32L15 32L15 34L14 34L14 35L13 35L13 36L12 36L12 37L11 37L11 39L12 39L12 37L13 37L13 36L14 36L14 37L15 37L15 38L13 38L13 43L12 43L12 44L14 44L14 45L13 45L13 46L16 46L16 45L17 45L17 44L14 44L14 43L15 43L15 42L14 42L14 41L15 41L15 40L16 40L16 41L17 41L17 39L16 39L16 37L17 37L17 36L18 36L18 37L19 37L19 38L20 38L20 36L19 36L19 35L16 35L16 34L18 34L18 33L19 33L19 32L18 32L18 31L20 31L20 29L19 29L19 28L18 28L18 26ZM26 26L26 27L27 27L27 26ZM46 26L46 27L47 27L47 26ZM35 27L35 28L32 28L32 30L30 30L30 32L29 32L29 34L27 34L27 36L26 36L26 37L25 37L25 38L26 38L26 41L27 41L27 42L29 42L29 41L30 41L30 40L31 40L31 43L33 43L33 44L32 44L32 45L31 45L31 47L32 47L32 45L33 45L33 46L34 46L34 45L35 45L35 46L36 46L36 45L38 45L38 44L39 44L39 43L40 43L40 42L38 42L38 41L39 41L39 40L40 40L40 41L41 41L41 43L43 43L43 42L42 42L42 40L43 40L43 41L44 41L44 39L42 39L42 40L40 40L40 39L41 39L41 34L40 34L40 33L39 33L39 31L38 31L38 33L37 33L37 31L36 31L36 33L35 33L35 30L34 30L34 29L36 29L36 30L38 30L38 29L39 29L39 28L38 28L38 27ZM50 27L50 29L51 29L51 27ZM17 28L17 29L16 29L16 30L19 30L19 29L18 29L18 28ZM37 28L37 29L38 29L38 28ZM9 29L9 31L8 31L8 30L6 30L6 31L7 31L7 32L6 32L6 33L8 33L8 32L9 32L9 31L10 31L10 29ZM32 30L32 31L31 31L31 32L30 32L30 34L32 34L32 31L33 31L33 33L34 33L34 35L35 35L35 36L34 36L34 39L33 39L33 38L32 38L32 35L30 35L30 36L31 36L31 37L30 37L30 39L33 39L33 40L34 40L34 43L35 43L35 41L36 41L36 40L39 40L39 39L40 39L40 34L39 34L39 33L38 33L38 34L37 34L37 33L36 33L36 35L35 35L35 33L34 33L34 31L33 31L33 30ZM45 30L45 31L46 31L46 32L47 32L47 31L46 31L46 30ZM16 31L16 32L17 32L17 31ZM20 32L20 33L21 33L21 32ZM26 32L26 33L24 33L24 34L23 34L23 35L24 35L24 36L25 36L25 35L26 35L26 33L27 33L27 32ZM49 33L49 34L50 34L50 33ZM51 33L51 34L52 34L52 35L51 35L51 36L52 36L52 37L53 37L53 36L52 36L52 35L53 35L53 33ZM20 34L20 35L21 35L21 36L22 36L22 34ZM24 34L24 35L25 35L25 34ZM38 34L38 35L37 35L37 36L36 36L36 38L35 38L35 39L34 39L34 40L35 40L35 39L39 39L39 38L38 38L38 37L37 37L37 36L38 36L38 35L39 35L39 34ZM43 34L43 35L42 35L42 37L46 37L46 39L48 39L48 37L47 37L47 36L45 36L45 35L44 35L44 34ZM28 35L28 36L27 36L27 37L26 37L26 38L29 38L29 37L28 37L28 36L29 36L29 35ZM43 35L43 36L44 36L44 35ZM6 37L6 38L7 38L7 37ZM14 39L14 40L15 40L15 39ZM18 39L18 40L19 40L19 39ZM28 39L28 41L29 41L29 39ZM23 41L23 44L24 44L24 43L26 43L26 42L25 42L25 41ZM32 41L32 42L33 42L33 41ZM16 42L16 43L17 43L17 42ZM20 42L20 43L21 43L21 42ZM37 42L37 43L38 43L38 42ZM10 44L10 45L11 45L11 44ZM33 44L33 45L34 45L34 44ZM40 44L40 46L39 46L39 47L40 47L40 46L42 46L42 44ZM49 44L49 47L50 47L50 44ZM25 45L25 48L28 48L28 45ZM45 45L45 48L48 48L48 45ZM26 46L26 47L27 47L27 46ZM46 46L46 47L47 47L47 46ZM51 46L51 47L52 47L52 46ZM18 47L18 48L19 48L19 47ZM11 48L11 49L12 49L12 48ZM42 48L42 50L43 50L43 51L44 51L44 50L45 50L45 49L44 49L44 48ZM48 49L48 50L49 50L49 51L50 51L50 49ZM20 50L20 51L21 51L21 52L22 52L22 53L23 53L23 52L22 52L22 50ZM26 51L26 52L24 52L24 53L27 53L27 51ZM41 51L41 52L42 52L42 51ZM34 52L34 53L35 53L35 52ZM36 52L36 53L38 53L38 52ZM52 52L52 53L53 53L53 52ZM0 0L0 7L7 7L7 0ZM1 1L1 6L6 6L6 1ZM2 2L2 5L5 5L5 2ZM46 0L46 7L53 7L53 0ZM47 1L47 6L52 6L52 1ZM48 2L48 5L51 5L51 2ZM0 46L0 53L7 53L7 46ZM1 47L1 52L6 52L6 47ZM2 48L2 51L5 51L5 48Z" fill="#000000"/></g></g></svg>
