<?xml version="1.0" encoding="UTF-8"?>
<svg xmlns="http://www.w3.org/2000/svg" version="1.1" width="100" height="100" viewBox="0 0 100 100"><rect x="0" y="0" width="100" height="100" fill="#ffffff"/><g transform="scale(1.887)"><g transform="translate(0,0)"><path fill-rule="evenodd" d="M8 0L8 2L9 2L9 3L11 3L11 0L10 0L10 1L9 1L9 0ZM13 0L13 1L12 1L12 3L13 3L13 4L12 4L12 5L11 5L11 4L10 4L10 5L9 5L9 4L8 4L8 10L9 10L9 11L8 11L8 14L6 14L6 13L7 13L7 12L6 12L6 11L7 11L7 10L6 10L6 9L7 9L7 8L5 8L5 10L4 10L4 9L3 9L3 8L0 8L0 9L1 9L1 10L0 10L0 11L1 11L1 13L0 13L0 17L1 17L1 18L3 18L3 17L4 17L4 18L6 18L6 19L2 19L2 20L1 20L1 19L0 19L0 21L1 21L1 22L0 22L0 23L1 23L1 24L0 24L0 26L1 26L1 25L4 25L4 26L2 26L2 27L3 27L3 28L0 28L0 29L1 29L1 31L0 31L0 39L1 39L1 40L0 40L0 41L1 41L1 42L0 42L0 43L1 43L1 44L3 44L3 45L4 45L4 44L3 44L3 43L8 43L8 46L9 46L9 47L8 47L8 48L9 48L9 49L10 49L10 50L8 50L8 53L9 53L9 51L11 51L11 52L17 52L17 53L19 53L19 52L18 52L18 51L19 51L19 50L18 50L18 49L19 49L19 48L20 48L20 49L21 49L21 48L20 48L20 47L19 47L19 46L20 46L20 44L22 44L22 46L23 46L23 47L22 47L22 48L23 48L23 51L24 51L24 49L25 49L25 50L26 50L26 49L27 49L27 52L26 52L26 51L25 51L25 52L24 52L24 53L25 53L25 52L26 52L26 53L27 53L27 52L28 52L28 53L33 53L33 52L34 52L34 53L35 53L35 52L34 52L34 49L33 49L33 48L36 48L36 49L35 49L35 51L36 51L36 53L38 53L38 52L40 52L40 53L42 53L42 52L43 52L43 51L42 51L42 49L43 49L43 50L44 50L44 51L45 51L45 52L44 52L44 53L47 53L47 52L48 52L48 51L49 51L49 53L51 53L51 52L50 52L50 50L51 50L51 49L50 49L50 47L51 47L51 48L52 48L52 47L53 47L53 45L52 45L52 44L50 44L50 42L48 42L48 41L52 41L52 43L53 43L53 41L52 41L52 39L53 39L53 38L52 38L52 37L53 37L53 36L52 36L52 35L53 35L53 33L52 33L52 32L53 32L53 30L52 30L52 27L53 27L53 26L52 26L52 27L51 27L51 28L50 28L50 26L51 26L51 24L50 24L50 23L51 23L51 21L52 21L52 20L53 20L53 17L50 17L50 15L51 15L51 14L50 14L50 13L52 13L52 16L53 16L53 12L50 12L50 11L49 11L49 10L48 10L48 11L47 11L47 10L46 10L46 9L49 9L49 8L45 8L45 6L44 6L44 7L43 7L43 3L44 3L44 4L45 4L45 3L44 3L44 1L43 1L43 0L41 0L41 1L40 1L40 0L38 0L38 1L37 1L37 2L35 2L35 4L34 4L34 3L33 3L33 2L32 2L32 1L33 1L33 0L32 0L32 1L31 1L31 0L29 0L29 2L28 2L28 0L27 0L27 2L26 2L26 0L23 0L23 1L24 1L24 2L23 2L23 4L22 4L22 3L21 3L21 2L20 2L20 1L21 1L21 0L18 0L18 3L17 3L17 4L16 4L16 3L15 3L15 2L14 2L14 1L15 1L15 0ZM34 0L34 1L36 1L36 0ZM16 1L16 2L17 2L17 1ZM38 1L38 3L36 3L36 4L37 4L37 5L38 5L38 6L37 6L37 7L38 7L38 10L39 10L39 11L40 11L40 12L39 12L39 13L38 13L38 11L37 11L37 9L36 9L36 6L35 6L35 5L34 5L34 4L33 4L33 3L32 3L32 4L31 4L31 5L30 5L30 4L29 4L29 3L30 3L30 2L29 2L29 3L28 3L28 4L29 4L29 5L30 5L30 6L29 6L29 7L30 7L30 8L31 8L31 9L30 9L30 10L29 10L29 9L27 9L27 11L26 11L26 10L25 10L25 9L24 9L24 4L23 4L23 7L22 7L22 4L21 4L21 3L18 3L18 5L19 5L19 8L18 8L18 6L17 6L17 9L16 9L16 8L15 8L15 7L16 7L16 6L15 6L15 5L16 5L16 4L15 4L15 3L14 3L14 5L13 5L13 7L12 7L12 6L11 6L11 7L10 7L10 6L9 6L9 10L11 10L11 12L10 12L10 11L9 11L9 12L10 12L10 13L9 13L9 14L8 14L8 15L11 15L11 16L12 16L12 17L9 17L9 16L7 16L7 15L6 15L6 14L4 14L4 13L3 13L3 12L2 12L2 13L1 13L1 15L2 15L2 16L4 16L4 17L6 17L6 18L7 18L7 17L8 17L8 19L9 19L9 23L10 23L10 24L12 24L12 23L10 23L10 22L13 22L13 21L14 21L14 22L15 22L15 21L14 21L14 19L15 19L15 16L14 16L14 15L15 15L15 14L14 14L14 12L17 12L17 13L16 13L16 14L18 14L18 11L19 11L19 8L20 8L20 4L21 4L21 7L22 7L22 8L23 8L23 9L21 9L21 10L20 10L20 11L22 11L22 12L20 12L20 16L19 16L19 15L18 15L18 16L19 16L19 17L18 17L18 18L16 18L16 19L19 19L19 20L23 20L23 23L22 23L22 24L23 24L23 25L22 25L22 26L23 26L23 27L21 27L21 26L20 26L20 27L21 27L21 28L23 28L23 27L24 27L24 26L23 26L23 25L24 25L24 24L25 24L25 23L24 23L24 20L25 20L25 22L26 22L26 24L29 24L29 25L30 25L30 26L29 26L29 28L30 28L30 30L29 30L29 31L28 31L28 32L27 32L27 31L26 31L26 32L25 32L25 34L26 34L26 35L25 35L25 36L24 36L24 35L23 35L23 34L24 34L24 33L23 33L23 32L22 32L22 31L23 31L23 30L24 30L24 29L23 29L23 30L21 30L21 29L20 29L20 28L19 28L19 24L18 24L18 23L20 23L20 24L21 24L21 21L20 21L20 22L18 22L18 20L16 20L16 23L17 23L17 25L16 25L16 24L15 24L15 23L14 23L14 24L15 24L15 25L14 25L14 28L17 28L17 29L16 29L16 30L19 30L19 29L20 29L20 31L18 31L18 32L19 32L19 33L18 33L18 34L16 34L16 35L18 35L18 36L17 36L17 37L16 37L16 36L15 36L15 37L14 37L14 35L13 35L13 36L11 36L11 35L10 35L10 34L15 34L15 32L14 32L14 31L15 31L15 30L13 30L13 29L12 29L12 28L11 28L11 29L8 29L8 30L7 30L7 29L5 29L5 31L3 31L3 30L2 30L2 31L3 31L3 32L2 32L2 33L1 33L1 35L2 35L2 36L1 36L1 38L2 38L2 36L3 36L3 37L5 37L5 36L7 36L7 35L5 35L5 34L8 34L8 35L10 35L10 36L11 36L11 37L10 37L10 38L11 38L11 39L13 39L13 38L15 38L15 37L16 37L16 39L17 39L17 41L16 41L16 40L15 40L15 39L14 39L14 40L15 40L15 41L14 41L14 42L13 42L13 40L8 40L8 41L6 41L6 42L8 42L8 41L11 41L11 43L10 43L10 42L9 42L9 43L10 43L10 44L11 44L11 45L10 45L10 47L9 47L9 48L10 48L10 49L11 49L11 48L10 48L10 47L11 47L11 45L12 45L12 44L13 44L13 45L15 45L15 44L17 44L17 45L16 45L16 46L12 46L12 47L15 47L15 48L17 48L17 45L18 45L18 46L19 46L19 45L18 45L18 43L19 43L19 40L20 40L20 38L23 38L23 37L24 37L24 39L22 39L22 40L23 40L23 41L22 41L22 44L23 44L23 41L24 41L24 40L25 40L25 41L26 41L26 43L25 43L25 44L26 44L26 43L27 43L27 42L28 42L28 44L30 44L30 48L29 48L29 49L28 49L28 50L29 50L29 51L28 51L28 52L30 52L30 50L31 50L31 49L32 49L32 51L33 51L33 49L32 49L32 47L31 47L31 45L32 45L32 44L33 44L33 45L34 45L34 46L35 46L35 47L36 47L36 46L37 46L37 49L36 49L36 51L37 51L37 52L38 52L38 51L37 51L37 49L38 49L38 50L40 50L40 52L41 52L41 50L40 50L40 46L41 46L41 45L40 45L40 44L42 44L42 46L43 46L43 47L42 47L42 48L41 48L41 49L42 49L42 48L44 48L44 45L43 45L43 44L44 44L44 43L43 43L43 37L42 37L42 36L44 36L44 37L46 37L46 38L45 38L45 41L47 41L47 40L46 40L46 38L47 38L47 36L49 36L49 37L48 37L48 40L49 40L49 37L50 37L50 40L51 40L51 39L52 39L52 38L51 38L51 37L52 37L52 36L51 36L51 35L52 35L52 34L51 34L51 32L52 32L52 30L51 30L51 31L50 31L50 28L49 28L49 29L48 29L48 31L49 31L49 32L47 32L47 31L46 31L46 30L47 30L47 29L45 29L45 30L43 30L43 29L44 29L44 25L43 25L43 24L44 24L44 22L45 22L45 24L48 24L48 22L47 22L47 21L48 21L48 20L49 20L49 19L50 19L50 21L49 21L49 23L50 23L50 21L51 21L51 20L52 20L52 18L51 18L51 19L50 19L50 18L49 18L49 17L48 17L48 16L49 16L49 14L48 14L48 12L49 12L49 11L48 11L48 12L47 12L47 11L46 11L46 10L45 10L45 8L42 8L42 6L41 6L41 5L42 5L42 4L41 4L41 2L40 2L40 5L38 5L38 3L39 3L39 1ZM24 2L24 3L25 3L25 4L26 4L26 2ZM42 2L42 3L43 3L43 2ZM32 4L32 5L31 5L31 6L30 6L30 7L31 7L31 8L32 8L32 9L31 9L31 11L30 11L30 13L31 13L31 16L32 16L32 18L30 18L30 15L29 15L29 10L28 10L28 11L27 11L27 13L25 13L25 12L26 12L26 11L25 11L25 10L24 10L24 9L23 9L23 10L22 10L22 11L23 11L23 12L22 12L22 13L21 13L21 14L22 14L22 13L23 13L23 12L24 12L24 15L22 15L22 16L23 16L23 17L24 17L24 18L22 18L22 19L23 19L23 20L24 20L24 18L25 18L25 19L27 19L27 21L28 21L28 19L29 19L29 18L30 18L30 19L31 19L31 20L30 20L30 21L29 21L29 22L28 22L28 23L29 23L29 22L30 22L30 23L31 23L31 24L30 24L30 25L31 25L31 24L32 24L32 25L33 25L33 28L32 28L32 29L31 29L31 30L30 30L30 32L29 32L29 36L28 36L28 34L27 34L27 32L26 32L26 34L27 34L27 36L26 36L26 37L25 37L25 39L26 39L26 41L27 41L27 40L28 40L28 42L30 42L30 40L28 40L28 39L31 39L31 40L32 40L32 41L31 41L31 42L32 42L32 43L33 43L33 44L34 44L34 40L35 40L35 39L36 39L36 38L37 38L37 39L39 39L39 40L36 40L36 41L35 41L35 43L36 43L36 45L37 45L37 46L38 46L38 44L40 44L40 42L38 42L38 41L39 41L39 40L40 40L40 41L41 41L41 43L42 43L42 39L41 39L41 40L40 40L40 37L41 37L41 34L42 34L42 31L43 31L43 30L42 30L42 29L41 29L41 28L42 28L42 27L43 27L43 26L42 26L42 23L43 23L43 22L44 22L44 21L43 21L43 22L42 22L42 21L41 21L41 20L44 20L44 16L45 16L45 17L46 17L46 16L47 16L47 14L46 14L46 13L47 13L47 12L46 12L46 11L44 11L44 12L43 12L43 11L42 11L42 8L41 8L41 6L40 6L40 10L41 10L41 11L42 11L42 12L40 12L40 14L39 14L39 15L41 15L41 16L40 16L40 18L38 18L38 17L39 17L39 16L38 16L38 13L37 13L37 11L36 11L36 10L34 10L34 9L35 9L35 6L34 6L34 5L33 5L33 4ZM25 5L25 8L28 8L28 5ZM14 6L14 7L13 7L13 10L12 10L12 11L13 11L13 10L14 10L14 11L15 11L15 10L14 10L14 9L15 9L15 8L14 8L14 7L15 7L15 6ZM26 6L26 7L27 7L27 6ZM31 6L31 7L32 7L32 8L34 8L34 6L33 6L33 7L32 7L32 6ZM38 6L38 7L39 7L39 6ZM11 7L11 9L12 9L12 7ZM51 8L51 9L50 9L50 10L51 10L51 9L52 9L52 11L53 11L53 8ZM43 9L43 10L44 10L44 9ZM1 10L1 11L2 11L2 10ZM5 10L5 11L4 11L4 12L5 12L5 11L6 11L6 10ZM16 10L16 11L18 11L18 10ZM33 10L33 11L31 11L31 13L32 13L32 16L33 16L33 13L32 13L32 12L33 12L33 11L34 11L34 12L35 12L35 13L34 13L34 14L35 14L35 15L34 15L34 19L35 19L35 20L34 20L34 23L35 23L35 22L36 22L36 24L35 24L35 25L34 25L34 26L35 26L35 29L34 29L34 30L33 30L33 29L32 29L32 30L31 30L31 32L30 32L30 34L31 34L31 35L30 35L30 36L31 36L31 37L30 37L30 38L31 38L31 39L32 39L32 40L34 40L34 39L33 39L33 37L32 37L32 34L31 34L31 33L32 33L32 31L33 31L33 33L34 33L34 35L33 35L33 36L34 36L34 38L36 38L36 36L37 36L37 37L38 37L38 38L39 38L39 37L40 37L40 36L39 36L39 35L40 35L40 32L41 32L41 31L42 31L42 30L41 30L41 31L40 31L40 30L39 30L39 29L40 29L40 28L41 28L41 26L40 26L40 23L42 23L42 22L41 22L41 21L40 21L40 22L39 22L39 20L38 20L38 19L37 19L37 18L36 18L36 15L37 15L37 13L36 13L36 11L34 11L34 10ZM24 11L24 12L25 12L25 11ZM12 12L12 14L11 14L11 15L12 15L12 16L13 16L13 15L12 15L12 14L13 14L13 12ZM2 13L2 14L3 14L3 13ZM27 13L27 14L26 14L26 16L25 16L25 15L24 15L24 16L25 16L25 18L27 18L27 19L28 19L28 18L27 18L27 17L26 17L26 16L28 16L28 17L29 17L29 15L28 15L28 13ZM42 13L42 14L43 14L43 13ZM44 13L44 15L42 15L42 16L44 16L44 15L45 15L45 16L46 16L46 15L45 15L45 13ZM4 15L4 16L5 16L5 15ZM6 16L6 17L7 17L7 16ZM20 16L20 17L21 17L21 16ZM37 16L37 17L38 17L38 16ZM12 17L12 18L10 18L10 19L11 19L11 20L12 20L12 21L13 21L13 19L14 19L14 18L13 18L13 17ZM42 17L42 18L40 18L40 19L42 19L42 18L43 18L43 17ZM47 17L47 19L49 19L49 18L48 18L48 17ZM20 18L20 19L21 19L21 18ZM35 18L35 19L36 19L36 22L37 22L37 24L36 24L36 26L37 26L37 24L38 24L38 25L39 25L39 24L38 24L38 23L39 23L39 22L38 22L38 20L37 20L37 19L36 19L36 18ZM6 19L6 20L7 20L7 19ZM3 20L3 21L2 21L2 22L1 22L1 23L2 23L2 24L7 24L7 23L5 23L5 22L8 22L8 21L5 21L5 20ZM31 20L31 21L30 21L30 22L31 22L31 23L32 23L32 24L33 24L33 21L32 21L32 20ZM46 20L46 21L45 21L45 22L46 22L46 21L47 21L47 20ZM3 21L3 22L2 22L2 23L4 23L4 22L5 22L5 21ZM31 21L31 22L32 22L32 21ZM52 22L52 23L53 23L53 22ZM23 23L23 24L24 24L24 23ZM52 24L52 25L53 25L53 24ZM5 25L5 28L8 28L8 25ZM10 25L10 26L9 26L9 28L10 28L10 27L11 27L11 26L12 26L12 25ZM25 25L25 28L28 28L28 25ZM45 25L45 28L48 28L48 25ZM49 25L49 26L50 26L50 25ZM6 26L6 27L7 27L7 26ZM16 26L16 27L17 27L17 28L18 28L18 29L19 29L19 28L18 28L18 26ZM26 26L26 27L27 27L27 26ZM31 26L31 27L30 27L30 28L31 28L31 27L32 27L32 26ZM39 26L39 27L40 27L40 26ZM46 26L46 27L47 27L47 26ZM36 27L36 30L37 30L37 28L38 28L38 29L39 29L39 28L38 28L38 27ZM11 29L11 31L7 31L7 30L6 30L6 31L5 31L5 32L3 32L3 33L2 33L2 34L3 34L3 33L7 33L7 32L8 32L8 34L9 34L9 33L13 33L13 32L11 32L11 31L13 31L13 30L12 30L12 29ZM25 29L25 30L26 30L26 29ZM27 29L27 30L28 30L28 29ZM34 30L34 33L35 33L35 35L34 35L34 36L35 36L35 35L36 35L36 33L37 33L37 34L38 34L38 35L39 35L39 34L38 34L38 33L39 33L39 32L40 32L40 31L38 31L38 33L37 33L37 31L36 31L36 33L35 33L35 30ZM6 31L6 32L7 32L7 31ZM16 31L16 32L17 32L17 31ZM44 31L44 32L43 32L43 33L44 33L44 36L45 36L45 34L46 34L46 35L47 35L47 34L48 34L48 35L49 35L49 34L48 34L48 33L47 33L47 32L46 32L46 33L45 33L45 31ZM20 32L20 33L21 33L21 32ZM20 34L20 35L21 35L21 36L22 36L22 37L23 37L23 36L22 36L22 34ZM50 34L50 35L51 35L51 34ZM18 36L18 38L20 38L20 36ZM27 36L27 37L26 37L26 38L27 38L27 39L28 39L28 38L27 38L27 37L28 37L28 36ZM6 37L6 38L7 38L7 39L6 39L6 40L7 40L7 39L8 39L8 38L9 38L9 37ZM31 37L31 38L32 38L32 37ZM4 38L4 41L3 41L3 39L2 39L2 40L1 40L1 41L2 41L2 43L3 43L3 42L4 42L4 41L5 41L5 38ZM18 39L18 40L19 40L19 39ZM32 41L32 42L33 42L33 41ZM12 42L12 43L13 43L13 44L15 44L15 42L14 42L14 43L13 43L13 42ZM16 42L16 43L18 43L18 42ZM20 42L20 43L21 43L21 42ZM37 42L37 43L38 43L38 42ZM45 42L45 44L47 44L47 43L46 43L46 42ZM30 43L30 44L31 44L31 43ZM48 43L48 44L49 44L49 43ZM6 44L6 45L7 45L7 44ZM23 45L23 46L24 46L24 45ZM25 45L25 48L28 48L28 45ZM45 45L45 48L48 48L48 45ZM49 45L49 47L50 47L50 45ZM26 46L26 47L27 47L27 46ZM46 46L46 47L47 47L47 46ZM51 46L51 47L52 47L52 46ZM18 47L18 48L19 48L19 47ZM13 48L13 49L12 49L12 50L11 50L11 51L12 51L12 50L13 50L13 51L15 51L15 49L14 49L14 48ZM29 49L29 50L30 50L30 49ZM44 49L44 50L45 50L45 49ZM47 49L47 51L46 51L46 52L47 52L47 51L48 51L48 50L49 50L49 49ZM16 50L16 51L17 51L17 50ZM20 50L20 51L21 51L21 52L22 52L22 53L23 53L23 52L22 52L22 50ZM52 52L52 53L53 53L53 52ZM0 0L0 7L7 7L7 0ZM1 1L1 6L6 6L6 1ZM2 2L2 5L5 5L5 2ZM46 0L46 7L53 7L53 0ZM47 1L47 6L52 6L52 1ZM48 2L48 5L51 5L51 2ZM0 46L0 53L7 53L7 46ZM1 47L1 52L6 52L6 47ZM2 48L2 51L5 51L5 48Z" fill="#000000"/></g></g></svg>
