<?xml version="1.0" encoding="UTF-8"?>
<svg xmlns="http://www.w3.org/2000/svg" version="1.1" width="100" height="100" viewBox="0 0 100 100"><rect x="0" y="0" width="100" height="100" fill="#ffffff"/><g transform="scale(1.887)"><g transform="translate(0,0)"><path fill-rule="evenodd" d="M8 0L8 2L10 2L10 3L9 3L9 4L8 4L8 9L7 9L7 8L5 8L5 9L4 9L4 12L6 12L6 13L8 13L8 12L10 12L10 13L11 13L11 11L12 11L12 13L13 13L13 10L14 10L14 14L15 14L15 15L14 15L14 16L15 16L15 20L14 20L14 21L15 21L15 20L18 20L18 22L20 22L20 21L21 21L21 24L20 24L20 23L18 23L18 24L19 24L19 28L18 28L18 26L16 26L16 27L17 27L17 28L16 28L16 29L15 29L15 27L14 27L14 29L15 29L15 31L14 31L14 32L15 32L15 34L14 34L14 35L15 35L15 36L14 36L14 37L13 37L13 32L12 32L12 34L11 34L11 31L10 31L10 29L11 29L11 28L12 28L12 27L11 27L11 25L9 25L9 23L10 23L10 24L11 24L11 23L12 23L12 21L13 21L13 15L11 15L11 14L8 14L8 16L6 16L6 17L8 17L8 18L5 18L5 19L7 19L7 20L6 20L6 21L5 21L5 20L4 20L4 17L5 17L5 16L4 16L4 15L7 15L7 14L5 14L5 13L3 13L3 17L2 17L2 16L1 16L1 15L2 15L2 14L1 14L1 13L2 13L2 12L3 12L3 8L0 8L0 9L1 9L1 10L2 10L2 11L1 11L1 13L0 13L0 14L1 14L1 15L0 15L0 16L1 16L1 17L0 17L0 18L3 18L3 19L1 19L1 20L0 20L0 22L1 22L1 20L3 20L3 21L5 21L5 22L4 22L4 23L5 23L5 24L3 24L3 22L2 22L2 23L0 23L0 27L1 27L1 24L2 24L2 25L3 25L3 27L2 27L2 29L1 29L1 28L0 28L0 31L2 31L2 30L3 30L3 32L2 32L2 33L3 33L3 32L4 32L4 31L5 31L5 32L6 32L6 33L4 33L4 34L3 34L3 35L4 35L4 34L6 34L6 35L5 35L5 36L2 36L2 34L1 34L1 36L0 36L0 40L1 40L1 42L0 42L0 43L1 43L1 44L3 44L3 45L4 45L4 44L3 44L3 43L7 43L7 44L6 44L6 45L7 45L7 44L8 44L8 46L9 46L9 47L8 47L8 48L12 48L12 49L13 49L13 50L12 50L12 51L11 51L11 50L8 50L8 53L11 53L11 52L12 52L12 53L13 53L13 52L14 52L14 51L15 51L15 52L17 52L17 53L19 53L19 51L18 51L18 49L19 49L19 48L20 48L20 49L21 49L21 48L20 48L20 47L19 47L19 46L20 46L20 44L22 44L22 46L23 46L23 47L22 47L22 48L23 48L23 51L24 51L24 49L25 49L25 50L26 50L26 49L27 49L27 51L26 51L26 52L24 52L24 53L27 53L27 51L29 51L29 50L30 50L30 51L32 51L32 53L34 53L34 49L33 49L33 48L36 48L36 49L35 49L35 52L36 52L36 53L37 53L37 52L38 52L38 51L41 51L41 52L40 52L40 53L41 53L41 52L42 52L42 53L43 53L43 52L44 52L44 53L48 53L48 52L50 52L50 53L51 53L51 52L50 52L50 51L51 51L51 49L53 49L53 48L52 48L52 47L53 47L53 45L52 45L52 44L50 44L50 43L51 43L51 40L52 40L52 43L53 43L53 38L52 38L52 39L51 39L51 40L50 40L50 37L49 37L49 36L50 36L50 35L51 35L51 36L52 36L52 37L53 37L53 36L52 36L52 35L53 35L53 33L51 33L51 34L50 34L50 33L49 33L49 34L50 34L50 35L48 35L48 37L47 37L47 36L46 36L46 37L44 37L44 36L45 36L45 35L44 35L44 34L45 34L45 33L44 33L44 32L46 32L46 31L48 31L48 32L49 32L49 31L48 31L48 29L49 29L49 28L50 28L50 31L51 31L51 32L52 32L52 31L53 31L53 30L52 30L52 27L53 27L53 26L52 26L52 27L51 27L51 28L50 28L50 27L49 27L49 26L50 26L50 25L51 25L51 24L50 24L50 23L51 23L51 22L52 22L52 23L53 23L53 22L52 22L52 20L53 20L53 17L52 17L52 15L53 15L53 12L50 12L50 11L51 11L51 9L52 9L52 11L53 11L53 8L51 8L51 9L50 9L50 11L49 11L49 12L48 12L48 11L47 11L47 12L46 12L46 11L45 11L45 10L46 10L46 9L49 9L49 8L45 8L45 6L44 6L44 7L43 7L43 3L44 3L44 4L45 4L45 3L44 3L44 1L43 1L43 0L42 0L42 2L41 2L41 4L42 4L42 7L41 7L41 6L40 6L40 2L39 2L39 4L38 4L38 5L39 5L39 6L38 6L38 9L37 9L37 4L36 4L36 3L38 3L38 1L40 1L40 0L38 0L38 1L37 1L37 2L35 2L35 3L34 3L34 5L35 5L35 4L36 4L36 9L37 9L37 10L38 10L38 11L36 11L36 10L34 10L34 9L35 9L35 6L34 6L34 8L32 8L32 9L33 9L33 10L32 10L32 11L31 11L31 12L32 12L32 13L33 13L33 14L34 14L34 15L32 15L32 14L31 14L31 15L32 15L32 17L31 17L31 16L30 16L30 17L29 17L29 15L30 15L30 12L29 12L29 10L28 10L28 11L27 11L27 13L25 13L25 12L24 12L24 11L25 11L25 10L26 10L26 9L29 9L29 8L30 8L30 9L31 9L31 8L30 8L30 7L31 7L31 6L30 6L30 5L32 5L32 7L33 7L33 5L32 5L32 1L33 1L33 0L32 0L32 1L31 1L31 0L30 0L30 1L29 1L29 0L28 0L28 1L27 1L27 2L26 2L26 0L23 0L23 1L24 1L24 2L22 2L22 1L21 1L21 0L18 0L18 3L17 3L17 4L16 4L16 3L15 3L15 4L14 4L14 3L13 3L13 2L14 2L14 1L15 1L15 0L13 0L13 1L9 1L9 0ZM34 0L34 1L36 1L36 0ZM16 1L16 2L17 2L17 1ZM20 1L20 2L21 2L21 1ZM28 1L28 2L29 2L29 3L28 3L28 4L29 4L29 5L30 5L30 4L31 4L31 1L30 1L30 2L29 2L29 1ZM11 2L11 4L9 4L9 7L10 7L10 6L11 6L11 7L12 7L12 9L11 9L11 8L9 8L9 9L8 9L8 10L10 10L10 11L11 11L11 10L13 10L13 7L14 7L14 8L15 8L15 9L14 9L14 10L15 10L15 12L17 12L17 13L16 13L16 14L18 14L18 11L19 11L19 8L20 8L20 4L21 4L21 7L22 7L22 8L24 8L24 4L23 4L23 3L22 3L22 4L21 4L21 3L18 3L18 5L19 5L19 8L18 8L18 6L17 6L17 9L16 9L16 8L15 8L15 7L16 7L16 4L15 4L15 5L13 5L13 3L12 3L12 2ZM24 2L24 3L25 3L25 4L26 4L26 2ZM42 2L42 3L43 3L43 2ZM29 3L29 4L30 4L30 3ZM11 4L11 5L12 5L12 4ZM22 4L22 7L23 7L23 4ZM25 5L25 8L28 8L28 5ZM12 6L12 7L13 7L13 6ZM14 6L14 7L15 7L15 6ZM26 6L26 7L27 7L27 6ZM29 6L29 7L30 7L30 6ZM39 6L39 7L40 7L40 6ZM41 8L41 9L42 9L42 10L40 10L40 9L38 9L38 10L40 10L40 12L37 12L37 13L36 13L36 12L35 12L35 11L34 11L34 10L33 10L33 11L32 11L32 12L33 12L33 11L34 11L34 12L35 12L35 13L34 13L34 14L35 14L35 13L36 13L36 14L37 14L37 13L38 13L38 14L39 14L39 15L38 15L38 18L39 18L39 19L38 19L38 20L39 20L39 21L38 21L38 22L37 22L37 21L36 21L36 20L37 20L37 18L36 18L36 15L34 15L34 19L33 19L33 20L34 20L34 23L36 23L36 24L35 24L35 25L34 25L34 26L35 26L35 27L36 27L36 28L35 28L35 29L34 29L34 27L32 27L32 26L33 26L33 25L30 25L30 24L31 24L31 23L30 23L30 24L29 24L29 25L30 25L30 26L29 26L29 27L30 27L30 26L31 26L31 28L30 28L30 30L29 30L29 31L28 31L28 32L27 32L27 30L26 30L26 29L25 29L25 30L26 30L26 31L25 31L25 33L26 33L26 35L25 35L25 34L24 34L24 35L25 35L25 36L23 36L23 32L22 32L22 31L23 31L23 30L24 30L24 29L23 29L23 30L21 30L21 29L20 29L20 28L19 28L19 29L18 29L18 28L17 28L17 29L16 29L16 30L17 30L17 29L18 29L18 30L19 30L19 29L20 29L20 31L18 31L18 32L19 32L19 33L18 33L18 35L17 35L17 34L16 34L16 35L17 35L17 37L16 37L16 36L15 36L15 37L14 37L14 38L15 38L15 37L16 37L16 39L17 39L17 41L16 41L16 40L15 40L15 39L14 39L14 40L15 40L15 41L14 41L14 42L13 42L13 41L12 41L12 40L13 40L13 39L12 39L12 38L13 38L13 37L12 37L12 35L10 35L10 37L9 37L9 36L8 36L8 35L9 35L9 34L10 34L10 31L9 31L9 32L8 32L8 35L6 35L6 36L7 36L7 37L4 37L4 38L3 38L3 37L1 37L1 38L2 38L2 40L4 40L4 41L5 41L5 42L7 42L7 43L8 43L8 42L7 42L7 41L9 41L9 43L10 43L10 47L11 47L11 45L12 45L12 47L13 47L13 49L15 49L15 48L17 48L17 47L14 47L14 46L13 46L13 45L15 45L15 44L17 44L17 45L16 45L16 46L18 46L18 43L19 43L19 40L20 40L20 38L23 38L23 37L24 37L24 39L22 39L22 40L23 40L23 41L22 41L22 44L23 44L23 41L24 41L24 40L25 40L25 42L26 42L26 43L25 43L25 44L26 44L26 43L27 43L27 44L29 44L29 47L30 47L30 48L29 48L29 49L30 49L30 50L31 50L31 49L32 49L32 51L33 51L33 49L32 49L32 48L33 48L33 47L34 47L34 46L35 46L35 45L34 45L34 44L33 44L33 41L32 41L32 40L34 40L34 43L35 43L35 41L36 41L36 40L39 40L39 41L38 41L38 42L37 42L37 43L38 43L38 42L40 42L40 43L39 43L39 44L37 44L37 45L36 45L36 47L37 47L37 49L36 49L36 52L37 52L37 49L38 49L38 50L40 50L40 48L39 48L39 47L40 47L40 46L41 46L41 45L40 45L40 43L41 43L41 44L43 44L43 43L42 43L42 42L44 42L44 43L46 43L46 44L47 44L47 43L46 43L46 42L45 42L45 41L47 41L47 40L48 40L48 42L49 42L49 43L48 43L48 44L49 44L49 47L50 47L50 49L49 49L49 51L50 51L50 49L51 49L51 47L52 47L52 46L51 46L51 47L50 47L50 44L49 44L49 43L50 43L50 41L49 41L49 40L48 40L48 39L46 39L46 38L47 38L47 37L46 37L46 38L44 38L44 41L42 41L42 42L41 42L41 41L40 41L40 40L41 40L41 39L43 39L43 37L42 37L42 36L44 36L44 35L41 35L41 34L39 34L39 33L40 33L40 31L42 31L42 30L44 30L44 31L43 31L43 32L42 32L42 34L44 34L44 33L43 33L43 32L44 32L44 31L46 31L46 30L47 30L47 29L46 29L46 30L44 30L44 29L42 29L42 30L41 30L41 29L40 29L40 28L41 28L41 27L40 27L40 26L41 26L41 25L42 25L42 26L43 26L43 27L42 27L42 28L44 28L44 26L43 26L43 25L44 25L44 22L45 22L45 20L44 20L44 18L45 18L45 19L47 19L47 20L46 20L46 24L47 24L47 22L48 22L48 24L49 24L49 23L50 23L50 20L52 20L52 18L51 18L51 19L50 19L50 17L51 17L51 15L52 15L52 14L51 14L51 13L50 13L50 12L49 12L49 13L48 13L48 12L47 12L47 13L46 13L46 14L47 14L47 15L45 15L45 13L44 13L44 15L42 15L42 16L41 16L41 15L40 15L40 14L39 14L39 13L40 13L40 12L42 12L42 10L43 10L43 9L42 9L42 8ZM44 8L44 10L45 10L45 8ZM6 9L6 10L7 10L7 9ZM21 9L21 10L20 10L20 11L22 11L22 12L20 12L20 16L19 16L19 15L18 15L18 16L19 16L19 17L18 17L18 18L16 18L16 19L19 19L19 20L23 20L23 22L24 22L24 24L23 24L23 23L22 23L22 24L23 24L23 25L22 25L22 26L23 26L23 25L24 25L24 24L25 24L25 22L26 22L26 24L28 24L28 22L29 22L29 21L30 21L30 22L32 22L32 23L33 23L33 22L32 22L32 19L31 19L31 17L30 17L30 19L28 19L28 18L27 18L27 17L28 17L28 13L27 13L27 14L26 14L26 16L25 16L25 14L24 14L24 12L23 12L23 11L22 11L22 10L23 10L23 9ZM24 9L24 10L25 10L25 9ZM16 10L16 11L18 11L18 10ZM6 11L6 12L7 12L7 11ZM44 11L44 12L45 12L45 11ZM22 12L22 13L21 13L21 14L22 14L22 13L23 13L23 12ZM42 13L42 14L43 14L43 13ZM47 13L47 14L48 14L48 13ZM49 13L49 15L48 15L48 17L47 17L47 16L45 16L45 15L44 15L44 16L45 16L45 17L47 17L47 19L49 19L49 20L48 20L48 21L49 21L49 20L50 20L50 19L49 19L49 17L50 17L50 15L51 15L51 14L50 14L50 13ZM23 14L23 15L22 15L22 16L23 16L23 17L24 17L24 18L22 18L22 19L23 19L23 20L24 20L24 22L25 22L25 20L26 20L26 21L28 21L28 19L27 19L27 18L26 18L26 17L27 17L27 16L26 16L26 17L24 17L24 14ZM10 15L10 16L9 16L9 18L8 18L8 19L9 19L9 18L10 18L10 20L9 20L9 22L10 22L10 23L11 23L11 22L10 22L10 20L12 20L12 18L10 18L10 16L11 16L11 17L12 17L12 16L11 16L11 15ZM15 15L15 16L17 16L17 15ZM20 16L20 17L21 17L21 16ZM40 16L40 17L41 17L41 16ZM42 16L42 17L43 17L43 18L44 18L44 17L43 17L43 16ZM32 17L32 18L33 18L33 17ZM20 18L20 19L21 19L21 18ZM24 18L24 20L25 20L25 19L26 19L26 20L27 20L27 19L26 19L26 18ZM35 18L35 19L36 19L36 18ZM40 18L40 19L41 19L41 20L40 20L40 21L39 21L39 22L38 22L38 23L37 23L37 22L36 22L36 23L37 23L37 24L36 24L36 26L37 26L37 24L38 24L38 25L39 25L39 24L38 24L38 23L39 23L39 22L40 22L40 21L41 21L41 23L43 23L43 22L44 22L44 20L43 20L43 19L41 19L41 18ZM30 19L30 20L31 20L31 19ZM42 20L42 22L43 22L43 20ZM6 21L6 22L7 22L7 23L6 23L6 24L8 24L8 21ZM13 22L13 25L12 25L12 26L14 26L14 25L15 25L15 24L14 24L14 23L15 23L15 22ZM16 22L16 23L17 23L17 22ZM16 24L16 25L17 25L17 24ZM40 24L40 25L41 25L41 24ZM42 24L42 25L43 25L43 24ZM52 24L52 25L53 25L53 24ZM5 25L5 28L8 28L8 25ZM25 25L25 28L28 28L28 25ZM45 25L45 28L48 28L48 25ZM6 26L6 27L7 27L7 26ZM9 26L9 27L10 27L10 28L9 28L9 29L4 29L4 27L3 27L3 29L4 29L4 30L9 30L9 29L10 29L10 28L11 28L11 27L10 27L10 26ZM20 26L20 27L21 27L21 28L24 28L24 27L21 27L21 26ZM26 26L26 27L27 27L27 26ZM46 26L46 27L47 27L47 26ZM32 28L32 30L30 30L30 31L29 31L29 32L30 32L30 31L31 31L31 32L32 32L32 33L31 33L31 34L30 34L30 33L29 33L29 34L27 34L27 36L26 36L26 37L25 37L25 38L26 38L26 39L25 39L25 40L26 40L26 41L27 41L27 42L29 42L29 43L31 43L31 42L32 42L32 41L31 41L31 42L30 42L30 39L31 39L31 38L32 38L32 37L33 37L33 39L34 39L34 40L35 40L35 39L39 39L39 38L38 38L38 37L37 37L37 36L38 36L38 35L39 35L39 34L38 34L38 33L39 33L39 31L40 31L40 29L39 29L39 28L38 28L38 29L37 29L37 28L36 28L36 29L35 29L35 30L34 30L34 29L33 29L33 28ZM36 29L36 31L35 31L35 33L34 33L34 31L33 31L33 30L32 30L32 31L33 31L33 33L34 33L34 35L35 35L35 33L36 33L36 36L35 36L35 37L34 37L34 36L33 36L33 37L34 37L34 39L35 39L35 37L36 37L36 36L37 36L37 35L38 35L38 34L37 34L37 33L38 33L38 31L39 31L39 29L38 29L38 30L37 30L37 29ZM12 30L12 31L13 31L13 30ZM51 30L51 31L52 31L52 30ZM6 31L6 32L7 32L7 31ZM16 31L16 32L17 32L17 31ZM36 31L36 33L37 33L37 31ZM0 32L0 33L1 33L1 32ZM20 32L20 33L21 33L21 32ZM26 32L26 33L27 33L27 32ZM6 33L6 34L7 34L7 33ZM47 33L47 34L46 34L46 35L47 35L47 34L48 34L48 33ZM20 34L20 35L21 35L21 36L22 36L22 37L23 37L23 36L22 36L22 34ZM31 34L31 35L30 35L30 36L31 36L31 37L30 37L30 38L29 38L29 37L26 37L26 38L27 38L27 39L28 39L28 40L27 40L27 41L28 41L28 40L29 40L29 39L30 39L30 38L31 38L31 37L32 37L32 34ZM51 34L51 35L52 35L52 34ZM18 35L18 38L20 38L20 36L19 36L19 35ZM28 35L28 36L29 36L29 35ZM40 35L40 37L41 37L41 35ZM7 37L7 38L4 38L4 39L7 39L7 40L6 40L6 41L7 41L7 40L10 40L10 43L11 43L11 44L12 44L12 45L13 45L13 44L14 44L14 43L15 43L15 42L14 42L14 43L13 43L13 42L11 42L11 40L10 40L10 39L11 39L11 38L9 38L9 37ZM48 37L48 38L49 38L49 37ZM7 38L7 39L8 39L8 38ZM28 38L28 39L29 39L29 38ZM40 38L40 39L41 39L41 38ZM18 39L18 40L19 40L19 39ZM45 39L45 40L46 40L46 39ZM2 42L2 43L3 43L3 42ZM16 42L16 43L18 43L18 42ZM20 42L20 43L21 43L21 42ZM12 43L12 44L13 44L13 43ZM30 44L30 45L31 45L31 44ZM32 44L32 45L33 45L33 46L34 46L34 45L33 45L33 44ZM23 45L23 46L24 46L24 45ZM25 45L25 48L28 48L28 45ZM37 45L37 46L38 46L38 47L39 47L39 46L38 46L38 45ZM42 45L42 46L43 46L43 47L42 47L42 49L41 49L41 51L44 51L44 50L45 50L45 51L46 51L46 52L47 52L47 51L48 51L48 49L46 49L46 50L45 50L45 49L44 49L44 50L43 50L43 47L44 47L44 45ZM45 45L45 48L48 48L48 45ZM26 46L26 47L27 47L27 46ZM46 46L46 47L47 47L47 46ZM18 47L18 48L19 48L19 47ZM13 50L13 51L14 51L14 50ZM16 50L16 51L17 51L17 50ZM20 50L20 51L21 51L21 52L22 52L22 53L23 53L23 52L22 52L22 50ZM9 51L9 52L11 52L11 51ZM28 52L28 53L30 53L30 52ZM52 52L52 53L53 53L53 52ZM0 0L0 7L7 7L7 0ZM1 1L1 6L6 6L6 1ZM2 2L2 5L5 5L5 2ZM46 0L46 7L53 7L53 0ZM47 1L47 6L52 6L52 1ZM48 2L48 5L51 5L51 2ZM0 46L0 53L7 53L7 46ZM1 47L1 52L6 52L6 47ZM2 48L2 51L5 51L5 48Z" fill="#000000"/></g></g></svg>
