<?xml version="1.0" encoding="UTF-8"?>
<svg xmlns="http://www.w3.org/2000/svg" version="1.1" width="100" height="100" viewBox="0 0 100 100"><rect x="0" y="0" width="100" height="100" fill="#ffffff"/><g transform="scale(1.887)"><g transform="translate(0,0)"><path fill-rule="evenodd" d="M8 0L8 4L11 4L11 3L12 3L12 2L13 2L13 4L14 4L14 5L13 5L13 6L12 6L12 5L8 5L8 7L9 7L9 6L10 6L10 7L11 7L11 8L9 8L9 9L10 9L10 10L11 10L11 8L12 8L12 9L14 9L14 10L13 10L13 11L10 11L10 12L11 12L11 13L12 13L12 12L13 12L13 13L15 13L15 14L12 14L12 17L13 17L13 18L11 18L11 16L9 16L9 14L10 14L10 13L9 13L9 10L8 10L8 12L6 12L6 11L7 11L7 10L4 10L4 11L2 11L2 10L1 10L1 11L2 11L2 12L3 12L3 13L4 13L4 11L5 11L5 13L7 13L7 14L5 14L5 15L4 15L4 14L3 14L3 15L2 15L2 16L0 16L0 17L1 17L1 18L0 18L0 20L2 20L2 22L0 22L0 24L1 24L1 25L0 25L0 26L1 26L1 27L3 27L3 26L4 26L4 31L3 31L3 32L4 32L4 31L8 31L8 32L9 32L9 31L8 31L8 29L9 29L9 30L10 30L10 31L11 31L11 30L13 30L13 31L14 31L14 32L15 32L15 30L16 30L16 29L15 29L15 28L17 28L17 29L18 29L18 30L17 30L17 31L16 31L16 32L17 32L17 31L18 31L18 30L19 30L19 28L20 28L20 31L21 31L21 32L20 32L20 33L19 33L19 32L18 32L18 33L13 33L13 32L11 32L11 34L12 34L12 33L13 33L13 36L12 36L12 35L11 35L11 36L12 36L12 38L11 38L11 37L10 37L10 36L9 36L9 35L10 35L10 33L9 33L9 35L8 35L8 33L7 33L7 32L5 32L5 33L4 33L4 34L5 34L5 35L3 35L3 33L2 33L2 32L0 32L0 33L2 33L2 34L1 34L1 36L0 36L0 37L1 37L1 38L2 38L2 37L3 37L3 38L5 38L5 39L7 39L7 40L6 40L6 41L3 41L3 40L1 40L1 41L2 41L2 42L0 42L0 43L1 43L1 44L3 44L3 45L4 45L4 44L3 44L3 43L7 43L7 44L6 44L6 45L7 45L7 44L8 44L8 46L9 46L9 45L10 45L10 46L12 46L12 50L9 50L9 51L8 51L8 53L10 53L10 52L12 52L12 53L14 53L14 52L13 52L13 51L14 51L14 48L16 48L16 47L18 47L18 46L19 46L19 48L18 48L18 49L15 49L15 51L16 51L16 50L18 50L18 51L17 51L17 52L16 52L16 53L19 53L19 51L20 51L20 50L21 50L21 51L22 51L22 52L21 52L21 53L22 53L22 52L23 52L23 53L25 53L25 52L26 52L26 51L28 51L28 52L27 52L27 53L28 53L28 52L29 52L29 53L31 53L31 49L30 49L30 48L31 48L31 45L29 45L29 43L31 43L31 41L33 41L33 43L34 43L34 44L35 44L35 43L36 43L36 45L35 45L35 46L36 46L36 48L33 48L33 47L34 47L34 45L33 45L33 44L32 44L32 45L33 45L33 46L32 46L32 53L33 53L33 51L34 51L34 49L35 49L35 53L40 53L40 51L41 51L41 50L43 50L43 51L42 51L42 52L41 52L41 53L44 53L44 52L45 52L45 53L48 53L48 52L47 52L47 51L44 51L44 50L45 50L45 49L46 49L46 50L48 50L48 49L50 49L50 45L51 45L51 44L52 44L52 47L51 47L51 48L52 48L52 47L53 47L53 38L52 38L52 39L51 39L51 37L52 37L52 36L53 36L53 32L52 32L52 31L53 31L53 30L52 30L52 29L53 29L53 26L52 26L52 29L51 29L51 28L50 28L50 27L51 27L51 26L50 26L50 25L52 25L52 24L53 24L53 22L52 22L52 21L53 21L53 20L52 20L52 19L53 19L53 17L52 17L52 16L53 16L53 13L51 13L51 12L53 12L53 8L49 8L49 10L50 10L50 11L48 11L48 12L46 12L46 9L45 9L45 8L41 8L41 10L40 10L40 9L38 9L38 8L37 8L37 6L38 6L38 7L39 7L39 4L38 4L38 5L37 5L37 4L36 4L36 5L37 5L37 6L36 6L36 7L35 7L35 6L34 6L34 4L33 4L33 6L32 6L32 7L31 7L31 5L32 5L32 3L33 3L33 2L32 2L32 1L34 1L34 0L27 0L27 1L26 1L26 0L24 0L24 1L26 1L26 2L22 2L22 4L20 4L20 5L19 5L19 6L18 6L18 5L16 5L16 3L15 3L15 4L14 4L14 2L13 2L13 1L16 1L16 2L17 2L17 1L20 1L20 2L21 2L21 1L23 1L23 0L12 0L12 2L11 2L11 3L9 3L9 2L10 2L10 1L11 1L11 0L10 0L10 1L9 1L9 0ZM38 0L38 1L36 1L36 2L35 2L35 3L36 3L36 2L37 2L37 3L40 3L40 5L42 5L42 7L43 7L43 3L44 3L44 4L45 4L45 3L44 3L44 1L43 1L43 0L41 0L41 1L42 1L42 2L41 2L41 3L40 3L40 0ZM27 1L27 2L26 2L26 3L25 3L25 4L26 4L26 3L29 3L29 4L31 4L31 3L32 3L32 2L31 2L31 1ZM38 1L38 2L39 2L39 1ZM30 2L30 3L31 3L31 2ZM42 2L42 3L41 3L41 4L42 4L42 3L43 3L43 2ZM23 3L23 4L22 4L22 5L20 5L20 6L19 6L19 8L18 8L18 9L17 9L17 7L18 7L18 6L17 6L17 7L16 7L16 5L15 5L15 7L14 7L14 6L13 6L13 7L14 7L14 8L15 8L15 7L16 7L16 9L15 9L15 10L14 10L14 12L15 12L15 11L16 11L16 10L18 10L18 9L19 9L19 11L20 11L20 10L21 10L21 12L20 12L20 13L17 13L17 12L16 12L16 14L15 14L15 15L17 15L17 16L14 16L14 15L13 15L13 17L18 17L18 16L19 16L19 17L20 17L20 16L21 16L21 15L22 15L22 16L23 16L23 17L21 17L21 18L20 18L20 19L19 19L19 20L21 20L21 21L23 21L23 23L24 23L24 24L25 24L25 23L26 23L26 24L27 24L27 23L28 23L28 24L30 24L30 25L32 25L32 24L33 24L33 25L34 25L34 26L35 26L35 27L36 27L36 28L38 28L38 29L35 29L35 28L34 28L34 27L32 27L32 26L30 26L30 27L31 27L31 29L32 29L32 28L33 28L33 29L34 29L34 30L37 30L37 34L38 34L38 35L40 35L40 37L39 37L39 38L38 38L38 37L37 37L37 38L36 38L36 40L40 40L40 41L39 41L39 42L38 42L38 41L36 41L36 43L37 43L37 42L38 42L38 43L39 43L39 44L38 44L38 45L37 45L37 51L36 51L36 52L37 52L37 51L38 51L38 52L39 52L39 51L40 51L40 49L41 49L41 48L40 48L40 49L39 49L39 47L41 47L41 45L42 45L42 44L44 44L44 43L45 43L45 44L49 44L49 42L48 42L48 43L46 43L46 41L45 41L45 39L46 39L46 40L47 40L47 39L46 39L46 38L47 38L47 37L46 37L46 36L44 36L44 35L46 35L46 34L47 34L47 36L49 36L49 35L50 35L50 37L49 37L49 38L48 38L48 40L49 40L49 39L50 39L50 40L51 40L51 41L50 41L50 44L51 44L51 43L52 43L52 40L51 40L51 39L50 39L50 37L51 37L51 36L52 36L52 34L51 34L51 31L52 31L52 30L51 30L51 29L50 29L50 28L49 28L49 29L50 29L50 31L49 31L49 30L47 30L47 31L49 31L49 32L48 32L48 33L46 33L46 30L45 30L45 29L44 29L44 27L42 27L42 26L41 26L41 24L40 24L40 23L41 23L41 21L43 21L43 22L42 22L42 25L44 25L44 23L47 23L47 24L49 24L49 22L47 22L47 20L46 20L46 18L49 18L49 19L48 19L48 20L49 20L49 21L50 21L50 24L51 24L51 23L52 23L52 22L51 22L51 21L52 21L52 20L51 20L51 19L52 19L52 18L51 18L51 16L52 16L52 14L50 14L50 13L49 13L49 15L48 15L48 14L47 14L47 13L46 13L46 12L45 12L45 11L44 11L44 9L43 9L43 10L41 10L41 11L44 11L44 12L45 12L45 13L46 13L46 14L44 14L44 13L43 13L43 14L40 14L40 13L42 13L42 12L40 12L40 10L39 10L39 12L37 12L37 14L35 14L35 12L36 12L36 11L35 11L35 12L34 12L34 10L36 10L36 9L35 9L35 7L34 7L34 6L33 6L33 7L32 7L32 8L31 8L31 7L30 7L30 5L29 5L29 7L30 7L30 9L31 9L31 15L30 15L30 14L29 14L29 12L30 12L30 10L29 10L29 9L27 9L27 11L26 11L26 12L25 12L25 9L24 9L24 5L23 5L23 4L24 4L24 3ZM22 5L22 8L23 8L23 5ZM25 5L25 8L28 8L28 5ZM11 6L11 7L12 7L12 6ZM20 6L20 8L19 8L19 9L21 9L21 6ZM26 6L26 7L27 7L27 6ZM40 6L40 7L41 7L41 6ZM44 6L44 7L45 7L45 6ZM33 7L33 8L32 8L32 10L34 10L34 9L33 9L33 8L34 8L34 7ZM0 8L0 9L2 9L2 8ZM4 8L4 9L7 9L7 8ZM47 8L47 9L48 9L48 8ZM50 9L50 10L51 10L51 11L50 11L50 12L51 12L51 11L52 11L52 9ZM22 10L22 12L21 12L21 13L20 13L20 15L19 15L19 16L20 16L20 15L21 15L21 14L22 14L22 12L23 12L23 13L25 13L25 12L23 12L23 11L24 11L24 10ZM28 10L28 11L29 11L29 10ZM32 12L32 14L33 14L33 15L34 15L34 17L33 17L33 16L32 16L32 15L31 15L31 16L32 16L32 17L33 17L33 18L32 18L32 19L30 19L30 18L31 18L31 17L27 17L27 16L28 16L28 15L29 15L29 16L30 16L30 15L29 15L29 14L28 14L28 13L27 13L27 14L26 14L26 15L25 15L25 14L24 14L24 15L23 15L23 16L24 16L24 18L22 18L22 19L21 19L21 20L23 20L23 21L25 21L25 22L24 22L24 23L25 23L25 22L26 22L26 23L27 23L27 20L26 20L26 19L25 19L25 18L28 18L28 21L29 21L29 22L28 22L28 23L29 23L29 22L31 22L31 23L30 23L30 24L31 24L31 23L33 23L33 21L36 21L36 22L37 22L37 23L38 23L38 22L39 22L39 23L40 23L40 20L38 20L38 19L39 19L39 18L40 18L40 19L41 19L41 20L44 20L44 22L43 22L43 23L44 23L44 22L46 22L46 20L44 20L44 19L45 19L45 18L46 18L46 17L45 17L45 16L44 16L44 15L43 15L43 16L44 16L44 18L43 18L43 17L40 17L40 16L41 16L41 15L40 15L40 14L39 14L39 13L40 13L40 12L39 12L39 13L38 13L38 14L39 14L39 17L38 17L38 16L37 16L37 15L34 15L34 13L33 13L33 12ZM1 13L1 14L2 14L2 13ZM17 14L17 15L18 15L18 14ZM27 14L27 15L26 15L26 16L25 16L25 15L24 15L24 16L25 16L25 17L26 17L26 16L27 16L27 15L28 15L28 14ZM46 14L46 16L47 16L47 17L50 17L50 15L49 15L49 16L48 16L48 15L47 15L47 14ZM3 15L3 17L2 17L2 18L1 18L1 19L2 19L2 20L4 20L4 22L2 22L2 23L1 23L1 24L3 24L3 23L4 23L4 24L9 24L9 26L10 26L10 27L11 27L11 26L12 26L12 25L13 25L13 26L14 26L14 25L13 25L13 23L14 23L14 24L16 24L16 25L15 25L15 27L14 27L14 28L10 28L10 30L11 30L11 29L14 29L14 28L15 28L15 27L16 27L16 26L18 26L18 25L19 25L19 27L17 27L17 28L19 28L19 27L20 27L20 26L21 26L21 25L22 25L22 26L24 26L24 25L23 25L23 24L22 24L22 23L20 23L20 24L21 24L21 25L19 25L19 24L18 24L18 25L17 25L17 24L16 24L16 22L17 22L17 23L18 23L18 22L20 22L20 21L15 21L15 22L13 22L13 23L11 23L11 24L12 24L12 25L11 25L11 26L10 26L10 24L9 24L9 23L10 23L10 22L12 22L12 21L14 21L14 20L18 20L18 18L16 18L16 19L15 19L15 18L14 18L14 19L13 19L13 20L12 20L12 19L11 19L11 18L10 18L10 17L9 17L9 16L8 16L8 15L6 15L6 16L5 16L5 18L4 18L4 15ZM6 16L6 17L7 17L7 18L5 18L5 19L7 19L7 20L5 20L5 21L8 21L8 22L4 22L4 23L8 23L8 22L9 22L9 21L10 21L10 20L11 20L11 21L12 21L12 20L11 20L11 19L9 19L9 21L8 21L8 16ZM34 17L34 19L35 19L35 20L37 20L37 19L38 19L38 17ZM2 18L2 19L4 19L4 18ZM35 18L35 19L37 19L37 18ZM41 18L41 19L43 19L43 18ZM50 18L50 19L49 19L49 20L50 20L50 19L51 19L51 18ZM23 19L23 20L25 20L25 19ZM29 20L29 21L31 21L31 22L32 22L32 21L31 21L31 20ZM37 21L37 22L38 22L38 21ZM35 24L35 25L37 25L37 26L36 26L36 27L38 27L38 28L39 28L39 29L38 29L38 34L39 34L39 33L40 33L40 31L39 31L39 29L40 29L40 28L41 28L41 26L40 26L40 28L39 28L39 25L40 25L40 24L39 24L39 25L37 25L37 24ZM5 25L5 28L8 28L8 25ZM25 25L25 28L28 28L28 25ZM45 25L45 28L48 28L48 25ZM6 26L6 27L7 27L7 26ZM26 26L26 27L27 27L27 26ZM46 26L46 27L47 27L47 26ZM49 26L49 27L50 27L50 26ZM0 28L0 30L1 30L1 31L2 31L2 29L1 29L1 28ZM21 28L21 29L23 29L23 30L21 30L21 31L22 31L22 32L23 32L23 33L21 33L21 34L20 34L20 35L19 35L19 36L20 36L20 37L19 37L19 38L20 38L20 39L19 39L19 40L18 40L18 41L17 41L17 39L18 39L18 37L17 37L17 35L18 35L18 34L16 34L16 35L15 35L15 34L14 34L14 35L15 35L15 36L16 36L16 41L15 41L15 43L16 43L16 42L17 42L17 44L16 44L16 46L15 46L15 45L14 45L14 47L13 47L13 48L14 48L14 47L16 47L16 46L18 46L18 45L17 45L17 44L18 44L18 43L20 43L20 42L21 42L21 41L22 41L22 43L21 43L21 44L20 44L20 45L19 45L19 46L20 46L20 45L21 45L21 47L20 47L20 48L19 48L19 49L20 49L20 48L21 48L21 47L22 47L22 48L23 48L23 49L21 49L21 50L22 50L22 51L23 51L23 49L24 49L24 47L23 47L23 46L24 46L24 43L25 43L25 44L26 44L26 42L25 42L25 41L26 41L26 39L27 39L27 44L28 44L28 39L29 39L29 41L30 41L30 40L31 40L31 38L32 38L32 36L37 36L37 35L35 35L35 31L34 31L34 35L33 35L33 33L32 33L32 32L31 32L31 30L29 30L29 29L28 29L28 30L29 30L29 32L28 32L28 31L27 31L27 29L26 29L26 32L24 32L24 31L25 31L25 29L24 29L24 28ZM42 28L42 29L41 29L41 31L44 31L44 32L42 32L42 33L41 33L41 34L40 34L40 35L41 35L41 37L40 37L40 38L39 38L39 39L40 39L40 40L41 40L41 41L40 41L40 44L39 44L39 45L38 45L38 46L40 46L40 44L41 44L41 43L43 43L43 42L45 42L45 41L44 41L44 39L45 39L45 38L46 38L46 37L44 37L44 36L43 36L43 37L42 37L42 35L43 35L43 34L44 34L44 33L45 33L45 34L46 34L46 33L45 33L45 30L43 30L43 28ZM5 29L5 30L7 30L7 29ZM23 30L23 31L24 31L24 30ZM32 30L32 31L33 31L33 30ZM26 32L26 35L27 35L27 33L28 33L28 37L27 37L27 36L26 36L26 38L27 38L27 39L28 39L28 37L29 37L29 38L31 38L31 37L30 37L30 36L29 36L29 35L31 35L31 36L32 36L32 35L31 35L31 34L32 34L32 33L30 33L30 32L29 32L29 33L28 33L28 32ZM5 33L5 34L7 34L7 33ZM48 33L48 34L50 34L50 35L51 35L51 34L50 34L50 33ZM21 34L21 35L22 35L22 36L21 36L21 37L20 37L20 38L21 38L21 39L20 39L20 40L19 40L19 41L18 41L18 42L19 42L19 41L21 41L21 39L22 39L22 40L23 40L23 41L25 41L25 40L24 40L24 39L25 39L25 37L24 37L24 34L23 34L23 35L22 35L22 34ZM41 34L41 35L42 35L42 34ZM2 35L2 36L1 36L1 37L2 37L2 36L3 36L3 35ZM5 35L5 36L7 36L7 35ZM13 36L13 39L12 39L12 40L13 40L13 39L14 39L14 40L15 40L15 38L14 38L14 36ZM22 36L22 37L21 37L21 38L23 38L23 36ZM5 37L5 38L7 38L7 39L8 39L8 40L9 40L9 41L8 41L8 42L7 42L7 41L6 41L6 42L7 42L7 43L9 43L9 44L10 44L10 45L12 45L12 46L13 46L13 45L12 45L12 44L13 44L13 43L12 43L12 44L11 44L11 43L9 43L9 42L14 42L14 41L11 41L11 39L9 39L9 38L10 38L10 37ZM34 37L34 38L33 38L33 39L34 39L34 40L33 40L33 41L34 41L34 43L35 43L35 41L34 41L34 40L35 40L35 39L34 39L34 38L35 38L35 37ZM41 37L41 38L40 38L40 39L41 39L41 40L43 40L43 39L44 39L44 37L43 37L43 39L42 39L42 37ZM2 42L2 43L3 43L3 42ZM23 42L23 43L22 43L22 44L21 44L21 45L22 45L22 46L23 46L23 45L22 45L22 44L23 44L23 43L24 43L24 42ZM25 45L25 48L28 48L28 45ZM43 45L43 46L42 46L42 49L43 49L43 50L44 50L44 49L43 49L43 48L44 48L44 45ZM45 45L45 48L48 48L48 45ZM26 46L26 47L27 47L27 46ZM46 46L46 47L47 47L47 46ZM8 47L8 49L9 49L9 47ZM25 49L25 50L26 50L26 49ZM28 49L28 50L29 50L29 49ZM38 49L38 50L39 50L39 49ZM50 50L50 51L49 51L49 52L50 52L50 53L52 53L52 52L53 52L53 51L51 51L51 50ZM9 51L9 52L10 52L10 51ZM24 51L24 52L25 52L25 51ZM29 51L29 52L30 52L30 51ZM43 51L43 52L44 52L44 51ZM50 51L50 52L51 52L51 51ZM0 0L0 7L7 7L7 0ZM1 1L1 6L6 6L6 1ZM2 2L2 5L5 5L5 2ZM46 0L46 7L53 7L53 0ZM47 1L47 6L52 6L52 1ZM48 2L48 5L51 5L51 2ZM0 46L0 53L7 53L7 46ZM1 47L1 52L6 52L6 47ZM2 48L2 51L5 51L5 48Z" fill="#000000"/></g></g></svg>
