<?xml version="1.0" encoding="UTF-8"?>
<svg xmlns="http://www.w3.org/2000/svg" version="1.1" width="100" height="100" viewBox="0 0 100 100"><rect x="0" y="0" width="100" height="100" fill="#ffffff"/><g transform="scale(1.887)"><g transform="translate(0,0)"><path fill-rule="evenodd" d="M8 0L8 2L9 2L9 4L8 4L8 10L9 10L9 14L8 14L8 13L7 13L7 12L8 12L8 11L7 11L7 10L6 10L6 9L7 9L7 8L5 8L5 9L3 9L3 8L0 8L0 11L1 11L1 10L2 10L2 11L4 11L4 12L3 12L3 15L4 15L4 17L2 17L2 20L3 20L3 21L5 21L5 22L3 22L3 23L2 23L2 22L0 22L0 23L1 23L1 24L3 24L3 26L2 26L2 28L1 28L1 29L0 29L0 34L1 34L1 35L2 35L2 34L3 34L3 36L0 36L0 39L2 39L2 38L1 38L1 37L4 37L4 35L7 35L7 34L11 34L11 36L10 36L10 35L8 35L8 38L6 38L6 37L7 37L7 36L6 36L6 37L5 37L5 38L3 38L3 39L8 39L8 38L9 38L9 39L10 39L10 37L12 37L12 33L11 33L11 32L12 32L12 31L13 31L13 29L12 29L12 28L13 28L13 27L14 27L14 30L15 30L15 31L14 31L14 32L15 32L15 35L14 35L14 34L13 34L13 35L14 35L14 38L13 38L13 39L12 39L12 38L11 38L11 39L12 39L12 41L11 41L11 42L10 42L10 44L9 44L9 42L8 42L8 44L9 44L9 45L8 45L8 46L10 46L10 47L8 47L8 48L9 48L9 50L8 50L8 53L9 53L9 51L10 51L10 52L12 52L12 53L14 53L14 52L15 52L15 53L16 53L16 52L17 52L17 51L16 51L16 50L18 50L18 53L19 53L19 50L18 50L18 49L19 49L19 48L20 48L20 49L21 49L21 48L20 48L20 47L19 47L19 46L20 46L20 44L22 44L22 46L23 46L23 47L22 47L22 48L23 48L23 52L22 52L22 50L20 50L20 51L21 51L21 52L22 52L22 53L23 53L23 52L24 52L24 53L25 53L25 52L24 52L24 49L25 49L25 50L26 50L26 49L29 49L29 50L28 50L28 51L29 51L29 50L30 50L30 51L31 51L31 52L32 52L32 53L33 53L33 51L34 51L34 49L33 49L33 48L36 48L36 49L35 49L35 51L36 51L36 49L37 49L37 52L36 52L36 53L39 53L39 52L38 52L38 51L39 51L39 50L38 50L38 49L37 49L37 46L38 46L38 47L39 47L39 48L40 48L40 49L41 49L41 51L40 51L40 53L42 53L42 52L43 52L43 51L42 51L42 49L43 49L43 50L44 50L44 51L45 51L45 52L44 52L44 53L48 53L48 52L49 52L49 53L51 53L51 52L50 52L50 51L49 51L49 50L51 50L51 49L52 49L52 48L53 48L53 45L52 45L52 44L50 44L50 43L49 43L49 44L48 44L48 43L47 43L47 42L48 42L48 41L50 41L50 42L51 42L51 41L52 41L52 43L53 43L53 38L52 38L52 40L50 40L50 35L51 35L51 36L52 36L52 37L53 37L53 36L52 36L52 35L53 35L53 33L51 33L51 34L50 34L50 33L49 33L49 36L48 36L48 32L49 32L49 30L48 30L48 29L50 29L50 31L51 31L51 32L52 32L52 31L53 31L53 29L52 29L52 27L53 27L53 26L52 26L52 27L51 27L51 26L50 26L50 25L52 25L52 24L53 24L53 21L52 21L52 20L53 20L53 12L50 12L50 10L49 10L49 8L45 8L45 10L42 10L42 8L41 8L41 6L42 6L42 7L43 7L43 8L44 8L44 7L45 7L45 6L44 6L44 7L43 7L43 3L44 3L44 4L45 4L45 3L44 3L44 1L43 1L43 0L41 0L41 3L42 3L42 5L41 5L41 4L40 4L40 5L39 5L39 4L38 4L38 3L39 3L39 2L38 2L38 1L39 1L39 0L38 0L38 1L37 1L37 2L35 2L35 3L34 3L34 4L32 4L32 3L30 3L30 2L28 2L28 1L29 1L29 0L27 0L27 2L26 2L26 0L23 0L23 1L24 1L24 2L20 2L20 1L21 1L21 0L18 0L18 3L16 3L16 9L17 9L17 6L18 6L18 8L19 8L19 11L18 11L18 10L16 10L16 11L18 11L18 14L16 14L16 13L17 13L17 12L16 12L16 13L15 13L15 10L14 10L14 9L15 9L15 8L14 8L14 7L15 7L15 6L14 6L14 7L13 7L13 6L12 6L12 8L11 8L11 9L12 9L12 10L13 10L13 14L16 14L16 16L15 16L15 15L14 15L14 16L15 16L15 18L14 18L14 19L15 19L15 20L14 20L14 21L13 21L13 20L12 20L12 19L13 19L13 18L12 18L12 19L11 19L11 18L10 18L10 16L9 16L9 15L11 15L11 17L13 17L13 16L12 16L12 14L11 14L11 13L12 13L12 11L11 11L11 10L10 10L10 7L11 7L11 6L10 6L10 5L14 5L14 2L15 2L15 0L13 0L13 1L14 1L14 2L12 2L12 1L9 1L9 0ZM30 0L30 1L31 1L31 0ZM32 0L32 1L33 1L33 0ZM34 0L34 1L36 1L36 0ZM16 1L16 2L17 2L17 1ZM11 2L11 3L12 3L12 2ZM24 2L24 3L25 3L25 4L26 4L26 2ZM27 2L27 3L28 3L28 4L29 4L29 7L30 7L30 10L29 10L29 9L26 9L26 10L27 10L27 11L26 11L26 13L27 13L27 14L26 14L26 16L25 16L25 15L24 15L24 12L25 12L25 11L24 11L24 12L23 12L23 11L22 11L22 12L20 12L20 16L19 16L19 15L18 15L18 16L19 16L19 17L18 17L18 18L16 18L16 19L19 19L19 20L23 20L23 22L24 22L24 24L25 24L25 22L26 22L26 24L27 24L27 19L28 19L28 21L29 21L29 20L31 20L31 21L30 21L30 22L29 22L29 23L30 23L30 24L31 24L31 25L30 25L30 26L32 26L32 24L33 24L33 23L36 23L36 24L35 24L35 25L34 25L34 26L35 26L35 28L34 28L34 27L31 27L31 28L30 28L30 27L29 27L29 28L30 28L30 30L29 30L29 29L27 29L27 30L26 30L26 29L25 29L25 30L26 30L26 31L27 31L27 30L29 30L29 31L28 31L28 32L27 32L27 33L26 33L26 32L25 32L25 33L26 33L26 35L23 35L23 34L24 34L24 33L23 33L23 32L22 32L22 31L23 31L23 30L24 30L24 29L23 29L23 30L21 30L21 29L20 29L20 28L19 28L19 24L18 24L18 23L20 23L20 24L21 24L21 21L20 21L20 22L18 22L18 20L16 20L16 23L14 23L14 24L15 24L15 25L14 25L14 27L15 27L15 29L16 29L16 31L15 31L15 32L17 32L17 30L19 30L19 29L20 29L20 31L18 31L18 32L19 32L19 33L18 33L18 34L16 34L16 35L17 35L17 36L15 36L15 39L14 39L14 40L15 40L15 41L14 41L14 42L13 42L13 41L12 41L12 44L10 44L10 46L11 46L11 47L10 47L10 50L15 50L15 49L14 49L14 48L13 48L13 47L15 47L15 48L16 48L16 47L17 47L17 45L18 45L18 46L19 46L19 45L18 45L18 44L19 44L19 43L18 43L18 42L19 42L19 40L20 40L20 38L23 38L23 37L22 37L22 36L24 36L24 39L22 39L22 40L23 40L23 41L22 41L22 44L23 44L23 41L24 41L24 42L25 42L25 39L26 39L26 40L27 40L27 41L28 41L28 40L31 40L31 41L30 41L30 42L29 42L29 43L28 43L28 44L29 44L29 49L30 49L30 50L31 50L31 49L32 49L32 51L33 51L33 49L32 49L32 48L33 48L33 47L34 47L34 46L35 46L35 45L36 45L36 46L37 46L37 45L36 45L36 44L35 44L35 41L36 41L36 40L39 40L39 41L38 41L38 42L37 42L37 44L38 44L38 46L40 46L40 48L41 48L41 46L40 46L40 44L43 44L43 42L44 42L44 43L46 43L46 44L47 44L47 43L46 43L46 41L47 41L47 40L48 40L48 39L49 39L49 37L48 37L48 39L46 39L46 38L47 38L47 37L46 37L46 36L47 36L47 35L46 35L46 33L47 33L47 32L48 32L48 31L46 31L46 30L44 30L44 31L43 31L43 32L44 32L44 33L45 33L45 34L44 34L44 35L43 35L43 33L42 33L42 34L41 34L41 33L40 33L40 31L41 31L41 32L42 32L42 30L43 30L43 28L44 28L44 26L43 26L43 24L44 24L44 23L45 23L45 24L46 24L46 23L47 23L47 24L49 24L49 23L50 23L50 24L52 24L52 21L51 21L51 23L50 23L50 20L52 20L52 18L51 18L51 19L50 19L50 18L49 18L49 17L48 17L48 18L47 18L47 17L46 17L46 18L47 18L47 20L46 20L46 19L45 19L45 16L46 16L46 15L45 15L45 13L44 13L44 12L45 12L45 11L42 11L42 12L41 12L41 11L40 11L40 10L41 10L41 9L40 9L40 10L39 10L39 9L38 9L38 8L39 8L39 7L40 7L40 6L41 6L41 5L40 5L40 6L39 6L39 5L38 5L38 4L37 4L37 3L36 3L36 4L35 4L35 9L34 9L34 10L33 10L33 9L32 9L32 10L31 10L31 7L32 7L32 6L31 6L31 5L32 5L32 4L31 4L31 5L30 5L30 3L28 3L28 2ZM42 2L42 3L43 3L43 2ZM18 3L18 5L19 5L19 8L20 8L20 4L21 4L21 7L22 7L22 8L23 8L23 9L21 9L21 10L20 10L20 11L21 11L21 10L23 10L23 9L24 9L24 10L25 10L25 9L24 9L24 5L23 5L23 7L22 7L22 4L23 4L23 3L22 3L22 4L21 4L21 3ZM25 5L25 8L28 8L28 5ZM36 5L36 9L37 9L37 5ZM9 6L9 7L10 7L10 6ZM26 6L26 7L27 7L27 6ZM30 6L30 7L31 7L31 6ZM33 6L33 8L34 8L34 6ZM38 6L38 7L39 7L39 6ZM51 8L51 9L52 9L52 11L53 11L53 8ZM2 9L2 10L3 10L3 9ZM46 9L46 12L47 12L47 13L46 13L46 14L47 14L47 15L49 15L49 14L48 14L48 12L49 12L49 11L48 11L48 12L47 12L47 9ZM5 10L5 11L6 11L6 12L5 12L5 13L4 13L4 15L5 15L5 13L6 13L6 14L7 14L7 15L6 15L6 16L7 16L7 17L4 17L4 18L5 18L5 19L4 19L4 20L5 20L5 21L6 21L6 22L7 22L7 23L3 23L3 24L7 24L7 23L8 23L8 24L11 24L11 26L13 26L13 24L11 24L11 22L10 22L10 21L11 21L11 19L8 19L8 18L9 18L9 17L8 17L8 14L7 14L7 13L6 13L6 12L7 12L7 11L6 11L6 10ZM28 10L28 11L27 11L27 13L28 13L28 15L27 15L27 16L26 16L26 18L25 18L25 16L24 16L24 15L22 15L22 16L23 16L23 18L22 18L22 19L23 19L23 20L24 20L24 22L25 22L25 21L26 21L26 19L27 19L27 18L28 18L28 19L29 19L29 18L30 18L30 19L31 19L31 20L32 20L32 21L31 21L31 22L30 22L30 23L32 23L32 21L33 21L33 22L34 22L34 21L35 21L35 19L36 19L36 21L37 21L37 22L36 22L36 23L37 23L37 24L36 24L36 26L37 26L37 24L38 24L38 25L39 25L39 24L38 24L38 20L40 20L40 21L39 21L39 22L40 22L40 21L41 21L41 23L42 23L42 20L43 20L43 19L41 19L41 18L40 18L40 19L39 19L39 18L38 18L38 17L39 17L39 16L37 16L37 15L38 15L38 12L39 12L39 11L36 11L36 10L34 10L34 11L36 11L36 13L37 13L37 14L36 14L36 18L35 18L35 19L34 19L34 15L35 15L35 14L34 14L34 12L32 12L32 13L33 13L33 14L34 14L34 15L33 15L33 16L32 16L32 14L31 14L31 16L32 16L32 18L30 18L30 17L29 17L29 12L30 12L30 13L31 13L31 10L30 10L30 11L29 11L29 10ZM32 10L32 11L33 11L33 10ZM10 11L10 12L11 12L11 11ZM0 12L0 19L1 19L1 14L2 14L2 12ZM22 12L22 13L21 13L21 14L22 14L22 13L23 13L23 12ZM40 12L40 13L39 13L39 14L40 14L40 15L41 15L41 16L40 16L40 17L43 17L43 16L44 16L44 15L43 15L43 14L44 14L44 13L43 13L43 12L42 12L42 13L41 13L41 12ZM42 13L42 14L43 14L43 13ZM50 13L50 14L51 14L51 13ZM50 15L50 17L51 17L51 15ZM20 16L20 17L21 17L21 16ZM6 18L6 19L5 19L5 20L6 20L6 21L9 21L9 20L8 20L8 19L7 19L7 18ZM20 18L20 19L21 19L21 18ZM24 18L24 20L25 20L25 18ZM36 18L36 19L37 19L37 20L38 20L38 19L37 19L37 18ZM6 19L6 20L7 20L7 19ZM33 19L33 21L34 21L34 19ZM40 19L40 20L41 20L41 19ZM44 19L44 21L43 21L43 23L44 23L44 21L45 21L45 23L46 23L46 20L45 20L45 19ZM49 19L49 20L48 20L48 21L49 21L49 20L50 20L50 19ZM0 20L0 21L1 21L1 20ZM14 21L14 22L15 22L15 21ZM8 22L8 23L10 23L10 22ZM12 22L12 23L13 23L13 22ZM16 23L16 25L17 25L17 23ZM22 23L22 24L23 24L23 23ZM40 24L40 25L41 25L41 26L40 26L40 27L42 27L42 28L40 28L40 29L39 29L39 30L40 30L40 29L41 29L41 30L42 30L42 28L43 28L43 27L42 27L42 24ZM0 25L0 26L1 26L1 25ZM5 25L5 28L8 28L8 25ZM22 25L22 26L23 26L23 27L21 27L21 26L20 26L20 27L21 27L21 28L23 28L23 27L24 27L24 26L23 26L23 25ZM25 25L25 28L28 28L28 25ZM45 25L45 28L48 28L48 25ZM3 26L3 29L2 29L2 30L1 30L1 32L2 32L2 33L1 33L1 34L2 34L2 33L3 33L3 34L4 34L4 33L3 33L3 32L4 32L4 31L3 31L3 29L4 29L4 26ZM6 26L6 27L7 27L7 26ZM16 26L16 27L17 27L17 28L16 28L16 29L17 29L17 28L18 28L18 29L19 29L19 28L18 28L18 26ZM26 26L26 27L27 27L27 26ZM46 26L46 27L47 27L47 26ZM37 27L37 28L36 28L36 30L38 30L38 29L37 29L37 28L38 28L38 27ZM50 27L50 29L51 29L51 31L52 31L52 29L51 29L51 27ZM32 28L32 29L31 29L31 30L30 30L30 32L28 32L28 34L27 34L27 36L26 36L26 37L25 37L25 38L26 38L26 39L27 39L27 40L28 40L28 37L27 37L27 36L28 36L28 34L30 34L30 33L31 33L31 30L32 30L32 29L33 29L33 31L34 31L34 33L33 33L33 32L32 32L32 33L33 33L33 35L32 35L32 34L31 34L31 35L32 35L32 37L31 37L31 36L30 36L30 35L29 35L29 38L30 38L30 39L32 39L32 37L33 37L33 38L34 38L34 40L32 40L32 41L31 41L31 42L32 42L32 41L33 41L33 44L32 44L32 43L31 43L31 44L30 44L30 45L31 45L31 46L32 46L32 47L33 47L33 46L34 46L34 45L35 45L35 44L34 44L34 40L35 40L35 39L36 39L36 38L34 38L34 36L35 36L35 35L36 35L36 33L37 33L37 34L38 34L38 36L36 36L36 37L37 37L37 38L38 38L38 39L39 39L39 40L40 40L40 42L38 42L38 44L39 44L39 43L40 43L40 42L41 42L41 43L42 43L42 40L43 40L43 41L44 41L44 42L45 42L45 41L44 41L44 40L45 40L45 39L44 39L44 38L43 38L43 39L42 39L42 40L40 40L40 38L41 38L41 34L38 34L38 33L39 33L39 31L38 31L38 33L37 33L37 31L36 31L36 33L35 33L35 30L34 30L34 28ZM6 29L6 30L5 30L5 32L8 32L8 33L10 33L10 32L8 32L8 31L9 31L9 30L10 30L10 31L11 31L11 30L12 30L12 29L11 29L11 30L10 30L10 29L8 29L8 31L6 31L6 30L7 30L7 29ZM44 31L44 32L45 32L45 33L46 33L46 31ZM20 32L20 33L21 33L21 32ZM5 33L5 34L7 34L7 33ZM34 33L34 35L35 35L35 33ZM20 34L20 35L21 35L21 36L22 36L22 34ZM51 34L51 35L52 35L52 34ZM18 35L18 37L19 37L19 38L20 38L20 36L19 36L19 35ZM39 35L39 37L38 37L38 38L40 38L40 35ZM42 35L42 37L44 37L44 36L45 36L45 35L44 35L44 36L43 36L43 35ZM9 36L9 37L10 37L10 36ZM26 37L26 38L27 38L27 37ZM30 37L30 38L31 38L31 37ZM45 37L45 38L46 38L46 37ZM16 38L16 39L15 39L15 40L16 40L16 41L17 41L17 38ZM18 39L18 40L19 40L19 39ZM2 40L2 41L1 41L1 42L0 42L0 43L1 43L1 44L3 44L3 45L4 45L4 44L3 44L3 43L7 43L7 42L6 42L6 41L7 41L7 40L4 40L4 41L3 41L3 40ZM8 40L8 41L9 41L9 40ZM2 41L2 43L3 43L3 41ZM4 41L4 42L5 42L5 41ZM14 42L14 43L15 43L15 42ZM16 42L16 43L17 43L17 42ZM20 42L20 43L21 43L21 42ZM26 42L26 43L25 43L25 44L26 44L26 43L27 43L27 42ZM6 44L6 45L7 45L7 44ZM12 44L12 45L15 45L15 47L16 47L16 45L17 45L17 44ZM31 44L31 45L32 45L32 44ZM23 45L23 46L24 46L24 45ZM25 45L25 48L28 48L28 45ZM42 45L42 46L43 46L43 47L42 47L42 48L43 48L43 47L44 47L44 45ZM45 45L45 48L48 48L48 45ZM49 45L49 47L50 47L50 49L51 49L51 47L50 47L50 45ZM12 46L12 47L11 47L11 49L12 49L12 47L13 47L13 46ZM26 46L26 47L27 47L27 46ZM46 46L46 47L47 47L47 46ZM18 47L18 48L19 48L19 47ZM30 47L30 49L31 49L31 47ZM44 49L44 50L45 50L45 51L46 51L46 52L47 52L47 51L48 51L48 50L49 50L49 49L48 49L48 50L47 50L47 49L46 49L46 50L45 50L45 49ZM12 51L12 52L13 52L13 51ZM28 52L28 53L29 53L29 52ZM34 52L34 53L35 53L35 52ZM52 52L52 53L53 53L53 52ZM0 0L0 7L7 7L7 0ZM1 1L1 6L6 6L6 1ZM2 2L2 5L5 5L5 2ZM46 0L46 7L53 7L53 0ZM47 1L47 6L52 6L52 1ZM48 2L48 5L51 5L51 2ZM0 46L0 53L7 53L7 46ZM1 47L1 52L6 52L6 47ZM2 48L2 51L5 51L5 48Z" fill="#000000"/></g></g></svg>
