<?xml version="1.0" encoding="UTF-8"?>
<svg xmlns="http://www.w3.org/2000/svg" version="1.1" width="100" height="100" viewBox="0 0 100 100"><rect x="0" y="0" width="100" height="100" fill="#ffffff"/><g transform="scale(1.887)"><g transform="translate(0,0)"><path fill-rule="evenodd" d="M8 0L8 4L9 4L9 5L8 5L8 7L9 7L9 9L7 9L7 8L4 8L4 9L2 9L2 8L0 8L0 9L2 9L2 10L0 10L0 11L1 11L1 12L2 12L2 14L1 14L1 13L0 13L0 14L1 14L1 15L0 15L0 16L1 16L1 18L0 18L0 21L1 21L1 19L2 19L2 18L3 18L3 17L4 17L4 18L5 18L5 20L6 20L6 21L7 21L7 22L5 22L5 21L2 21L2 23L3 23L3 22L4 22L4 23L8 23L8 24L4 24L4 26L3 26L3 27L1 27L1 28L0 28L0 30L2 30L2 32L1 32L1 34L2 34L2 32L3 32L3 35L2 35L2 36L4 36L4 32L6 32L6 33L5 33L5 34L6 34L6 35L5 35L5 37L7 37L7 38L6 38L6 39L4 39L4 41L3 41L3 40L1 40L1 38L2 38L2 39L3 39L3 38L2 38L2 37L1 37L1 38L0 38L0 40L1 40L1 41L3 41L3 43L2 43L2 42L0 42L0 43L1 43L1 44L3 44L3 45L4 45L4 44L3 44L3 43L7 43L7 42L6 42L6 41L7 41L7 40L6 40L6 39L9 39L9 38L12 38L12 39L13 39L13 41L14 41L14 43L13 43L13 42L11 42L11 41L9 41L9 40L8 40L8 41L9 41L9 42L8 42L8 44L10 44L10 42L11 42L11 43L12 43L12 44L11 44L11 46L10 46L10 45L8 45L8 46L10 46L10 47L8 47L8 49L9 49L9 48L10 48L10 49L11 49L11 48L12 48L12 44L14 44L14 45L15 45L15 46L13 46L13 49L14 49L14 50L15 50L15 51L13 51L13 50L11 50L11 52L10 52L10 51L8 51L8 53L11 53L11 52L14 52L14 53L17 53L17 52L15 52L15 51L16 51L16 50L17 50L17 51L18 51L18 50L19 50L19 51L20 51L20 50L21 50L21 51L22 51L22 52L21 52L21 53L22 53L22 52L23 52L23 53L28 53L28 52L29 52L29 53L31 53L31 52L30 52L30 51L29 51L29 50L31 50L31 48L32 48L32 53L33 53L33 52L34 52L34 53L37 53L37 52L38 52L38 51L37 51L37 47L38 47L38 46L40 46L40 48L39 48L39 49L38 49L38 50L39 50L39 53L40 53L40 52L41 52L41 53L43 53L43 51L44 51L44 49L45 49L45 50L46 50L46 51L45 51L45 52L44 52L44 53L48 53L48 52L49 52L49 53L52 53L52 52L53 52L53 51L51 51L51 52L50 52L50 50L49 50L49 49L50 49L50 45L51 45L51 47L52 47L52 48L51 48L51 49L52 49L52 48L53 48L53 41L52 41L52 43L51 43L51 44L50 44L50 43L49 43L49 44L47 44L47 43L48 43L48 42L50 42L50 41L51 41L51 40L50 40L50 39L51 39L51 37L52 37L52 36L53 36L53 32L51 32L51 34L50 34L50 35L48 35L48 36L47 36L47 33L48 33L48 34L49 34L49 33L48 33L48 32L46 32L46 31L47 31L47 30L48 30L48 31L50 31L50 29L51 29L51 28L50 28L50 27L51 27L51 25L52 25L52 24L53 24L53 22L52 22L52 21L53 21L53 20L52 20L52 19L53 19L53 17L51 17L51 18L52 18L52 19L51 19L51 20L50 20L50 15L49 15L49 12L50 12L50 14L51 14L51 12L53 12L53 8L49 8L49 10L47 10L47 14L46 14L46 12L45 12L45 11L46 11L46 9L45 9L45 8L44 8L44 7L45 7L45 6L44 6L44 7L43 7L43 3L44 3L44 4L45 4L45 3L44 3L44 1L43 1L43 0L42 0L42 1L41 1L41 0L38 0L38 1L36 1L36 2L35 2L35 3L36 3L36 2L37 2L37 4L38 4L38 5L37 5L37 6L36 6L36 7L35 7L35 5L34 5L34 3L33 3L33 1L34 1L34 0L32 0L32 1L31 1L31 0L28 0L28 1L26 1L26 0L24 0L24 1L26 1L26 2L23 2L23 0L13 0L13 1L11 1L11 0L10 0L10 2L9 2L9 0ZM14 1L14 2L13 2L13 3L11 3L11 2L10 2L10 3L11 3L11 4L10 4L10 5L9 5L9 7L10 7L10 9L9 9L9 12L12 12L12 13L10 13L10 14L11 14L11 15L13 15L13 16L12 16L12 17L18 17L18 16L19 16L19 17L20 17L20 16L21 16L21 15L22 15L22 16L24 16L24 17L21 17L21 18L20 18L20 19L19 19L19 20L21 20L21 21L23 21L23 22L25 22L25 23L23 23L23 24L22 24L22 23L20 23L20 24L21 24L21 25L19 25L19 24L18 24L18 25L17 25L17 24L16 24L16 22L17 22L17 23L18 23L18 22L20 22L20 21L15 21L15 22L14 22L14 18L13 18L13 19L12 19L12 18L11 18L11 19L12 19L12 20L11 20L11 21L10 21L10 22L9 22L9 17L11 17L11 16L9 16L9 15L8 15L8 14L7 14L7 13L8 13L8 12L7 12L7 11L5 11L5 10L7 10L7 9L4 9L4 10L2 10L2 12L3 12L3 14L4 14L4 13L5 13L5 12L7 12L7 13L6 13L6 14L7 14L7 15L5 15L5 16L4 16L4 15L2 15L2 17L3 17L3 16L4 16L4 17L5 17L5 18L7 18L7 19L6 19L6 20L7 20L7 21L8 21L8 23L9 23L9 25L13 25L13 26L12 26L12 27L11 27L11 26L9 26L9 28L10 28L10 30L9 30L9 31L6 31L6 30L7 30L7 29L5 29L5 30L4 30L4 28L3 28L3 29L2 29L2 28L1 28L1 29L2 29L2 30L4 30L4 31L6 31L6 32L9 32L9 34L8 34L8 35L6 35L6 36L9 36L9 37L11 37L11 36L9 36L9 34L11 34L11 35L12 35L12 34L13 34L13 37L12 37L12 38L13 38L13 39L14 39L14 40L16 40L16 41L15 41L15 43L14 43L14 44L15 44L15 45L16 45L16 46L18 46L18 47L17 47L17 48L16 48L16 47L14 47L14 49L18 49L18 48L19 48L19 49L20 49L20 48L21 48L21 47L22 47L22 48L23 48L23 49L21 49L21 50L22 50L22 51L23 51L23 52L25 52L25 51L23 51L23 49L24 49L24 47L23 47L23 46L24 46L24 43L25 43L25 44L26 44L26 42L27 42L27 41L28 41L28 39L29 39L29 38L28 38L28 39L26 39L26 36L27 36L27 37L29 37L29 36L30 36L30 37L32 37L32 38L33 38L33 37L32 37L32 36L33 36L33 34L32 34L32 32L33 32L33 31L34 31L34 40L33 40L33 41L34 41L34 44L33 44L33 43L32 43L32 41L31 41L31 42L30 42L30 43L29 43L29 42L28 42L28 43L27 43L27 44L28 44L28 43L29 43L29 44L31 44L31 47L32 47L32 48L36 48L36 47L32 47L32 44L33 44L33 45L34 45L34 46L35 46L35 45L36 45L36 43L37 43L37 44L38 44L38 45L37 45L37 46L38 46L38 45L39 45L39 44L38 44L38 43L39 43L39 42L40 42L40 43L41 43L41 44L40 44L40 45L42 45L42 44L43 44L43 43L44 43L44 41L45 41L45 40L46 40L46 38L47 38L47 39L50 39L50 37L51 37L51 36L52 36L52 34L51 34L51 35L50 35L50 37L49 37L49 36L48 36L48 37L49 37L49 38L47 38L47 36L44 36L44 35L42 35L42 32L40 32L40 31L43 31L43 32L44 32L44 33L46 33L46 32L44 32L44 30L45 30L45 31L46 31L46 30L47 30L47 29L44 29L44 27L43 27L43 28L40 28L40 31L39 31L39 32L40 32L40 33L41 33L41 34L40 34L40 37L39 37L39 38L38 38L38 37L37 37L37 38L36 38L36 40L39 40L39 38L40 38L40 41L39 41L39 42L38 42L38 41L36 41L36 43L35 43L35 41L34 41L34 40L35 40L35 31L36 31L36 30L35 30L35 29L34 29L34 28L33 28L33 25L34 25L34 26L35 26L35 27L36 27L36 26L37 26L37 25L39 25L39 24L40 24L40 27L42 27L42 26L41 26L41 24L43 24L43 25L44 25L44 23L45 23L45 22L44 22L44 20L45 20L45 21L46 21L46 24L49 24L49 22L48 22L48 23L47 23L47 21L46 21L46 19L45 19L45 18L44 18L44 17L46 17L46 18L47 18L47 15L46 15L46 14L45 14L45 15L44 15L44 17L43 17L43 18L41 18L41 16L42 16L42 15L43 15L43 14L44 14L44 12L43 12L43 11L45 11L45 10L44 10L44 9L43 9L43 8L42 8L42 9L43 9L43 10L42 10L42 12L43 12L43 14L41 14L41 12L40 12L40 11L41 11L41 8L40 8L40 11L39 11L39 12L40 12L40 13L39 13L39 14L38 14L38 12L37 12L37 13L35 13L35 11L34 11L34 10L36 10L36 9L35 9L35 7L34 7L34 5L32 5L32 4L33 4L33 3L32 3L32 2L31 2L31 1L28 1L28 2L26 2L26 3L25 3L25 4L26 4L26 3L28 3L28 4L31 4L31 5L32 5L32 6L31 6L31 7L32 7L32 6L33 6L33 7L34 7L34 8L33 8L33 9L32 9L32 12L31 12L31 15L30 15L30 13L29 13L29 11L30 11L30 10L29 10L29 9L30 9L30 6L29 6L29 9L25 9L25 10L24 10L24 11L23 11L23 9L24 9L24 8L22 8L22 5L23 5L23 7L24 7L24 5L23 5L23 4L22 4L22 3L23 3L23 2L22 2L22 1L21 1L21 2L20 2L20 1L17 1L17 2L16 2L16 1ZM38 1L38 4L39 4L39 3L41 3L41 1L40 1L40 2L39 2L39 1ZM14 2L14 3L13 3L13 4L12 4L12 7L11 7L11 5L10 5L10 7L11 7L11 9L10 9L10 11L12 11L12 12L14 12L14 13L15 13L15 14L13 14L13 13L12 13L12 14L13 14L13 15L14 15L14 16L17 16L17 15L18 15L18 14L17 14L17 15L16 15L16 13L15 13L15 12L17 12L17 13L20 13L20 15L19 15L19 16L20 16L20 15L21 15L21 14L23 14L23 13L26 13L26 11L27 11L27 10L26 10L26 11L25 11L25 12L23 12L23 13L22 13L22 10L20 10L20 11L19 11L19 9L21 9L21 6L20 6L20 5L22 5L22 4L20 4L20 5L19 5L19 6L18 6L18 5L17 5L17 6L16 6L16 3L15 3L15 2ZM21 2L21 3L22 3L22 2ZM28 2L28 3L29 3L29 2ZM30 2L30 3L31 3L31 4L32 4L32 3L31 3L31 2ZM42 2L42 3L43 3L43 2ZM14 3L14 4L15 4L15 3ZM40 4L40 6L39 6L39 7L38 7L38 6L37 6L37 9L38 9L38 8L39 8L39 7L40 7L40 6L41 6L41 7L42 7L42 6L41 6L41 4ZM25 5L25 8L28 8L28 5ZM13 6L13 7L12 7L12 8L13 8L13 7L14 7L14 8L16 8L16 9L15 9L15 11L14 11L14 12L15 12L15 11L16 11L16 10L18 10L18 9L19 9L19 8L20 8L20 6L19 6L19 8L18 8L18 9L17 9L17 7L18 7L18 6L17 6L17 7L16 7L16 6L15 6L15 7L14 7L14 6ZM26 6L26 7L27 7L27 6ZM47 8L47 9L48 9L48 8ZM12 9L12 11L13 11L13 10L14 10L14 9ZM33 9L33 10L34 10L34 9ZM50 9L50 12L51 12L51 11L52 11L52 9ZM28 10L28 11L29 11L29 10ZM20 12L20 13L21 13L21 12ZM32 12L32 13L33 13L33 14L32 14L32 15L31 15L31 16L30 16L30 17L29 17L29 16L26 16L26 15L27 15L27 14L28 14L28 15L29 15L29 14L28 14L28 13L27 13L27 14L26 14L26 15L25 15L25 14L24 14L24 15L25 15L25 16L26 16L26 18L23 18L23 19L27 19L27 18L28 18L28 23L27 23L27 21L25 21L25 20L23 20L23 21L25 21L25 22L26 22L26 23L25 23L25 24L24 24L24 25L23 25L23 26L22 26L22 25L21 25L21 26L20 26L20 27L19 27L19 25L18 25L18 26L16 26L16 27L15 27L15 25L16 25L16 24L14 24L14 23L13 23L13 22L12 22L12 21L11 21L11 22L10 22L10 24L11 24L11 22L12 22L12 23L13 23L13 25L14 25L14 27L12 27L12 28L14 28L14 29L11 29L11 30L12 30L12 31L11 31L11 32L10 32L10 31L9 31L9 32L10 32L10 33L11 33L11 34L12 34L12 33L13 33L13 34L14 34L14 38L15 38L15 39L16 39L16 37L15 37L15 35L16 35L16 34L17 34L17 37L20 37L20 38L18 38L18 39L17 39L17 41L18 41L18 42L16 42L16 43L15 43L15 44L17 44L17 45L18 45L18 46L19 46L19 48L20 48L20 47L21 47L21 45L22 45L22 46L23 46L23 45L22 45L22 44L23 44L23 43L24 43L24 39L25 39L25 40L26 40L26 41L25 41L25 42L26 42L26 41L27 41L27 40L26 40L26 39L25 39L25 37L24 37L24 35L25 35L25 34L23 34L23 35L22 35L22 34L21 34L21 33L23 33L23 32L22 32L22 31L21 31L21 30L23 30L23 31L24 31L24 33L25 33L25 31L24 31L24 30L23 30L23 29L21 29L21 28L23 28L23 26L24 26L24 29L25 29L25 30L26 30L26 29L29 29L29 30L27 30L27 31L26 31L26 35L28 35L28 36L29 36L29 33L30 33L30 35L31 35L31 31L32 31L32 30L34 30L34 31L35 31L35 30L34 30L34 29L33 29L33 28L32 28L32 29L29 29L29 28L31 28L31 27L32 27L32 25L33 25L33 23L32 23L32 21L34 21L34 20L35 20L35 21L37 21L37 20L38 20L38 19L39 19L39 21L38 21L38 22L41 22L41 23L40 23L40 24L41 24L41 23L44 23L44 22L43 22L43 21L40 21L40 20L44 20L44 18L43 18L43 19L41 19L41 18L40 18L40 17L38 17L38 19L37 19L37 18L35 18L35 19L34 19L34 17L37 17L37 15L38 15L38 14L34 14L34 12ZM52 13L52 15L51 15L51 16L52 16L52 15L53 15L53 13ZM33 14L33 15L32 15L32 16L31 16L31 17L32 17L32 18L33 18L33 17L34 17L34 14ZM40 14L40 15L41 15L41 14ZM45 15L45 16L46 16L46 15ZM6 16L6 17L7 17L7 16ZM8 16L8 17L9 17L9 16ZM32 16L32 17L33 17L33 16ZM16 18L16 19L15 19L15 20L18 20L18 18ZM21 18L21 20L22 20L22 18ZM30 18L30 19L29 19L29 21L30 21L30 20L31 20L31 21L32 21L32 19L31 19L31 18ZM39 18L39 19L40 19L40 18ZM3 19L3 20L4 20L4 19ZM7 19L7 20L8 20L8 19ZM33 19L33 20L34 20L34 19ZM35 19L35 20L37 20L37 19ZM47 19L47 20L49 20L49 21L50 21L50 24L51 24L51 23L52 23L52 22L51 22L51 21L52 21L52 20L51 20L51 21L50 21L50 20L49 20L49 19ZM29 22L29 23L28 23L28 24L29 24L29 23L31 23L31 24L30 24L30 25L32 25L32 23L31 23L31 22ZM35 22L35 23L37 23L37 22ZM26 23L26 24L27 24L27 23ZM1 24L1 25L2 25L2 24ZM35 24L35 25L37 25L37 24ZM5 25L5 28L8 28L8 25ZM25 25L25 28L28 28L28 25ZM45 25L45 28L48 28L48 25ZM49 25L49 26L50 26L50 25ZM6 26L6 27L7 27L7 26ZM26 26L26 27L27 27L27 26ZM29 26L29 27L30 27L30 26ZM46 26L46 27L47 27L47 26ZM52 26L52 29L53 29L53 26ZM14 27L14 28L15 28L15 27ZM17 27L17 28L16 28L16 30L15 30L15 29L14 29L14 30L15 30L15 32L14 32L14 31L12 31L12 32L11 32L11 33L12 33L12 32L13 32L13 33L18 33L18 32L19 32L19 33L20 33L20 32L21 32L21 31L20 31L20 28L19 28L19 27ZM37 27L37 29L38 29L38 27ZM17 28L17 31L16 31L16 32L17 32L17 31L18 31L18 30L19 30L19 28ZM41 29L41 30L44 30L44 29ZM29 30L29 31L31 31L31 30ZM52 30L52 31L53 31L53 30ZM27 31L27 32L28 32L28 33L27 33L27 34L28 34L28 33L29 33L29 32L28 32L28 31ZM37 31L37 34L38 34L38 36L39 36L39 34L38 34L38 31ZM6 33L6 34L7 34L7 33ZM20 34L20 35L19 35L19 36L20 36L20 37L21 37L21 38L20 38L20 39L19 39L19 40L18 40L18 41L19 41L19 43L20 43L20 42L21 42L21 41L22 41L22 43L21 43L21 44L20 44L20 45L19 45L19 46L20 46L20 45L21 45L21 44L22 44L22 43L23 43L23 40L22 40L22 39L21 39L21 38L23 38L23 36L22 36L22 35L21 35L21 34ZM45 34L45 35L46 35L46 34ZM0 35L0 36L1 36L1 35ZM36 35L36 36L37 36L37 35ZM21 36L21 37L22 37L22 36ZM41 36L41 37L40 37L40 38L41 38L41 37L42 37L42 39L41 39L41 41L40 41L40 42L41 42L41 43L43 43L43 41L44 41L44 40L45 40L45 38L46 38L46 37L44 37L44 36ZM30 38L30 39L31 39L31 38ZM37 38L37 39L38 39L38 38ZM52 38L52 39L53 39L53 38ZM20 39L20 40L19 40L19 41L21 41L21 39ZM42 39L42 40L43 40L43 39ZM5 40L5 41L6 41L6 40ZM47 40L47 41L46 41L46 42L45 42L45 43L46 43L46 42L47 42L47 41L48 41L48 40ZM37 42L37 43L38 43L38 42ZM6 44L6 45L7 45L7 44ZM34 44L34 45L35 45L35 44ZM51 44L51 45L52 45L52 44ZM25 45L25 48L28 48L28 45ZM29 45L29 47L30 47L30 45ZM45 45L45 48L48 48L48 45ZM26 46L26 47L27 47L27 46ZM42 46L42 49L43 49L43 47L44 47L44 46ZM46 46L46 47L47 47L47 46ZM29 48L29 49L28 49L28 50L29 50L29 49L30 49L30 48ZM40 48L40 49L39 49L39 50L40 50L40 51L41 51L41 52L42 52L42 51L43 51L43 50L42 50L42 51L41 51L41 48ZM25 49L25 50L26 50L26 49ZM34 49L34 52L37 52L37 51L35 51L35 49ZM46 49L46 50L47 50L47 51L49 51L49 50L47 50L47 49ZM18 52L18 53L19 53L19 52ZM0 0L0 7L7 7L7 0ZM1 1L1 6L6 6L6 1ZM2 2L2 5L5 5L5 2ZM46 0L46 7L53 7L53 0ZM47 1L47 6L52 6L52 1ZM48 2L48 5L51 5L51 2ZM0 46L0 53L7 53L7 46ZM1 47L1 52L6 52L6 47ZM2 48L2 51L5 51L5 48Z" fill="#000000"/></g></g></svg>
