<?xml version="1.0" encoding="UTF-8"?>
<svg xmlns="http://www.w3.org/2000/svg" version="1.1" width="100" height="100" viewBox="0 0 100 100"><rect x="0" y="0" width="100" height="100" fill="#ffffff"/><g transform="scale(1.887)"><g transform="translate(0,0)"><path fill-rule="evenodd" d="M8 0L8 2L12 2L12 3L13 3L13 4L14 4L14 5L16 5L16 7L15 7L15 6L14 6L14 7L13 7L13 5L11 5L11 4L10 4L10 3L9 3L9 4L8 4L8 9L9 9L9 10L8 10L8 11L9 11L9 10L10 10L10 12L5 12L5 10L6 10L6 11L7 11L7 10L6 10L6 9L7 9L7 8L5 8L5 9L4 9L4 11L2 11L2 12L4 12L4 13L1 13L1 14L0 14L0 16L1 16L1 17L0 17L0 18L1 18L1 19L0 19L0 20L1 20L1 22L0 22L0 23L1 23L1 22L2 22L2 24L1 24L1 25L4 25L4 26L3 26L3 27L4 27L4 28L2 28L2 27L1 27L1 28L0 28L0 29L1 29L1 28L2 28L2 30L1 30L1 31L0 31L0 33L1 33L1 31L3 31L3 32L2 32L2 33L3 33L3 34L4 34L4 35L2 35L2 34L1 34L1 35L2 35L2 36L4 36L4 37L1 37L1 36L0 36L0 40L1 40L1 41L0 41L0 43L1 43L1 44L3 44L3 45L4 45L4 44L3 44L3 43L8 43L8 44L6 44L6 45L8 45L8 46L9 46L9 47L8 47L8 48L9 48L9 49L10 49L10 50L8 50L8 53L9 53L9 51L10 51L10 52L11 52L11 51L13 51L13 50L14 50L14 51L15 51L15 53L16 53L16 52L17 52L17 51L16 51L16 50L18 50L18 53L19 53L19 50L18 50L18 49L19 49L19 48L20 48L20 49L21 49L21 48L20 48L20 47L19 47L19 46L20 46L20 44L22 44L22 46L23 46L23 47L22 47L22 48L23 48L23 51L24 51L24 53L27 53L27 52L28 52L28 53L29 53L29 52L28 52L28 51L30 51L30 53L33 53L33 51L34 51L34 49L33 49L33 48L36 48L36 49L35 49L35 51L36 51L36 49L37 49L37 52L36 52L36 53L42 53L42 52L43 52L43 53L45 53L45 52L46 52L46 50L44 50L44 52L43 52L43 50L42 50L42 49L47 49L47 53L48 53L48 52L50 52L50 53L51 53L51 52L50 52L50 51L51 51L51 49L50 49L50 47L51 47L51 48L52 48L52 47L53 47L53 45L52 45L52 44L50 44L50 43L51 43L51 42L50 42L50 43L49 43L49 42L48 42L48 41L52 41L52 43L53 43L53 41L52 41L52 39L53 39L53 38L52 38L52 37L53 37L53 36L52 36L52 35L53 35L53 33L52 33L52 31L53 31L53 29L52 29L52 27L53 27L53 26L52 26L52 27L51 27L51 29L50 29L50 26L51 26L51 25L53 25L53 22L52 22L52 20L53 20L53 17L52 17L52 16L53 16L53 12L50 12L50 10L51 10L51 9L52 9L52 11L53 11L53 8L51 8L51 9L50 9L50 10L49 10L49 8L44 8L44 7L45 7L45 6L44 6L44 7L43 7L43 3L44 3L44 4L45 4L45 3L44 3L44 1L43 1L43 0L40 0L40 1L39 1L39 0L38 0L38 1L37 1L37 2L35 2L35 4L34 4L34 3L33 3L33 0L32 0L32 2L31 2L31 0L29 0L29 2L28 2L28 0L27 0L27 2L26 2L26 0L23 0L23 1L24 1L24 2L22 2L22 3L21 3L21 2L20 2L20 1L21 1L21 0L18 0L18 3L15 3L15 4L14 4L14 2L13 2L13 1L15 1L15 0L13 0L13 1L11 1L11 0ZM34 0L34 1L36 1L36 0ZM16 1L16 2L17 2L17 1ZM38 1L38 2L39 2L39 5L38 5L38 3L36 3L36 4L37 4L37 5L38 5L38 6L37 6L37 7L38 7L38 10L37 10L37 9L36 9L36 5L35 5L35 9L34 9L34 10L33 10L33 9L32 9L32 8L31 8L31 9L30 9L30 4L31 4L31 5L34 5L34 4L33 4L33 3L32 3L32 4L31 4L31 3L30 3L30 2L29 2L29 3L28 3L28 4L29 4L29 9L27 9L27 10L26 10L26 9L24 9L24 3L25 3L25 4L26 4L26 2L24 2L24 3L22 3L22 4L21 4L21 3L18 3L18 5L19 5L19 8L18 8L18 6L17 6L17 9L16 9L16 8L15 8L15 7L14 7L14 8L15 8L15 9L14 9L14 12L17 12L17 13L16 13L16 14L11 14L11 12L10 12L10 14L11 14L11 15L9 15L9 14L7 14L7 13L6 13L6 14L5 14L5 13L4 13L4 15L2 15L2 17L1 17L1 18L3 18L3 19L4 19L4 20L3 20L3 23L4 23L4 22L7 22L7 23L5 23L5 24L7 24L7 23L8 23L8 24L9 24L9 27L10 27L10 28L11 28L11 30L10 30L10 29L9 29L9 30L10 30L10 32L12 32L12 33L13 33L13 34L14 34L14 35L12 35L12 34L11 34L11 36L13 36L13 38L15 38L15 39L14 39L14 40L15 40L15 41L14 41L14 42L13 42L13 41L10 41L10 40L9 40L9 38L10 38L10 39L11 39L11 40L12 40L12 39L11 39L11 38L12 38L12 37L11 37L11 38L10 38L10 37L9 37L9 35L10 35L10 34L9 34L9 33L8 33L8 32L9 32L9 31L6 31L6 32L3 32L3 33L6 33L6 34L7 34L7 35L5 35L5 37L4 37L4 38L3 38L3 39L4 39L4 41L3 41L3 42L2 42L2 41L1 41L1 42L2 42L2 43L3 43L3 42L8 42L8 43L9 43L9 44L8 44L8 45L9 45L9 46L11 46L11 47L9 47L9 48L12 48L12 46L13 46L13 48L14 48L14 47L15 47L15 48L16 48L16 47L15 47L15 46L13 46L13 45L12 45L12 42L13 42L13 43L15 43L15 44L14 44L14 45L15 45L15 44L17 44L17 45L16 45L16 46L17 46L17 45L18 45L18 46L19 46L19 45L18 45L18 44L17 44L17 43L18 43L18 42L19 42L19 40L20 40L20 38L23 38L23 37L24 37L24 39L22 39L22 40L23 40L23 41L22 41L22 44L23 44L23 46L24 46L24 44L26 44L26 43L27 43L27 42L28 42L28 41L29 41L29 39L30 39L30 38L31 38L31 39L33 39L33 40L34 40L34 44L35 44L35 41L36 41L36 40L39 40L39 41L38 41L38 42L37 42L37 43L38 43L38 42L40 42L40 44L37 44L37 45L36 45L36 46L35 46L35 45L34 45L34 47L37 47L37 49L38 49L38 50L39 50L39 51L38 51L38 52L39 52L39 51L40 51L40 50L39 50L39 49L40 49L40 48L41 48L41 49L42 49L42 48L41 48L41 47L38 47L38 46L40 46L40 44L41 44L41 45L42 45L42 46L44 46L44 45L43 45L43 44L44 44L44 43L45 43L45 42L44 42L44 41L45 41L45 38L46 38L46 37L48 37L48 38L47 38L47 40L46 40L46 42L47 42L47 40L49 40L49 39L48 39L48 38L49 38L49 37L50 37L50 40L51 40L51 39L52 39L52 38L51 38L51 37L52 37L52 36L51 36L51 35L52 35L52 34L51 34L51 31L50 31L50 29L48 29L48 31L46 31L46 29L45 29L45 31L46 31L46 32L44 32L44 31L42 31L42 30L43 30L43 29L42 29L42 28L41 28L41 27L40 27L40 26L41 26L41 25L42 25L42 26L43 26L43 25L44 25L44 24L43 24L43 23L44 23L44 22L45 22L45 24L47 24L47 23L48 23L48 24L49 24L49 23L50 23L50 24L52 24L52 22L51 22L51 23L50 23L50 21L51 21L51 20L52 20L52 18L50 18L50 17L51 17L51 16L52 16L52 13L50 13L50 12L49 12L49 13L48 13L48 12L46 12L46 10L48 10L48 11L49 11L49 10L48 10L48 9L46 9L46 10L45 10L45 9L44 9L44 11L43 11L43 12L44 12L44 15L43 15L43 17L41 17L41 19L40 19L40 16L41 16L41 15L42 15L42 14L43 14L43 13L42 13L42 12L41 12L41 13L40 13L40 11L41 11L41 10L40 10L40 8L41 8L41 7L42 7L42 10L43 10L43 7L42 7L42 4L41 4L41 2L42 2L42 3L43 3L43 2L42 2L42 1L40 1L40 2L39 2L39 1ZM20 4L20 8L19 8L19 11L18 11L18 10L16 10L16 11L18 11L18 14L17 14L17 15L16 15L16 16L15 16L15 15L14 15L14 16L15 16L15 18L13 18L13 20L14 20L14 21L15 21L15 22L13 22L13 21L12 21L12 18L11 18L11 17L13 17L13 16L12 16L12 15L11 15L11 17L9 17L9 16L8 16L8 18L9 18L9 19L8 19L8 20L9 20L9 21L7 21L7 20L5 20L5 21L7 21L7 22L8 22L8 23L9 23L9 24L10 24L10 27L11 27L11 26L14 26L14 25L15 25L15 24L16 24L16 25L17 25L17 24L16 24L16 20L18 20L18 22L20 22L20 21L21 21L21 24L20 24L20 23L18 23L18 24L19 24L19 28L18 28L18 26L16 26L16 27L17 27L17 28L16 28L16 29L15 29L15 28L14 28L14 27L13 27L13 28L14 28L14 29L13 29L13 30L16 30L16 29L17 29L17 32L16 32L16 31L14 31L14 32L15 32L15 35L14 35L14 37L15 37L15 38L16 38L16 39L15 39L15 40L16 40L16 41L17 41L17 38L18 38L18 37L19 37L19 38L20 38L20 36L19 36L19 35L18 35L18 33L19 33L19 32L18 32L18 31L20 31L20 29L21 29L21 30L23 30L23 31L22 31L22 32L23 32L23 33L24 33L24 34L23 34L23 35L24 35L24 36L25 36L25 35L26 35L26 33L27 33L27 32L28 32L28 31L29 31L29 28L30 28L30 29L31 29L31 30L32 30L32 31L30 31L30 32L29 32L29 35L31 35L31 36L32 36L32 37L31 37L31 38L32 38L32 37L33 37L33 38L34 38L34 40L35 40L35 39L41 39L41 40L40 40L40 42L41 42L41 44L42 44L42 43L44 43L44 42L42 42L42 41L44 41L44 38L43 38L43 40L42 40L42 39L41 39L41 38L42 38L42 37L46 37L46 35L47 35L47 34L46 34L46 35L44 35L44 34L45 34L45 33L44 33L44 32L43 32L43 33L44 33L44 34L42 34L42 31L41 31L41 30L42 30L42 29L41 29L41 28L40 28L40 29L39 29L39 28L38 28L38 27L37 27L37 28L36 28L36 30L38 30L38 29L39 29L39 31L38 31L38 33L37 33L37 31L36 31L36 33L35 33L35 30L34 30L34 28L35 28L35 26L34 26L34 25L35 25L35 24L36 24L36 26L37 26L37 24L38 24L38 25L39 25L39 26L40 26L40 25L41 25L41 24L40 24L40 25L39 25L39 24L38 24L38 23L39 23L39 22L40 22L40 21L41 21L41 23L42 23L42 21L43 21L43 22L44 22L44 20L43 20L43 19L44 19L44 17L45 17L45 19L46 19L46 20L47 20L47 19L48 19L48 17L50 17L50 15L51 15L51 14L50 14L50 13L49 13L49 15L47 15L47 16L48 16L48 17L47 17L47 18L46 18L46 12L45 12L45 11L44 11L44 12L45 12L45 15L44 15L44 17L43 17L43 19L42 19L42 21L41 21L41 20L40 20L40 19L39 19L39 18L38 18L38 17L39 17L39 16L38 16L38 13L39 13L39 11L40 11L40 10L38 10L38 13L37 13L37 11L36 11L36 10L34 10L34 12L32 12L32 13L33 13L33 14L34 14L34 15L33 15L33 16L32 16L32 14L31 14L31 16L28 16L28 15L30 15L30 13L31 13L31 12L30 12L30 11L32 11L32 9L31 9L31 10L30 10L30 9L29 9L29 10L28 10L28 11L27 11L27 13L25 13L25 12L26 12L26 11L25 11L25 10L21 10L21 9L23 9L23 8L22 8L22 7L23 7L23 4L22 4L22 7L21 7L21 4ZM9 5L9 7L10 7L10 8L9 8L9 9L10 9L10 10L12 10L12 8L11 8L11 7L12 7L12 6L11 6L11 5ZM25 5L25 8L28 8L28 5ZM39 5L39 6L38 6L38 7L39 7L39 6L40 6L40 7L41 7L41 6L40 6L40 5ZM10 6L10 7L11 7L11 6ZM26 6L26 7L27 7L27 6ZM31 6L31 7L32 7L32 6ZM33 6L33 8L34 8L34 6ZM0 8L0 9L2 9L2 10L3 10L3 8ZM20 10L20 11L21 11L21 10ZM29 10L29 11L30 11L30 10ZM0 11L0 12L1 12L1 11ZM22 11L22 12L20 12L20 16L19 16L19 15L18 15L18 16L19 16L19 17L18 17L18 18L16 18L16 19L19 19L19 20L23 20L23 22L24 22L24 24L25 24L25 22L26 22L26 24L29 24L29 23L27 23L27 21L25 21L25 22L24 22L24 20L25 20L25 18L24 18L24 20L23 20L23 19L22 19L22 18L23 18L23 17L24 17L24 16L25 16L25 17L26 17L26 18L27 18L27 19L26 19L26 20L27 20L27 19L28 19L28 21L30 21L30 22L32 22L32 24L31 24L31 23L30 23L30 27L31 27L31 29L32 29L32 28L34 28L34 27L32 27L32 24L33 24L33 22L32 22L32 16L31 16L31 17L30 17L30 18L29 18L29 19L28 19L28 18L27 18L27 17L28 17L28 16L27 16L27 15L28 15L28 14L29 14L29 13L28 13L28 14L26 14L26 16L25 16L25 15L24 15L24 12L25 12L25 11L24 11L24 12L23 12L23 11ZM12 12L12 13L13 13L13 12ZM22 12L22 13L21 13L21 14L22 14L22 13L23 13L23 12ZM34 12L34 14L35 14L35 13L36 13L36 15L34 15L34 19L33 19L33 20L34 20L34 23L36 23L36 24L37 24L37 23L38 23L38 22L39 22L39 21L40 21L40 20L39 20L39 21L38 21L38 20L37 20L37 18L36 18L36 15L37 15L37 13L36 13L36 12ZM41 13L41 14L40 14L40 15L41 15L41 14L42 14L42 13ZM47 13L47 14L48 14L48 13ZM6 14L6 15L7 15L7 14ZM22 15L22 16L24 16L24 15ZM3 16L3 18L5 18L5 17L7 17L7 16ZM20 16L20 17L21 17L21 16ZM26 16L26 17L27 17L27 16ZM37 16L37 17L38 17L38 16ZM6 18L6 19L7 19L7 18ZM10 18L10 21L9 21L9 22L10 22L10 23L11 23L11 18ZM20 18L20 19L21 19L21 18ZM30 18L30 20L31 20L31 18ZM35 18L35 19L34 19L34 20L35 20L35 19L36 19L36 18ZM49 18L49 20L48 20L48 21L50 21L50 18ZM1 19L1 20L2 20L2 19ZM14 19L14 20L15 20L15 19ZM36 20L36 21L37 21L37 22L36 22L36 23L37 23L37 22L38 22L38 21L37 21L37 20ZM48 22L48 23L49 23L49 22ZM14 23L14 24L15 24L15 23ZM22 23L22 24L23 24L23 23ZM42 24L42 25L43 25L43 24ZM5 25L5 28L8 28L8 25ZM22 25L22 26L23 26L23 27L21 27L21 26L20 26L20 27L21 27L21 28L24 28L24 26L23 26L23 25ZM25 25L25 28L28 28L28 25ZM45 25L45 28L48 28L48 25ZM49 25L49 26L50 26L50 25ZM6 26L6 27L7 27L7 26ZM26 26L26 27L27 27L27 26ZM46 26L46 27L47 27L47 26ZM43 27L43 28L44 28L44 27ZM17 28L17 29L18 29L18 30L19 30L19 29L20 29L20 28L19 28L19 29L18 29L18 28ZM37 28L37 29L38 29L38 28ZM5 29L5 30L7 30L7 29ZM23 29L23 30L24 30L24 29ZM25 29L25 32L24 32L24 33L26 33L26 32L27 32L27 30L28 30L28 29L27 29L27 30L26 30L26 29ZM12 31L12 32L13 32L13 31ZM32 31L32 32L30 32L30 34L33 34L33 33L34 33L34 35L35 35L35 37L34 37L34 36L33 36L33 35L32 35L32 36L33 36L33 37L34 37L34 38L36 38L36 36L37 36L37 37L38 37L38 38L39 38L39 35L40 35L40 34L41 34L41 37L40 37L40 38L41 38L41 37L42 37L42 36L44 36L44 35L42 35L42 34L41 34L41 33L40 33L40 32L41 32L41 31L40 31L40 32L39 32L39 33L38 33L38 34L37 34L37 33L36 33L36 35L35 35L35 33L34 33L34 31ZM48 31L48 32L49 32L49 31ZM6 32L6 33L7 33L7 32ZM20 32L20 33L21 33L21 32ZM32 32L32 33L33 33L33 32ZM46 32L46 33L47 33L47 32ZM49 33L49 34L48 34L48 37L49 37L49 34L50 34L50 33ZM8 34L8 35L7 35L7 36L6 36L6 37L5 37L5 38L6 38L6 39L5 39L5 40L6 40L6 41L9 41L9 43L10 43L10 44L11 44L11 42L10 42L10 41L9 41L9 40L8 40L8 39L7 39L7 38L6 38L6 37L7 37L7 36L8 36L8 35L9 35L9 34ZM16 34L16 35L17 35L17 37L16 37L16 36L15 36L15 37L16 37L16 38L17 38L17 37L18 37L18 35L17 35L17 34ZM20 34L20 35L21 35L21 36L22 36L22 37L23 37L23 36L22 36L22 34ZM24 34L24 35L25 35L25 34ZM27 34L27 36L26 36L26 37L25 37L25 40L24 40L24 41L23 41L23 43L26 43L26 42L27 42L27 41L28 41L28 39L29 39L29 38L30 38L30 36L28 36L28 34ZM38 34L38 35L37 35L37 36L38 36L38 35L39 35L39 34ZM27 36L27 37L26 37L26 38L27 38L27 37L28 37L28 38L29 38L29 37L28 37L28 36ZM1 38L1 40L2 40L2 38ZM6 39L6 40L7 40L7 39ZM18 39L18 40L19 40L19 39ZM25 40L25 42L26 42L26 40ZM30 40L30 43L28 43L28 44L29 44L29 45L30 45L30 46L29 46L29 49L26 49L26 50L25 50L25 49L24 49L24 51L28 51L28 50L29 50L29 49L30 49L30 51L31 51L31 49L32 49L32 51L33 51L33 49L32 49L32 48L33 48L33 47L32 47L32 46L33 46L33 45L32 45L32 44L33 44L33 43L32 43L32 42L33 42L33 41L31 41L31 40ZM16 42L16 43L17 43L17 42ZM20 42L20 43L21 43L21 42ZM30 43L30 45L31 45L31 43ZM48 43L48 44L49 44L49 47L50 47L50 44L49 44L49 43ZM25 45L25 48L28 48L28 45ZM37 45L37 46L38 46L38 45ZM45 45L45 48L48 48L48 45ZM26 46L26 47L27 47L27 46ZM46 46L46 47L47 47L47 46ZM51 46L51 47L52 47L52 46ZM18 47L18 48L19 48L19 47ZM30 47L30 48L32 48L32 47ZM12 49L12 50L13 50L13 49ZM49 49L49 51L50 51L50 49ZM10 50L10 51L11 51L11 50ZM20 50L20 51L21 51L21 52L22 52L22 53L23 53L23 52L22 52L22 50ZM12 52L12 53L14 53L14 52ZM52 52L52 53L53 53L53 52ZM0 0L0 7L7 7L7 0ZM1 1L1 6L6 6L6 1ZM2 2L2 5L5 5L5 2ZM46 0L46 7L53 7L53 0ZM47 1L47 6L52 6L52 1ZM48 2L48 5L51 5L51 2ZM0 46L0 53L7 53L7 46ZM1 47L1 52L6 52L6 47ZM2 48L2 51L5 51L5 48Z" fill="#000000"/></g></g></svg>
