<?xml version="1.0" encoding="UTF-8"?>
<svg xmlns="http://www.w3.org/2000/svg" version="1.1" width="100" height="100" viewBox="0 0 100 100"><rect x="0" y="0" width="100" height="100" fill="#ffffff"/><g transform="scale(1.887)"><g transform="translate(0,0)"><path fill-rule="evenodd" d="M8 0L8 2L9 2L9 0ZM10 0L10 1L12 1L12 2L11 2L11 3L10 3L10 5L9 5L9 4L8 4L8 10L5 10L5 9L7 9L7 8L5 8L5 9L3 9L3 8L0 8L0 11L2 11L2 12L3 12L3 14L2 14L2 13L1 13L1 14L2 14L2 15L0 15L0 18L1 18L1 19L0 19L0 21L1 21L1 19L2 19L2 20L3 20L3 21L2 21L2 22L0 22L0 24L2 24L2 25L1 25L1 26L0 26L0 28L1 28L1 26L2 26L2 25L3 25L3 26L4 26L4 27L3 27L3 28L2 28L2 29L3 29L3 30L2 30L2 31L3 31L3 30L5 30L5 31L7 31L7 32L6 32L6 33L7 33L7 34L5 34L5 35L7 35L7 36L5 36L5 37L4 37L4 40L3 40L3 37L2 37L2 39L0 39L0 41L1 41L1 42L0 42L0 43L1 43L1 44L3 44L3 45L4 45L4 44L3 44L3 43L7 43L7 42L6 42L6 41L7 41L7 40L9 40L9 42L8 42L8 43L9 43L9 44L8 44L8 46L9 46L9 45L10 45L10 43L11 43L11 45L13 45L13 44L12 44L12 43L13 43L13 42L14 42L14 43L15 43L15 42L14 42L14 41L15 41L15 40L16 40L16 41L17 41L17 39L15 39L15 38L16 38L16 37L17 37L17 35L16 35L16 34L18 34L18 33L19 33L19 32L18 32L18 31L20 31L20 29L21 29L21 30L23 30L23 31L22 31L22 32L23 32L23 35L24 35L24 36L22 36L22 34L20 34L20 35L21 35L21 36L22 36L22 37L23 37L23 38L20 38L20 36L19 36L19 35L18 35L18 38L20 38L20 40L19 40L19 39L18 39L18 40L19 40L19 43L18 43L18 42L16 42L16 43L18 43L18 45L17 45L17 44L14 44L14 47L13 47L13 48L14 48L14 47L15 47L15 46L16 46L16 48L15 48L15 50L14 50L14 49L13 49L13 52L14 52L14 53L15 53L15 52L18 52L18 53L19 53L19 52L18 52L18 51L19 51L19 50L18 50L18 49L19 49L19 48L20 48L20 49L21 49L21 48L20 48L20 47L19 47L19 46L20 46L20 44L22 44L22 46L23 46L23 47L22 47L22 48L23 48L23 52L22 52L22 50L20 50L20 51L21 51L21 52L22 52L22 53L23 53L23 52L24 52L24 53L27 53L27 52L24 52L24 49L25 49L25 50L26 50L26 49L27 49L27 51L29 51L29 52L28 52L28 53L29 53L29 52L30 52L30 53L31 53L31 51L32 51L32 53L35 53L35 51L36 51L36 53L38 53L38 52L39 52L39 51L40 51L40 53L42 53L42 52L43 52L43 50L42 50L42 49L41 49L41 48L43 48L43 49L44 49L44 51L45 51L45 52L44 52L44 53L47 53L47 52L46 52L46 51L47 51L47 49L49 49L49 50L48 50L48 52L49 52L49 53L50 53L50 50L51 50L51 49L52 49L52 48L53 48L53 45L52 45L52 44L50 44L50 43L51 43L51 40L50 40L50 34L52 34L52 35L51 35L51 36L52 36L52 37L53 37L53 36L52 36L52 35L53 35L53 33L50 33L50 34L48 34L48 33L46 33L46 32L45 32L45 31L44 31L44 30L43 30L43 31L44 31L44 32L43 32L43 33L44 33L44 32L45 32L45 33L46 33L46 35L44 35L44 36L42 36L42 35L43 35L43 34L42 34L42 28L43 28L43 27L44 27L44 29L46 29L46 31L47 31L47 30L48 30L48 29L49 29L49 28L50 28L50 31L51 31L51 29L52 29L52 32L53 32L53 29L52 29L52 27L53 27L53 26L52 26L52 27L51 27L51 28L50 28L50 26L51 26L51 24L52 24L52 23L53 23L53 22L52 22L52 20L53 20L53 17L52 17L52 15L53 15L53 12L50 12L50 11L49 11L49 12L48 12L48 13L47 13L47 12L46 12L46 11L48 11L48 10L46 10L46 9L49 9L49 10L50 10L50 9L49 9L49 8L45 8L45 6L44 6L44 8L45 8L45 11L43 11L43 10L44 10L44 9L43 9L43 10L42 10L42 8L41 8L41 6L42 6L42 7L43 7L43 3L44 3L44 4L45 4L45 3L44 3L44 1L43 1L43 0L38 0L38 1L41 1L41 3L42 3L42 5L40 5L40 2L39 2L39 4L38 4L38 5L40 5L40 7L39 7L39 6L38 6L38 7L37 7L37 6L36 6L36 5L37 5L37 4L36 4L36 3L38 3L38 2L36 2L36 3L35 3L35 4L34 4L34 2L33 2L33 1L32 1L32 0L30 0L30 1L31 1L31 2L30 2L30 3L31 3L31 4L30 4L30 8L29 8L29 4L28 4L28 3L29 3L29 2L28 2L28 1L29 1L29 0L27 0L27 2L26 2L26 0L23 0L23 1L24 1L24 2L22 2L22 1L21 1L21 0L18 0L18 3L17 3L17 4L16 4L16 3L15 3L15 2L14 2L14 1L15 1L15 0L13 0L13 1L12 1L12 0ZM34 0L34 1L36 1L36 0ZM16 1L16 2L17 2L17 1ZM20 1L20 2L21 2L21 1ZM12 2L12 4L13 4L13 2ZM24 2L24 3L25 3L25 4L26 4L26 2ZM31 2L31 3L32 3L32 5L33 5L33 8L34 8L34 4L33 4L33 3L32 3L32 2ZM42 2L42 3L43 3L43 2ZM14 3L14 4L15 4L15 5L13 5L13 7L14 7L14 8L15 8L15 9L14 9L14 10L13 10L13 8L12 8L12 6L11 6L11 7L10 7L10 6L9 6L9 8L12 8L12 10L13 10L13 12L11 12L11 11L10 11L10 9L9 9L9 11L10 11L10 12L11 12L11 14L12 14L12 13L13 13L13 17L12 17L12 16L11 16L11 15L10 15L10 14L9 14L9 13L8 13L8 12L7 12L7 11L5 11L5 10L3 10L3 11L4 11L4 16L3 16L3 15L2 15L2 16L1 16L1 18L3 18L3 17L4 17L4 16L5 16L5 17L6 17L6 18L8 18L8 19L5 19L5 18L4 18L4 19L3 19L3 20L4 20L4 19L5 19L5 21L4 21L4 22L2 22L2 24L3 24L3 25L4 25L4 23L6 23L6 24L7 24L7 23L6 23L6 22L7 22L7 21L8 21L8 22L9 22L9 23L8 23L8 24L10 24L10 27L9 27L9 32L7 32L7 33L9 33L9 32L10 32L10 33L11 33L11 34L10 34L10 36L9 36L9 35L8 35L8 34L7 34L7 35L8 35L8 37L5 37L5 38L8 38L8 39L10 39L10 41L11 41L11 43L12 43L12 39L13 39L13 37L14 37L14 38L15 38L15 37L16 37L16 36L15 36L15 37L14 37L14 36L13 36L13 35L14 35L14 34L15 34L15 32L14 32L14 31L15 31L15 29L14 29L14 28L13 28L13 29L12 29L12 25L13 25L13 23L12 23L12 22L15 22L15 21L14 21L14 20L15 20L15 16L14 16L14 15L15 15L15 14L14 14L14 11L15 11L15 13L16 13L16 14L18 14L18 11L19 11L19 8L20 8L20 4L21 4L21 3L18 3L18 5L19 5L19 8L18 8L18 6L17 6L17 5L16 5L16 4L15 4L15 3ZM22 3L22 5L21 5L21 7L22 7L22 8L24 8L24 5L23 5L23 3ZM15 5L15 6L14 6L14 7L15 7L15 6L16 6L16 9L17 9L17 6L16 6L16 5ZM22 5L22 7L23 7L23 5ZM25 5L25 8L28 8L28 5ZM26 6L26 7L27 7L27 6ZM31 6L31 8L30 8L30 10L31 10L31 13L30 13L30 15L31 15L31 14L32 14L32 12L34 12L34 14L35 14L35 12L34 12L34 10L36 10L36 11L39 11L39 12L37 12L37 13L36 13L36 15L34 15L34 19L35 19L35 20L34 20L34 23L36 23L36 24L35 24L35 25L34 25L34 26L35 26L35 28L34 28L34 27L33 27L33 26L32 26L32 24L33 24L33 23L32 23L32 24L31 24L31 25L30 25L30 23L29 23L29 25L30 25L30 26L29 26L29 27L30 27L30 26L32 26L32 28L31 28L31 29L30 29L30 28L29 28L29 29L30 29L30 30L29 30L29 31L28 31L28 32L27 32L27 34L26 34L26 31L27 31L27 30L28 30L28 29L27 29L27 30L26 30L26 29L25 29L25 34L26 34L26 35L25 35L25 36L24 36L24 39L22 39L22 40L23 40L23 41L22 41L22 44L23 44L23 41L25 41L25 37L26 37L26 38L27 38L27 39L28 39L28 40L27 40L27 41L28 41L28 40L29 40L29 39L28 39L28 38L29 38L29 37L28 37L28 36L30 36L30 38L31 38L31 39L30 39L30 42L26 42L26 43L25 43L25 44L26 44L26 43L27 43L27 44L30 44L30 47L29 47L29 48L31 48L31 49L30 49L30 51L31 51L31 49L32 49L32 51L33 51L33 52L34 52L34 51L35 51L35 49L36 49L36 51L37 51L37 52L38 52L38 51L37 51L37 49L38 49L38 50L40 50L40 51L41 51L41 52L42 52L42 51L41 51L41 49L40 49L40 48L41 48L41 47L42 47L42 46L43 46L43 48L44 48L44 45L42 45L42 46L41 46L41 45L40 45L40 44L41 44L41 43L39 43L39 45L38 45L38 42L39 42L39 41L38 41L38 42L37 42L37 45L38 45L38 46L37 46L37 49L36 49L36 48L33 48L33 49L32 49L32 47L33 47L33 45L32 45L32 44L33 44L33 43L31 43L31 39L33 39L33 40L34 40L34 44L35 44L35 41L36 41L36 40L39 40L39 39L38 39L38 38L40 38L40 39L41 39L41 38L40 38L40 35L39 35L39 37L38 37L38 34L40 34L40 32L41 32L41 30L40 30L40 28L42 28L42 27L39 27L39 26L40 26L40 24L41 24L41 22L40 22L40 20L42 20L42 24L43 24L43 25L42 25L42 26L43 26L43 25L44 25L44 23L45 23L45 24L46 24L46 23L47 23L47 21L48 21L48 24L49 24L49 23L50 23L50 24L51 24L51 23L52 23L52 22L51 22L51 23L50 23L50 21L51 21L51 20L52 20L52 18L50 18L50 21L48 21L48 20L49 20L49 17L48 17L48 16L49 16L49 13L48 13L48 14L47 14L47 13L46 13L46 19L47 19L47 21L46 21L46 23L45 23L45 19L43 19L43 20L42 20L42 19L40 19L40 18L41 18L41 17L42 17L42 18L43 18L43 16L44 16L44 18L45 18L45 16L44 16L44 15L45 15L45 13L44 13L44 15L42 15L42 14L43 14L43 13L42 13L42 14L41 14L41 13L40 13L40 12L41 12L41 11L42 11L42 12L43 12L43 11L42 11L42 10L41 10L41 11L40 11L40 9L38 9L38 8L37 8L37 9L36 9L36 6L35 6L35 9L34 9L34 10L33 10L33 9L32 9L32 6ZM51 8L51 9L52 9L52 11L53 11L53 8ZM1 9L1 10L2 10L2 9ZM21 9L21 10L20 10L20 11L21 11L21 12L20 12L20 16L19 16L19 15L18 15L18 16L19 16L19 17L18 17L18 18L16 18L16 19L19 19L19 20L22 20L22 19L23 19L23 17L24 17L24 20L23 20L23 23L22 23L22 24L23 24L23 25L22 25L22 26L23 26L23 27L21 27L21 26L20 26L20 27L21 27L21 28L24 28L24 24L25 24L25 23L24 23L24 20L25 20L25 17L26 17L26 16L27 16L27 15L28 15L28 14L29 14L29 13L28 13L28 14L26 14L26 16L25 16L25 14L24 14L24 12L25 12L25 11L24 11L24 12L23 12L23 11L22 11L22 10L24 10L24 9ZM26 9L26 10L27 10L27 11L26 11L26 13L27 13L27 11L28 11L28 10L29 10L29 9ZM16 10L16 11L18 11L18 10ZM32 10L32 11L33 11L33 10ZM6 12L6 13L7 13L7 12ZM16 12L16 13L17 13L17 12ZM22 12L22 13L21 13L21 14L23 14L23 12ZM37 13L37 15L36 15L36 18L35 18L35 19L36 19L36 18L37 18L37 20L36 20L36 21L35 21L35 22L36 22L36 23L37 23L37 22L38 22L38 23L39 23L39 24L40 24L40 23L39 23L39 22L38 22L38 21L37 21L37 20L38 20L38 16L37 16L37 15L39 15L39 16L40 16L40 17L41 17L41 16L42 16L42 15L41 15L41 14L40 14L40 15L39 15L39 14L38 14L38 13ZM50 13L50 14L51 14L51 15L50 15L50 17L51 17L51 15L52 15L52 14L51 14L51 13ZM5 14L5 16L6 16L6 17L7 17L7 16L8 16L8 15L9 15L9 17L8 17L8 18L10 18L10 24L11 24L11 25L12 25L12 24L11 24L11 22L12 22L12 20L11 20L11 19L12 19L12 17L11 17L11 16L10 16L10 15L9 15L9 14ZM6 15L6 16L7 16L7 15ZM22 15L22 16L23 16L23 15ZM32 15L32 16L31 16L31 17L30 17L30 18L29 18L29 19L28 19L28 18L27 18L27 19L26 19L26 20L27 20L27 19L28 19L28 21L30 21L30 22L31 22L31 21L30 21L30 18L31 18L31 17L32 17L32 18L33 18L33 17L32 17L32 16L33 16L33 15ZM40 15L40 16L41 16L41 15ZM47 15L47 16L48 16L48 15ZM2 16L2 17L3 17L3 16ZM20 16L20 17L21 17L21 16ZM24 16L24 17L25 17L25 16ZM47 17L47 19L48 19L48 17ZM20 18L20 19L22 19L22 18ZM8 19L8 20L9 20L9 19ZM13 19L13 20L14 20L14 19ZM6 20L6 21L5 21L5 22L6 22L6 21L7 21L7 20ZM16 20L16 23L17 23L17 25L16 25L16 24L15 24L15 23L14 23L14 24L15 24L15 25L14 25L14 26L13 26L13 27L15 27L15 28L17 28L17 29L16 29L16 30L19 30L19 29L20 29L20 28L19 28L19 24L18 24L18 23L20 23L20 24L21 24L21 21L20 21L20 22L18 22L18 20ZM43 20L43 23L44 23L44 20ZM25 21L25 22L26 22L26 24L28 24L28 22L27 22L27 21ZM32 21L32 22L33 22L33 21ZM23 23L23 24L24 24L24 23ZM36 24L36 26L37 26L37 24ZM5 25L5 28L8 28L8 25ZM25 25L25 28L28 28L28 25ZM45 25L45 28L48 28L48 25ZM49 25L49 26L50 26L50 25ZM6 26L6 27L7 27L7 26ZM16 26L16 27L17 27L17 28L18 28L18 29L19 29L19 28L18 28L18 26ZM26 26L26 27L27 27L27 26ZM46 26L46 27L47 27L47 26ZM10 27L10 28L11 28L11 27ZM37 27L37 28L36 28L36 30L37 30L37 31L36 31L36 33L35 33L35 30L34 30L34 28L32 28L32 29L31 29L31 30L32 30L32 29L33 29L33 30L34 30L34 33L33 33L33 32L32 32L32 33L31 33L31 32L30 32L30 31L29 31L29 34L27 34L27 36L26 36L26 37L27 37L27 36L28 36L28 35L30 35L30 36L31 36L31 35L32 35L32 38L33 38L33 39L34 39L34 40L35 40L35 38L36 38L36 39L37 39L37 38L38 38L38 37L37 37L37 36L36 36L36 37L35 37L35 38L34 38L34 36L35 36L35 35L36 35L36 33L37 33L37 34L38 34L38 33L39 33L39 32L40 32L40 30L39 30L39 31L38 31L38 27ZM0 29L0 30L1 30L1 29ZM6 29L6 30L7 30L7 31L8 31L8 29ZM13 29L13 30L10 30L10 32L11 32L11 33L12 33L12 34L11 34L11 36L10 36L10 39L11 39L11 36L12 36L12 35L13 35L13 33L12 33L12 32L13 32L13 30L14 30L14 29ZM23 29L23 30L24 30L24 29ZM0 31L0 37L1 37L1 35L2 35L2 36L4 36L4 34L3 34L3 33L5 33L5 32L2 32L2 33L1 33L1 31ZM16 31L16 32L17 32L17 31ZM37 31L37 33L38 33L38 31ZM48 31L48 32L49 32L49 31ZM20 32L20 33L21 33L21 32ZM30 33L30 34L31 34L31 33ZM32 33L32 34L33 34L33 33ZM34 33L34 35L33 35L33 36L34 36L34 35L35 35L35 33ZM47 34L47 35L46 35L46 36L45 36L45 40L46 40L46 42L45 42L45 41L43 41L43 40L41 40L41 41L40 41L40 42L41 42L41 41L42 41L42 42L43 42L43 44L44 44L44 42L45 42L45 43L46 43L46 44L47 44L47 43L48 43L48 42L49 42L49 43L50 43L50 42L49 42L49 41L48 41L48 42L47 42L47 40L46 40L46 37L47 37L47 35L48 35L48 39L49 39L49 35L48 35L48 34ZM8 37L8 38L9 38L9 37ZM36 37L36 38L37 38L37 37ZM42 37L42 39L44 39L44 38L43 38L43 37ZM52 38L52 39L53 39L53 38ZM6 39L6 40L5 40L5 41L6 41L6 40L7 40L7 39ZM14 39L14 40L15 40L15 39ZM1 40L1 41L2 41L2 43L3 43L3 42L4 42L4 41L3 41L3 40ZM32 41L32 42L33 42L33 41ZM52 41L52 43L53 43L53 41ZM9 42L9 43L10 43L10 42ZM20 42L20 43L21 43L21 42ZM46 42L46 43L47 43L47 42ZM30 43L30 44L31 44L31 43ZM6 44L6 45L7 45L7 44ZM16 45L16 46L17 46L17 45ZM18 45L18 46L19 46L19 45ZM23 45L23 46L24 46L24 45ZM25 45L25 48L28 48L28 45ZM34 45L34 47L36 47L36 46L35 46L35 45ZM39 45L39 46L40 46L40 45ZM45 45L45 48L48 48L48 45ZM49 45L49 47L50 47L50 49L51 49L51 48L52 48L52 45L51 45L51 47L50 47L50 45ZM10 46L10 47L12 47L12 46ZM26 46L26 47L27 47L27 46ZM46 46L46 47L47 47L47 46ZM8 47L8 48L9 48L9 49L10 49L10 53L11 53L11 52L12 52L12 50L11 50L11 49L12 49L12 48L11 48L11 49L10 49L10 48L9 48L9 47ZM18 47L18 48L19 48L19 47ZM39 47L39 48L40 48L40 47ZM28 49L28 50L29 50L29 49ZM33 49L33 51L34 51L34 49ZM8 50L8 53L9 53L9 50ZM16 50L16 51L18 51L18 50ZM14 51L14 52L15 52L15 51ZM52 52L52 53L53 53L53 52ZM0 0L0 7L7 7L7 0ZM1 1L1 6L6 6L6 1ZM2 2L2 5L5 5L5 2ZM46 0L46 7L53 7L53 0ZM47 1L47 6L52 6L52 1ZM48 2L48 5L51 5L51 2ZM0 46L0 53L7 53L7 46ZM1 47L1 52L6 52L6 47ZM2 48L2 51L5 51L5 48Z" fill="#000000"/></g></g></svg>
