<?xml version="1.0" encoding="UTF-8"?>
<svg xmlns="http://www.w3.org/2000/svg" version="1.1" width="100" height="100" viewBox="0 0 100 100"><rect x="0" y="0" width="100" height="100" fill="#ffffff"/><g transform="scale(1.887)"><g transform="translate(0,0)"><path fill-rule="evenodd" d="M8 0L8 2L9 2L9 4L8 4L8 9L9 9L9 6L10 6L10 10L9 10L9 13L8 13L8 11L7 11L7 10L6 10L6 9L7 9L7 8L5 8L5 10L6 10L6 11L5 11L5 12L0 12L0 15L1 15L1 16L2 16L2 15L3 15L3 14L4 14L4 15L5 15L5 16L6 16L6 17L7 17L7 16L9 16L9 15L10 15L10 16L11 16L11 17L9 17L9 18L5 18L5 17L4 17L4 16L3 16L3 18L1 18L1 17L0 17L0 18L1 18L1 20L4 20L4 19L7 19L7 20L6 20L6 21L7 21L7 22L6 22L6 23L7 23L7 24L5 24L5 23L4 23L4 22L5 22L5 21L4 21L4 22L2 22L2 21L1 21L1 23L0 23L0 24L2 24L2 25L0 25L0 26L1 26L1 27L0 27L0 28L2 28L2 27L3 27L3 28L4 28L4 29L5 29L5 30L4 30L4 31L1 31L1 30L3 30L3 29L1 29L1 30L0 30L0 33L2 33L2 35L1 35L1 34L0 34L0 43L1 43L1 44L3 44L3 45L4 45L4 44L3 44L3 43L7 43L7 44L6 44L6 45L7 45L7 44L8 44L8 46L9 46L9 47L8 47L8 48L10 48L10 49L9 49L9 50L8 50L8 53L9 53L9 50L11 50L11 51L10 51L10 53L12 53L12 48L13 48L13 53L15 53L15 52L18 52L18 53L19 53L19 52L18 52L18 49L19 49L19 48L20 48L20 49L21 49L21 48L20 48L20 47L19 47L19 46L20 46L20 44L22 44L22 46L23 46L23 47L22 47L22 48L23 48L23 51L24 51L24 53L27 53L27 51L24 51L24 49L25 49L25 50L26 50L26 49L27 49L27 50L28 50L28 51L29 51L29 50L30 50L30 51L32 51L32 53L35 53L35 52L34 52L34 49L33 49L33 48L36 48L36 49L35 49L35 51L36 51L36 53L38 53L38 52L40 52L40 53L42 53L42 52L43 52L43 53L45 53L45 52L46 52L46 51L45 51L45 50L46 50L46 49L49 49L49 50L48 50L48 51L47 51L47 52L48 52L48 51L49 51L49 52L50 52L50 51L51 51L51 49L52 49L52 47L53 47L53 45L52 45L52 44L50 44L50 43L51 43L51 41L52 41L52 43L53 43L53 41L52 41L52 39L53 39L53 38L52 38L52 37L53 37L53 36L52 36L52 35L53 35L53 33L52 33L52 32L53 32L53 30L52 30L52 32L51 32L51 33L49 33L49 34L48 34L48 33L47 33L47 32L46 32L46 31L47 31L47 30L48 30L48 29L50 29L50 31L51 31L51 29L52 29L52 27L53 27L53 26L52 26L52 27L51 27L51 26L50 26L50 25L51 25L51 24L52 24L52 25L53 25L53 22L52 22L52 23L51 23L51 21L52 21L52 20L53 20L53 17L50 17L50 15L51 15L51 16L52 16L52 15L53 15L53 12L50 12L50 10L51 10L51 9L52 9L52 11L53 11L53 8L51 8L51 9L50 9L50 10L49 10L49 12L48 12L48 11L47 11L47 12L46 12L46 11L45 11L45 10L46 10L46 9L47 9L47 10L48 10L48 9L49 9L49 8L45 8L45 6L44 6L44 8L43 8L43 10L42 10L42 7L43 7L43 3L44 3L44 4L45 4L45 3L44 3L44 1L43 1L43 0L41 0L41 1L40 1L40 0L38 0L38 1L37 1L37 2L36 2L36 3L34 3L34 2L32 2L32 1L33 1L33 0L30 0L30 3L31 3L31 4L30 4L30 7L29 7L29 4L28 4L28 3L29 3L29 2L28 2L28 0L27 0L27 2L26 2L26 0L23 0L23 1L24 1L24 2L23 2L23 3L24 3L24 2L26 2L26 4L24 4L24 7L23 7L23 4L22 4L22 1L21 1L21 0L18 0L18 3L16 3L16 7L15 7L15 6L14 6L14 7L13 7L13 5L15 5L15 4L14 4L14 2L15 2L15 0L13 0L13 1L11 1L11 0ZM34 0L34 1L36 1L36 0ZM9 1L9 2L10 2L10 3L11 3L11 2L10 2L10 1ZM13 1L13 2L12 2L12 3L13 3L13 2L14 2L14 1ZM16 1L16 2L17 2L17 1ZM20 1L20 2L21 2L21 1ZM38 1L38 3L36 3L36 4L35 4L35 5L34 5L34 3L32 3L32 5L31 5L31 7L30 7L30 8L31 8L31 9L30 9L30 11L29 11L29 12L30 12L30 11L32 11L32 12L31 12L31 13L30 13L30 15L31 15L31 14L32 14L32 12L33 12L33 11L34 11L34 12L35 12L35 13L34 13L34 19L33 19L33 21L32 21L32 22L33 22L33 23L36 23L36 24L35 24L35 25L34 25L34 26L35 26L35 27L32 27L32 28L31 28L31 29L30 29L30 28L29 28L29 29L30 29L30 32L29 32L29 31L28 31L28 32L27 32L27 30L26 30L26 29L25 29L25 31L26 31L26 32L25 32L25 34L26 34L26 35L24 35L24 39L22 39L22 40L23 40L23 41L22 41L22 44L23 44L23 41L24 41L24 43L25 43L25 44L26 44L26 43L27 43L27 44L29 44L29 47L30 47L30 48L31 48L31 49L30 49L30 50L31 50L31 49L32 49L32 51L33 51L33 49L32 49L32 48L33 48L33 45L32 45L32 44L33 44L33 43L31 43L31 42L32 42L32 40L34 40L34 44L35 44L35 45L34 45L34 47L35 47L35 46L36 46L36 47L37 47L37 49L36 49L36 51L37 51L37 52L38 52L38 51L37 51L37 49L38 49L38 50L39 50L39 49L40 49L40 46L41 46L41 45L42 45L42 46L44 46L44 45L42 45L42 42L43 42L43 43L45 43L45 41L46 41L46 42L47 42L47 41L48 41L48 43L47 43L47 44L48 44L48 43L50 43L50 42L49 42L49 41L48 41L48 40L47 40L47 39L46 39L46 38L45 38L45 37L46 37L46 36L48 36L48 34L47 34L47 35L46 35L46 34L44 34L44 33L45 33L45 32L44 32L44 31L43 31L43 29L44 29L44 30L45 30L45 31L46 31L46 29L44 29L44 25L43 25L43 23L41 23L41 21L40 21L40 19L43 19L43 20L42 20L42 22L43 22L43 20L45 20L45 21L44 21L44 23L45 23L45 24L47 24L47 22L48 22L48 24L49 24L49 23L50 23L50 24L51 24L51 23L50 23L50 21L48 21L48 20L49 20L49 19L48 19L48 20L47 20L47 21L46 21L46 19L47 19L47 17L48 17L48 18L49 18L49 17L48 17L48 15L49 15L49 13L48 13L48 12L47 12L47 13L46 13L46 14L45 14L45 13L44 13L44 10L45 10L45 9L44 9L44 10L43 10L43 11L42 11L42 10L41 10L41 9L40 9L40 4L41 4L41 5L42 5L42 3L43 3L43 2L42 2L42 3L41 3L41 2L39 2L39 1ZM27 2L27 3L28 3L28 2ZM18 3L18 5L19 5L19 8L18 8L18 6L17 6L17 9L16 9L16 8L15 8L15 7L14 7L14 8L15 8L15 9L14 9L14 10L15 10L15 11L14 11L14 12L13 12L13 11L12 11L12 12L11 12L11 10L13 10L13 9L11 9L11 10L10 10L10 12L11 12L11 13L9 13L9 14L10 14L10 15L12 15L12 16L13 16L13 17L11 17L11 18L12 18L12 19L13 19L13 18L14 18L14 20L13 20L13 21L12 21L12 20L11 20L11 19L10 19L10 18L9 18L9 19L8 19L8 20L9 20L9 19L10 19L10 20L11 20L11 22L10 22L10 23L11 23L11 24L9 24L9 25L11 25L11 24L13 24L13 23L11 23L11 22L15 22L15 21L14 21L14 20L15 20L15 16L14 16L14 15L16 15L16 14L18 14L18 11L19 11L19 8L20 8L20 4L21 4L21 7L22 7L22 8L23 8L23 7L22 7L22 4L21 4L21 3ZM38 3L38 5L37 5L37 6L36 6L36 5L35 5L35 6L34 6L34 8L32 8L32 7L33 7L33 5L32 5L32 7L31 7L31 8L32 8L32 9L33 9L33 10L32 10L32 11L33 11L33 10L34 10L34 11L35 11L35 12L36 12L36 13L35 13L35 15L36 15L36 18L35 18L35 19L34 19L34 20L36 20L36 21L35 21L35 22L36 22L36 21L37 21L37 22L38 22L38 23L37 23L37 24L36 24L36 26L37 26L37 24L38 24L38 25L39 25L39 26L40 26L40 27L39 27L39 28L38 28L38 29L39 29L39 28L40 28L40 29L41 29L41 31L40 31L40 30L39 30L39 31L38 31L38 33L37 33L37 31L36 31L36 29L37 29L37 27L36 27L36 29L35 29L35 30L34 30L34 29L33 29L33 28L32 28L32 29L31 29L31 30L32 30L32 33L31 33L31 34L32 34L32 35L33 35L33 36L32 36L32 37L31 37L31 35L30 35L30 33L29 33L29 32L28 32L28 34L27 34L27 32L26 32L26 34L27 34L27 36L26 36L26 37L25 37L25 39L26 39L26 42L25 42L25 43L26 43L26 42L29 42L29 40L30 40L30 39L31 39L31 40L32 40L32 39L31 39L31 38L32 38L32 37L33 37L33 39L34 39L34 40L35 40L35 39L36 39L36 38L37 38L37 39L39 39L39 38L38 38L38 36L36 36L36 33L37 33L37 34L38 34L38 35L39 35L39 34L38 34L38 33L39 33L39 31L40 31L40 34L42 34L42 35L40 35L40 39L42 39L42 40L40 40L40 41L41 41L41 42L42 42L42 40L43 40L43 41L44 41L44 36L45 36L45 35L44 35L44 34L42 34L42 33L44 33L44 32L42 32L42 29L43 29L43 28L42 28L42 25L41 25L41 23L40 23L40 21L39 21L39 22L38 22L38 21L37 21L37 20L38 20L38 19L39 19L39 18L38 18L38 17L39 17L39 16L40 16L40 18L41 18L41 16L42 16L42 17L43 17L43 16L44 16L44 15L43 15L43 14L44 14L44 13L43 13L43 12L40 12L40 13L39 13L39 11L41 11L41 10L39 10L39 11L38 11L38 9L39 9L39 8L38 8L38 7L39 7L39 6L38 6L38 5L39 5L39 4L40 4L40 3ZM10 5L10 6L11 6L11 7L12 7L12 6L11 6L11 5ZM25 5L25 8L28 8L28 5ZM26 6L26 7L27 7L27 6ZM35 6L35 9L34 9L34 10L36 10L36 11L37 11L37 13L36 13L36 15L38 15L38 14L39 14L39 15L41 15L41 13L40 13L40 14L39 14L39 13L38 13L38 11L37 11L37 9L36 9L36 6ZM37 6L37 7L38 7L38 6ZM41 6L41 7L42 7L42 6ZM0 8L0 10L1 10L1 11L2 11L2 10L3 10L3 11L4 11L4 9L3 9L3 8ZM21 9L21 10L20 10L20 11L22 11L22 12L20 12L20 16L19 16L19 15L18 15L18 16L19 16L19 17L18 17L18 18L16 18L16 19L19 19L19 20L23 20L23 23L22 23L22 24L23 24L23 25L22 25L22 26L23 26L23 25L24 25L24 24L25 24L25 23L24 23L24 20L25 20L25 17L26 17L26 16L27 16L27 17L28 17L28 13L27 13L27 14L26 14L26 16L25 16L25 14L24 14L24 12L25 12L25 11L26 11L26 12L27 12L27 11L28 11L28 10L29 10L29 9L27 9L27 10L26 10L26 9ZM16 10L16 11L18 11L18 10ZM22 10L22 11L23 11L23 12L22 12L22 13L21 13L21 14L22 14L22 13L23 13L23 12L24 12L24 11L25 11L25 10ZM6 11L6 12L7 12L7 11ZM12 12L12 13L11 13L11 14L12 14L12 13L13 13L13 14L16 14L16 13L17 13L17 12L14 12L14 13L13 13L13 12ZM1 13L1 15L2 15L2 14L3 14L3 13ZM4 13L4 14L5 14L5 15L6 15L6 16L7 16L7 15L6 15L6 14L7 14L7 13L6 13L6 14L5 14L5 13ZM37 13L37 14L38 14L38 13ZM42 13L42 14L43 14L43 13ZM47 13L47 14L46 14L46 15L48 15L48 13ZM50 13L50 14L51 14L51 15L52 15L52 14L51 14L51 13ZM22 15L22 16L23 16L23 15ZM32 15L32 16L30 16L30 19L28 19L28 18L26 18L26 21L25 21L25 22L26 22L26 24L29 24L29 23L28 23L28 22L29 22L29 21L30 21L30 22L31 22L31 21L30 21L30 19L31 19L31 18L32 18L32 16L33 16L33 15ZM42 15L42 16L43 16L43 15ZM20 16L20 17L21 17L21 16ZM24 16L24 17L23 17L23 18L22 18L22 19L23 19L23 20L24 20L24 17L25 17L25 16ZM20 18L20 19L21 19L21 18ZM36 18L36 20L37 20L37 18ZM50 18L50 20L52 20L52 18ZM27 19L27 21L28 21L28 19ZM16 20L16 22L17 22L17 25L16 25L16 23L14 23L14 24L15 24L15 25L14 25L14 26L11 26L11 27L10 27L10 26L9 26L9 27L10 27L10 29L8 29L8 30L7 30L7 29L6 29L6 30L5 30L5 32L3 32L3 33L5 33L5 34L3 34L3 35L2 35L2 36L3 36L3 37L2 37L2 40L1 40L1 42L2 42L2 43L3 43L3 42L4 42L4 41L6 41L6 42L7 42L7 43L9 43L9 45L10 45L10 46L11 46L11 47L12 47L12 46L13 46L13 47L14 47L14 52L15 52L15 48L16 48L16 47L17 47L17 46L19 46L19 45L18 45L18 43L16 43L16 42L19 42L19 40L20 40L20 38L23 38L23 37L22 37L22 36L23 36L23 32L22 32L22 31L23 31L23 30L24 30L24 29L23 29L23 30L21 30L21 29L20 29L20 28L19 28L19 24L18 24L18 23L20 23L20 24L21 24L21 21L20 21L20 22L18 22L18 20ZM2 23L2 24L4 24L4 23ZM23 23L23 24L24 24L24 23ZM30 23L30 24L31 24L31 23ZM38 23L38 24L39 24L39 25L40 25L40 26L41 26L41 25L40 25L40 23ZM5 25L5 28L8 28L8 25ZM25 25L25 28L28 28L28 25ZM30 25L30 26L31 26L31 25ZM45 25L45 28L48 28L48 25ZM3 26L3 27L4 27L4 26ZM6 26L6 27L7 27L7 26ZM16 26L16 27L17 27L17 28L18 28L18 29L17 29L17 30L16 30L16 28L15 28L15 27L11 27L11 29L10 29L10 31L9 31L9 30L8 30L8 31L7 31L7 30L6 30L6 31L7 31L7 32L5 32L5 33L7 33L7 34L5 34L5 35L4 35L4 38L3 38L3 39L4 39L4 38L5 38L5 40L6 40L6 41L8 41L8 42L9 42L9 43L11 43L11 44L10 44L10 45L13 45L13 44L14 44L14 46L15 46L15 47L16 47L16 45L17 45L17 44L15 44L15 42L14 42L14 41L15 41L15 40L16 40L16 41L17 41L17 38L20 38L20 36L18 36L18 33L19 33L19 32L18 32L18 31L20 31L20 29L19 29L19 28L18 28L18 26ZM20 26L20 27L21 27L21 28L24 28L24 27L21 27L21 26ZM26 26L26 27L27 27L27 26ZM46 26L46 27L47 27L47 26ZM40 27L40 28L41 28L41 27ZM50 27L50 29L51 29L51 27ZM12 28L12 29L14 29L14 30L11 30L11 31L10 31L10 32L11 32L11 33L12 33L12 34L11 34L11 35L10 35L10 36L9 36L9 37L8 37L8 35L9 35L9 33L8 33L8 35L6 35L6 36L7 36L7 37L5 37L5 38L7 38L7 39L6 39L6 40L9 40L9 42L10 42L10 41L11 41L11 43L12 43L12 44L13 44L13 43L12 43L12 41L13 41L13 39L12 39L12 38L15 38L15 39L14 39L14 40L15 40L15 39L16 39L16 38L17 38L17 37L16 37L16 36L15 36L15 37L14 37L14 36L12 36L12 34L13 34L13 35L14 35L14 34L15 34L15 32L14 32L14 31L15 31L15 29L14 29L14 28ZM18 29L18 30L19 30L19 29ZM12 31L12 33L13 33L13 31ZM16 31L16 32L17 32L17 31ZM33 31L33 33L34 33L34 35L35 35L35 33L36 33L36 31L35 31L35 33L34 33L34 31ZM20 32L20 33L21 33L21 32ZM16 34L16 35L17 35L17 34ZM20 34L20 35L21 35L21 36L22 36L22 34ZM28 34L28 36L27 36L27 37L26 37L26 38L28 38L28 40L27 40L27 41L28 41L28 40L29 40L29 37L30 37L30 38L31 38L31 37L30 37L30 36L29 36L29 34ZM51 34L51 35L50 35L50 40L51 40L51 39L52 39L52 38L51 38L51 37L52 37L52 36L51 36L51 35L52 35L52 34ZM42 35L42 36L44 36L44 35ZM10 36L10 37L9 37L9 38L10 38L10 39L11 39L11 40L12 40L12 39L11 39L11 38L10 38L10 37L12 37L12 36ZM28 36L28 37L29 37L29 36ZM34 36L34 38L35 38L35 37L36 37L36 36ZM7 37L7 38L8 38L8 37ZM15 37L15 38L16 38L16 37ZM42 37L42 39L43 39L43 37ZM48 37L48 39L49 39L49 37ZM18 39L18 40L19 40L19 39ZM3 40L3 41L2 41L2 42L3 42L3 41L4 41L4 40ZM36 40L36 41L35 41L35 43L36 43L36 45L37 45L37 46L38 46L38 44L39 44L39 43L40 43L40 42L38 42L38 41L39 41L39 40ZM20 42L20 43L21 43L21 42ZM37 42L37 43L38 43L38 42ZM30 43L30 45L31 45L31 48L32 48L32 45L31 45L31 43ZM40 44L40 45L41 45L41 44ZM23 45L23 46L24 46L24 45ZM25 45L25 48L28 48L28 45ZM45 45L45 48L48 48L48 45ZM49 45L49 47L50 47L50 49L51 49L51 47L52 47L52 46L51 46L51 47L50 47L50 45ZM26 46L26 47L27 47L27 46ZM46 46L46 47L47 47L47 46ZM18 47L18 48L19 48L19 47ZM41 47L41 49L42 49L42 51L43 51L43 52L44 52L44 50L45 50L45 49L44 49L44 47L43 47L43 49L42 49L42 47ZM28 49L28 50L29 50L29 49ZM43 49L43 50L44 50L44 49ZM16 50L16 51L17 51L17 50ZM20 50L20 51L21 51L21 52L22 52L22 53L23 53L23 52L22 52L22 50ZM40 50L40 52L41 52L41 50ZM49 50L49 51L50 51L50 50ZM28 52L28 53L30 53L30 52ZM52 52L52 53L53 53L53 52ZM0 0L0 7L7 7L7 0ZM1 1L1 6L6 6L6 1ZM2 2L2 5L5 5L5 2ZM46 0L46 7L53 7L53 0ZM47 1L47 6L52 6L52 1ZM48 2L48 5L51 5L51 2ZM0 46L0 53L7 53L7 46ZM1 47L1 52L6 52L6 47ZM2 48L2 51L5 51L5 48Z" fill="#000000"/></g></g></svg>
